<?xml version="1.0" encoding="UTF-8"?>
<svg xmlns="http://www.w3.org/2000/svg" viewBox="0 0 1676 180">
  <defs>
    <style>
      .cls-1 {
        fill: #fff;
      }

      .cls-2 {
        fill: none;
      }

      .cls-3 {
        fill: #b1b4ab;
        stroke: #999;
      }

      .cls-3, .cls-4 {
        stroke-miterlimit: 10;
      }

      .cls-5 {
        fill: #8470a1;
      }

      .cls-6 {
        fill: #65605c;
      }

      .cls-7 {
        fill: #ddd;
      }

      .cls-8 {
        font-family: TrebuchetMS-Bold, 'Trebuchet MS';
        font-size: 13.99px;
        font-weight: 700;
      }

      .cls-8, .cls-9 {
        fill: #6b489d;
      }

      .cls-4 {
        stroke: #ccc;
      }

      .cls-4, .cls-10 {
        fill: #18171c;
      }

      .cls-11 {
        fill: #c6c6c6;
      }
    </style>
  </defs>
  <g id="back">
    <rect class="cls-11" x="5" y="4" width="1666" height="172" rx="10" ry="10"/>
    <rect class="cls-7" x="10" y="10" width="1655" height="160" rx="10" ry="10"/>
    <rect class="cls-5" x="548" y="156" width="672" height="8"/>
    <rect class="cls-5" x="19" y="156.5" width="518" height="8"/>
    <rect class="cls-5" x="1228" y="156" width="425" height="8"/>
  </g>
  <g id="link_ports">
    <g>
      <rect class="cls-3" x="700.83" y="47" width="332" height="98"/>
      <g>
        <g>
          <polygon class="cls-10" points="803.83 60 803.83 55 798.83 55 798.83 51 780.83 51 780.83 55 776.83 55 776.83 60 766.83 60 766.83 87 812.83 87 812.83 60 803.83 60"/>
          <polygon class="cls-10" points="856.83 60 856.83 55 851.83 55 851.83 51 833.83 51 833.83 55 829.83 55 829.83 60 819.83 60 819.83 87 865.83 87 865.83 60 856.83 60"/>
          <polygon class="cls-10" points="909.83 60 909.83 55 904.83 55 904.83 51 886.83 51 886.83 55 882.83 55 882.83 60 872.83 60 872.83 87 918.83 87 918.83 60 909.83 60"/>
          <polygon class="cls-10" points="962.83 60 962.83 55 957.83 55 957.83 51 939.83 51 939.83 55 935.83 55 935.83 60 925.83 60 925.83 87 971.83 87 971.83 60 962.83 60"/>
          <polygon class="cls-10" points="750.83 60 750.83 55 745.83 55 745.83 51 727.83 51 727.83 55 723.83 55 723.83 60 713.83 60 713.83 87 759.83 87 759.83 60 750.83 60"/>
          <polygon class="cls-10" points="1015.83 60 1015.83 55 1010.83 55 1010.83 51 992.83 51 992.83 55 988.83 55 988.83 60 978.83 60 978.83 87 1024.83 87 1024.83 60 1015.83 60"/>
        </g>
        <g>
          <polygon class="cls-10" points="803.83 132 803.83 137 798.83 137 798.83 141 780.83 141 780.83 137 776.83 137 776.83 132 766.83 132 766.83 105 812.83 105 812.83 132 803.83 132"/>
          <polygon class="cls-10" points="856.83 132 856.83 137 851.83 137 851.83 141 833.83 141 833.83 137 829.83 137 829.83 132 819.83 132 819.83 105 865.83 105 865.83 132 856.83 132"/>
          <polygon class="cls-10" points="909.83 132 909.83 137 904.83 137 904.83 141 886.83 141 886.83 137 882.83 137 882.83 132 872.83 132 872.83 105 918.83 105 918.83 132 909.83 132"/>
          <polygon class="cls-10" points="962.83 132 962.83 137 957.83 137 957.83 141 939.83 141 939.83 137 935.83 137 935.83 132 925.83 132 925.83 105 971.83 105 971.83 132 962.83 132"/>
          <polygon class="cls-10" points="750.83 132 750.83 137 745.83 137 745.83 141 727.83 141 727.83 137 723.83 137 723.83 132 713.83 132 713.83 105 759.83 105 759.83 132 750.83 132"/>
          <polygon class="cls-10" points="1015.83 132 1015.83 137 1010.83 137 1010.83 141 992.83 141 992.83 137 988.83 137 988.83 132 978.83 132 978.83 105 1024.83 105 1024.83 132 1015.83 132"/>
        </g>
      </g>
    </g>
    <g>
      <rect class="cls-3" x="359.92" y="47" width="332" height="98"/>
      <g>
        <g>
          <polygon class="cls-10" points="462.92 60 462.92 55 457.92 55 457.92 51 439.92 51 439.92 55 435.92 55 435.92 60 425.92 60 425.92 87 471.92 87 471.92 60 462.92 60"/>
          <polygon class="cls-10" points="515.92 60 515.92 55 510.92 55 510.92 51 492.92 51 492.92 55 488.92 55 488.92 60 478.92 60 478.92 87 524.92 87 524.92 60 515.92 60"/>
          <polygon class="cls-10" points="568.92 60 568.92 55 563.92 55 563.92 51 545.92 51 545.92 55 541.92 55 541.92 60 531.92 60 531.92 87 577.92 87 577.92 60 568.92 60"/>
          <polygon class="cls-10" points="621.92 60 621.92 55 616.92 55 616.92 51 598.92 51 598.92 55 594.92 55 594.92 60 584.92 60 584.92 87 630.92 87 630.92 60 621.92 60"/>
          <polygon class="cls-10" points="409.92 60 409.92 55 404.92 55 404.92 51 386.92 51 386.92 55 382.92 55 382.92 60 372.92 60 372.92 87 418.92 87 418.92 60 409.92 60"/>
          <polygon class="cls-10" points="674.92 60 674.92 55 669.92 55 669.92 51 651.92 51 651.92 55 647.92 55 647.92 60 637.92 60 637.92 87 683.92 87 683.92 60 674.92 60"/>
        </g>
        <g>
          <polygon class="cls-10" points="462.92 132 462.92 137 457.92 137 457.92 141 439.92 141 439.92 137 435.92 137 435.92 132 425.92 132 425.92 105 471.92 105 471.92 132 462.92 132"/>
          <polygon class="cls-10" points="515.92 132 515.92 137 510.92 137 510.92 141 492.92 141 492.92 137 488.92 137 488.92 132 478.92 132 478.92 105 524.92 105 524.92 132 515.92 132"/>
          <polygon class="cls-10" points="568.92 132 568.92 137 563.92 137 563.92 141 545.92 141 545.92 137 541.92 137 541.92 132 531.92 132 531.92 105 577.92 105 577.92 132 568.92 132"/>
          <polygon class="cls-10" points="621.92 132 621.92 137 616.92 137 616.92 141 598.92 141 598.92 137 594.92 137 594.92 132 584.92 132 584.92 105 630.92 105 630.92 132 621.92 132"/>
          <polygon class="cls-10" points="409.92 132 409.92 137 404.92 137 404.92 141 386.92 141 386.92 137 382.92 137 382.92 132 372.92 132 372.92 105 418.92 105 418.92 132 409.92 132"/>
          <polygon class="cls-10" points="674.92 132 674.92 137 669.92 137 669.92 141 651.92 141 651.92 137 647.92 137 647.92 132 637.92 132 637.92 105 683.92 105 683.92 132 674.92 132"/>
        </g>
      </g>
    </g>
    <g>
      <rect class="cls-3" x="19" y="47" width="332" height="98"/>
      <g>
        <g>
          <polygon class="cls-10" points="122 60 122 55 117 55 117 51 99 51 99 55 95 55 95 60 85 60 85 87 131 87 131 60 122 60"/>
          <polygon class="cls-10" points="175 60 175 55 170 55 170 51 152 51 152 55 148 55 148 60 138 60 138 87 184 87 184 60 175 60"/>
          <polygon class="cls-10" points="228 60 228 55 223 55 223 51 205 51 205 55 201 55 201 60 191 60 191 87 237 87 237 60 228 60"/>
          <polygon class="cls-10" points="281 60 281 55 276 55 276 51 258 51 258 55 254 55 254 60 244 60 244 87 290 87 290 60 281 60"/>
          <polygon class="cls-10" points="69 60 69 55 64 55 64 51 46 51 46 55 42 55 42 60 32 60 32 87 78 87 78 60 69 60"/>
          <polygon class="cls-10" points="334 60 334 55 329 55 329 51 311 51 311 55 307 55 307 60 297 60 297 87 343 87 343 60 334 60"/>
        </g>
        <g>
          <polygon class="cls-10" points="122 132 122 137 117 137 117 141 99 141 99 137 95 137 95 132 85 132 85 105 131 105 131 132 122 132"/>
          <polygon class="cls-10" points="175 132 175 137 170 137 170 141 152 141 152 137 148 137 148 132 138 132 138 105 184 105 184 132 175 132"/>
          <polygon class="cls-10" points="228 132 228 137 223 137 223 141 205 141 205 137 201 137 201 132 191 132 191 105 237 105 237 132 228 132"/>
          <polygon class="cls-10" points="281 132 281 137 276 137 276 141 258 141 258 137 254 137 254 132 244 132 244 105 290 105 290 132 281 132"/>
          <polygon class="cls-10" points="69 132 69 137 64 137 64 141 46 141 46 137 42 137 42 132 32 132 32 105 78 105 78 132 69 132"/>
          <polygon class="cls-10" points="334 132 334 137 329 137 329 141 311 141 311 137 307 137 307 132 297 132 297 105 343 105 343 132 334 132"/>
        </g>
      </g>
    </g>
    <g>
      <rect class="cls-3" x="1382.67" y="47" width="66" height="98"/>
      <g>
        <polygon class="cls-10" points="1429.67 60 1429.67 55 1424.67 55 1424.67 51 1406.67 51 1406.67 55 1402.67 55 1402.67 60 1392.67 60 1392.67 87 1438.67 87 1438.67 60 1429.67 60"/>
        <polygon class="cls-10" points="1429.67 132 1429.67 137 1424.67 137 1424.67 141 1406.67 141 1406.67 137 1402.67 137 1402.67 132 1392.67 132 1392.67 105 1438.67 105 1438.67 132 1429.67 132"/>
      </g>
    </g>
    <g>
      <rect class="cls-3" x="1041.75" y="47" width="332" height="98"/>
      <g>
        <g>
          <polygon class="cls-10" points="1141.75 60 1141.75 55 1136.75 55 1136.75 51 1118.75 51 1118.75 55 1114.75 55 1114.75 60 1104.75 60 1104.75 87 1150.75 87 1150.75 60 1141.75 60"/>
          <polygon class="cls-10" points="1194.75 60 1194.75 55 1189.75 55 1189.75 51 1171.75 51 1171.75 55 1167.75 55 1167.75 60 1157.75 60 1157.75 87 1203.75 87 1203.75 60 1194.75 60"/>
          <polygon class="cls-10" points="1247.75 60 1247.75 55 1242.75 55 1242.75 51 1224.75 51 1224.75 55 1220.75 55 1220.75 60 1210.75 60 1210.75 87 1256.75 87 1256.75 60 1247.75 60"/>
          <polygon class="cls-10" points="1300.75 60 1300.75 55 1295.75 55 1295.75 51 1277.75 51 1277.75 55 1273.75 55 1273.75 60 1263.75 60 1263.75 87 1309.75 87 1309.75 60 1300.75 60"/>
          <polygon class="cls-10" points="1088.75 60 1088.75 55 1083.75 55 1083.75 51 1065.75 51 1065.75 55 1061.75 55 1061.75 60 1051.75 60 1051.75 87 1097.75 87 1097.75 60 1088.75 60"/>
          <polygon class="cls-10" points="1353.75 60 1353.75 55 1348.75 55 1348.75 51 1330.75 51 1330.75 55 1326.75 55 1326.75 60 1316.75 60 1316.75 87 1362.75 87 1362.75 60 1353.75 60"/>
        </g>
        <g>
          <polygon class="cls-10" points="1141.75 132 1141.75 137 1136.75 137 1136.75 141 1118.75 141 1118.75 137 1114.75 137 1114.75 132 1104.75 132 1104.75 105 1150.75 105 1150.75 132 1141.75 132"/>
          <polygon class="cls-10" points="1194.75 132 1194.75 137 1189.75 137 1189.75 141 1171.75 141 1171.75 137 1167.75 137 1167.75 132 1157.75 132 1157.75 105 1203.75 105 1203.75 132 1194.75 132"/>
          <polygon class="cls-10" points="1247.75 132 1247.75 137 1242.75 137 1242.75 141 1224.75 141 1224.75 137 1220.75 137 1220.75 132 1210.75 132 1210.75 105 1256.75 105 1256.75 132 1247.75 132"/>
          <polygon class="cls-10" points="1300.75 132 1300.75 137 1295.75 137 1295.75 141 1277.75 141 1277.75 137 1273.75 137 1273.75 132 1263.75 132 1263.75 105 1309.75 105 1309.75 132 1300.75 132"/>
          <polygon class="cls-10" points="1088.75 132 1088.75 137 1083.75 137 1083.75 141 1065.75 141 1065.75 137 1061.75 137 1061.75 132 1051.75 132 1051.75 105 1097.75 105 1097.75 132 1088.75 132"/>
          <polygon class="cls-10" points="1353.75 132 1353.75 137 1348.75 137 1348.75 141 1330.75 141 1330.75 137 1326.75 137 1326.75 132 1316.75 132 1316.75 105 1362.75 105 1362.75 132 1353.75 132"/>
        </g>
      </g>
    </g>
  </g>
  <g id="console_ports">
    <g>
      <rect class="cls-3" x="1589" y="62" width="64" height="83" rx="2" ry="2"/>
      <polygon class="cls-10" points="1635 71 1635 66 1630 66 1630 62 1612 62 1612 66 1608 66 1608 71 1598 71 1598 98 1644 98 1644 71 1635 71"/>
      <g>
        <rect class="cls-10" x="1598" y="108.86" width="46" height="30.14"/>
        <rect class="cls-6" x="1598" y="120" width="46" height="8"/>
      </g>
    </g>
  </g>
  <g id="nome_switch">
    <g>
      <text class="cls-8" transform="translate(54.87 32.4)"><tspan x="0" y="0">Alcatel Lucent OS6360P48</tspan></text>
      <g>
        <path class="cls-2" d="M39.74,22.75c.15-.09.33.04.3.21.03-.09.05-.18.07-.27-.07-.07-.2-.04-.37.06Z"/>
        <path class="cls-2" d="M33.54,29.08s0-.03,0-.05c0,.02,0,.03,0,.05Z"/>
        <path class="cls-2" d="M33.57,29.36s0-.03-.01-.05c0,.02,0,.03.01.05Z"/>
        <path class="cls-2" d="M33.55,29.27s0-.03,0-.05c0,.02,0,.03,0,.05Z"/>
        <path class="cls-2" d="M33.54,29.18s0-.03,0-.05c0,.02,0,.03,0,.05Z"/>
        <path class="cls-2" d="M39.62,30.83s0-.04,0-.06c0,.02,0,.04,0,.06Z"/>
        <path class="cls-2" d="M36.31,28.06s.06-.06.09-.1c-.03.03-.06.06-.09.1Z"/>
        <path class="cls-2" d="M33.66,29.53s-.02-.03-.03-.04c0,.01.02.03.03.04Z"/>
        <path class="cls-2" d="M39.13,23.29s.08-.08.12-.12c-.04.04-.08.08-.12.12Z"/>
        <path class="cls-2" d="M33.88,29.76s-.03-.02-.05-.04c.02.01.03.02.05.04Z"/>
        <path class="cls-2" d="M33.79,29.69s-.03-.03-.04-.04c.01.01.03.03.04.04Z"/>
        <path class="cls-2" d="M37.38,26.16c-.18.07-.34-.13-.24-.29-.11.18-.19.32-.22.38.16,0,.31-.03.46-.09Z"/>
        <path class="cls-2" d="M42.77,31.13s-.03.04-.04.05c.01-.02.03-.04.04-.05Z"/>
        <path class="cls-2" d="M33.61,29.45s-.01-.03-.02-.04c0,.02.01.03.02.04Z"/>
        <path class="cls-2" d="M33.68,28.56s.02-.04.03-.06c0,.02-.02.04-.03.06Z"/>
        <path class="cls-2" d="M42.55,31.41s-.03.04-.05.06c.02-.02.04-.04.05-.06Z"/>
        <path class="cls-2" d="M33.64,28.67s.01-.04.02-.06c0,.02-.02.04-.02.06Z"/>
        <path class="cls-2" d="M39.87,31.6s-.02-.02-.03-.03c.01,0,.02.02.03.03Z"/>
        <path class="cls-2" d="M42.7,31.22s-.03.04-.04.05c.01-.02.03-.04.04-.05Z"/>
        <path class="cls-2" d="M33.73,28.45s.02-.04.03-.06c0,.02-.02.04-.03.06Z"/>
        <path class="cls-2" d="M42.62,31.32s-.03.04-.05.05c.02-.02.03-.04.05-.05Z"/>
        <path class="cls-2" d="M40.12,31.6s-.03.01-.05.02c-.02.01-.05.02-.07.02,0,0,.02,0,.03,0,.03-.01.06-.03.1-.04Z"/>
        <path class="cls-2" d="M33.55,28.98s0-.03,0-.05c0,.02,0,.04,0,.05Z"/>
        <path class="cls-2" d="M42.46,31.5s-.05.05-.07.07c.02-.02.05-.05.07-.07Z"/>
        <path class="cls-2" d="M33.6,28.77s.01-.04.02-.05c0,.02-.01.04-.02.05Z"/>
        <path class="cls-2" d="M33.57,28.88s0-.04.01-.05c0,.02,0,.04-.01.05Z"/>
        <path class="cls-2" d="M33.72,29.61s-.02-.03-.03-.04c.01.01.02.03.03.04Z"/>
        <path class="cls-2" d="M36.14,28.24s-.07.08-.11.12c.04-.04.07-.08.11-.12Z"/>
        <path class="cls-2" d="M44.02,29.04s-.03.09-.05.13c.02-.04.03-.09.05-.13Z"/>
        <path class="cls-2" d="M44.11,28.8s-.03.1-.05.15c.02-.05.03-.1.05-.15Z"/>
        <path class="cls-2" d="M44.18,28.54c-.02.06-.03.11-.05.17.02-.06.03-.11.05-.17Z"/>
        <path class="cls-2" d="M36.88,27.53s-.04.03-.05.04c.02-.01.04-.03.05-.04Z"/>
        <path class="cls-2" d="M35.89,28.53s-.07.09-.11.13c.04-.04.07-.09.11-.13Z"/>
        <path class="cls-2" d="M35.64,28.82s-.08.09-.11.14c.04-.05.08-.09.11-.14Z"/>
        <path class="cls-2" d="M37.22,27.28s-.05.03-.07.05c.02-.02.05-.03.07-.05Z"/>
        <path class="cls-2" d="M43.46,29.12s0,0,0-.01c0,0,0,0,0,.01Z"/>
        <path class="cls-2" d="M43.48,29.25s0,0,0-.01c0,0,0,0,0,.01Z"/>
        <path class="cls-2" d="M43.89,29.37s.03-.07.04-.1c-.01.03-.03.07-.04.1,0,0,0,0,0,0Z"/>
        <path class="cls-2" d="M37.05,27.4s-.04.03-.07.05c.02-.02.04-.03.07-.05Z"/>
        <path class="cls-2" d="M43.52,29.37s0,0,0,0c0,0,0-.01,0-.02,0,0,0,0,0,.01Z"/>
        <path class="cls-2" d="M44.36,27.57s0,.09-.01.13c0-.04,0-.09.01-.13Z"/>
        <path class="cls-2" d="M44.37,27.35s0,.08,0,.12c0-.04,0-.08,0-.12Z"/>
        <path class="cls-2" d="M34.41,30s-.06-.02-.08-.03c.03,0,.06.02.08.03Z"/>
        <path class="cls-2" d="M34.53,30.03s0,0,0,0c-.01,0-.03,0-.04,0,.01,0,.02,0,.03,0Z"/>
        <path class="cls-2" d="M33.99,29.83s-.04-.02-.06-.03c.02.01.04.02.06.03Z"/>
        <path class="cls-2" d="M34.25,29.94s-.05-.02-.07-.03c.02,0,.05.02.07.03Z"/>
        <path class="cls-2" d="M40.46,31.48s.08-.03.12-.04c-.04.01-.08.03-.12.04Z"/>
        <path class="cls-2" d="M34.73,29.96s.07-.08.1-.12c-.03.04-.07.09-.11.13,0,0,0,0,0,0Z"/>
        <path class="cls-2" d="M37.42,27.14s-.06.04-.1.07c.03-.02.06-.04.1-.07Z"/>
        <path class="cls-2" d="M44.3,28.02c-.01.06-.02.12-.03.18.01-.06.02-.12.03-.18Z"/>
        <path class="cls-2" d="M44.26,28.25c-.02.08-.04.15-.06.23.02-.08.04-.15.06-.23Z"/>
        <path class="cls-2" d="M44.34,27.8s-.01.1-.02.14c0-.05.02-.1.02-.14Z"/>
        <path class="cls-2" d="M35.09,29.51c-.05.06-.1.12-.15.19.05-.06.1-.12.15-.19Z"/>
        <path class="cls-2" d="M35.4,29.12c-.05.07-.11.14-.17.21.06-.07.11-.14.17-.21Z"/>
        <path class="cls-2" d="M39.62,30.91s0,.04,0,.06c0-.02,0-.04,0-.06Z"/>
        <path class="cls-2" d="M33.79,28.34s.02-.04.03-.06c-.01.02-.02.04-.03.06Z"/>
        <path class="cls-2" d="M41.8,30.68s.08-.07.12-.1c-.04.03-.08.07-.12.1Z"/>
        <path class="cls-2" d="M41.66,30.8s.03-.03.05-.04c-.02.01-.03.03-.05.04Z"/>
        <path class="cls-2" d="M39.63,31.04s0,.04,0,.06c0-.02,0-.04,0-.06Z"/>
        <path class="cls-2" d="M41.53,30.91s0,0,0,0c0,0,0,0,0,0Z"/>
        <path class="cls-2" d="M42.3,30.26s.06-.05.09-.08c-.03.02-.06.05-.09.08Z"/>
        <path class="cls-2" d="M39.65,31.18s0,.04.01.06c0-.02,0-.04-.01-.06Z"/>
        <path class="cls-2" d="M39.64,30.21s0,.03,0,.05c0-.02,0-.03,0-.05Z"/>
        <path class="cls-2" d="M41.98,30.53s.1-.08.14-.12c-.05.04-.1.08-.14.12Z"/>
        <path class="cls-2" d="M39.63,30.34s0,.04,0,.05c0-.02,0-.04,0-.05Z"/>
        <path class="cls-2" d="M39.62,30.48s0,.04,0,.06c0-.02,0-.04,0-.06Z"/>
        <path class="cls-2" d="M42.44,30.15s.06-.05.09-.07c-.03.02-.06.05-.09.07Z"/>
        <path class="cls-2" d="M42.13,30.41s.09-.07.13-.11c-.04.04-.09.07-.13.11Z"/>
        <path class="cls-2" d="M41.38,31.03s.02-.02.03-.03c-.01,0-.02.02-.03.03Z"/>
        <path class="cls-2" d="M40.96,31.3s.03-.01.05-.02c-.01,0-.03.01-.05.02Z"/>
        <path class="cls-2" d="M40.81,31.35s.04-.01.06-.02c-.02,0-.04.01-.06.02Z"/>
        <path class="cls-2" d="M39.91,31.62s.03.01.04.01c-.01,0-.03,0-.04-.01Z"/>
        <path class="cls-2" d="M40.32,31.53s.06-.02.08-.03c-.03,0-.06.02-.08.03Z"/>
        <path class="cls-2" d="M40.66,31.41s.05-.02.07-.02c-.02,0-.05.02-.07.02Z"/>
        <path class="cls-2" d="M40.18,31.58s.05-.02.08-.03c-.03,0-.05.02-.08.03Z"/>
        <path class="cls-2" d="M39.68,31.3s.01.04.02.05c0-.02-.01-.03-.02-.05Z"/>
        <path class="cls-2" d="M41.28,31.11s.02-.02.03-.03c-.01,0-.02.02-.03.03Z"/>
        <path class="cls-2" d="M41.19,31.18s.02-.01.03-.02c0,0-.02.01-.03.02Z"/>
        <path class="cls-2" d="M39.72,31.41s.01.03.02.05c0-.01-.02-.03-.02-.05Z"/>
        <path class="cls-2" d="M39.77,31.5s.02.02.03.04c0-.01-.02-.02-.03-.04Z"/>
        <path class="cls-2" d="M39.62,30.62s0,.04,0,.06c0-.02,0-.04,0-.06Z"/>
        <path class="cls-2" d="M34.2,27.66s.03-.05.05-.07c-.02.02-.03.05-.05.07Z"/>
        <path class="cls-2" d="M42.99,30.74s-.02.04-.02.05c0-.02.02-.04.02-.05Z"/>
        <path class="cls-2" d="M33.98,28s.03-.04.04-.06c-.01.02-.03.04-.04.06Z"/>
        <path class="cls-2" d="M43.02,30.64s-.01.04-.02.06c0-.02.01-.04.02-.06Z"/>
        <path class="cls-2" d="M43.06,30.54s-.01.04-.02.06c0-.02.01-.04.02-.06Z"/>
        <path class="cls-2" d="M34.13,27.78s.03-.04.04-.06c-.01.02-.03.04-.04.06Z"/>
        <path class="cls-2" d="M34.06,27.89s.03-.04.04-.06c-.01.02-.03.04-.04.06Z"/>
        <path class="cls-2" d="M33.85,28.23s.02-.04.03-.06c-.01.02-.02.04-.03.06Z"/>
        <path class="cls-2" d="M42.94,30.84s-.02.04-.03.05c0-.02.02-.04.03-.05Z"/>
        <path class="cls-2" d="M42.83,31.03s-.02.04-.03.05c.01-.02.02-.04.03-.05Z"/>
        <path class="cls-2" d="M42.89,30.94s-.02.04-.03.05c.01-.02.02-.04.03-.05Z"/>
        <path class="cls-2" d="M33.92,28.12s.02-.04.04-.06c-.01.02-.02.04-.04.06Z"/>
        <path class="cls-2" d="M34.55,27.15s.02-.02.02-.03c0,.01-.02.02-.02.03Z"/>
        <path class="cls-2" d="M43.09,30.11s0,.05,0,.07c0-.02,0-.05,0-.07Z"/>
        <path class="cls-2" d="M42.77,29.91s-.05.03-.08.05c.03-.02.06-.04.08-.06,0,0,0,0,0,0Z"/>
        <path class="cls-2" d="M39.65,30.1s0,.03,0,.04c0-.01,0-.03,0-.04Z"/>
        <path class="cls-2" d="M43.07,30.03s0,0,0,0c0,.02,0,.04.01.05,0-.02,0-.03,0-.05Z"/>
        <path class="cls-2" d="M39.67,29.92s0,.06,0,.1c0-.04,0-.07,0-.1Z"/>
        <path class="cls-2" d="M42.57,30.05s.08-.06.11-.09c-.04.03-.07.05-.11.09Z"/>
        <path class="cls-2" d="M34.47,27.27s.02-.03.03-.04c0,.01-.02.03-.03.04Z"/>
        <path class="cls-2" d="M43.09,30.33s0,.05,0,.08c0-.03,0-.05,0-.08Z"/>
        <path class="cls-2" d="M34.28,27.55s.03-.05.05-.08c-.02.03-.03.05-.05.08Z"/>
        <path class="cls-2" d="M43.1,30.21s0,.06,0,.1c0-.03,0-.06,0-.1Z"/>
        <path class="cls-2" d="M43.08,30.44s0,.04-.01.06c0-.02,0-.04.01-.06Z"/>
        <path class="cls-2" d="M34.4,27.38s.02-.03.03-.04c0,.01-.02.03-.03.04Z"/>
        <path class="cls-2" d="M34.11,29.89s-.04-.02-.07-.03c.02.01.04.02.07.03Z"/>
        <path class="cls-2" d="M43.17,24.94s.08.04.11.07c-.04-.02-.07-.04-.11-.07Z"/>
        <path class="cls-2" d="M39.76,23.9c.02-.08.05-.16.07-.24-.02.08-.05.16-.07.24Z"/>
        <path class="cls-2" d="M43.34,25.04s.09.06.14.1c-.04-.03-.09-.07-.14-.1Z"/>
        <path class="cls-2" d="M39.92,23.37c.02-.08.05-.16.07-.24-.02.08-.05.16-.07.24Z"/>
        <path class="cls-2" d="M42.98,24.85s.08.03.11.05c-.04-.02-.07-.04-.11-.05Z"/>
        <path class="cls-2" d="M39.58,24.44c.03-.08.05-.16.08-.24-.03.08-.05.16-.08.24Z"/>
        <path class="cls-2" d="M38.98,26.33c.03-.11.07-.23.1-.34-.04.11-.07.23-.1.34Z"/>
        <path class="cls-2" d="M43.94,25.63s.04.06.06.09c-.02-.03-.04-.06-.06-.09Z"/>
        <path class="cls-2" d="M43.82,25.47s.05.06.07.09c-.02-.03-.05-.06-.07-.09Z"/>
        <path class="cls-2" d="M39.71,22.77s-.06.04-.1.07c.03-.03.07-.05.1-.07Z"/>
        <path class="cls-2" d="M43.5,25.15c.05.04.1.08.14.13-.05-.04-.09-.09-.14-.13Z"/>
        <path class="cls-2" d="M43.69,25.32s.06.06.09.09c-.03-.03-.06-.06-.09-.09Z"/>
        <path class="cls-2" d="M39.34,25.19c.04-.12.08-.24.11-.35-.04.12-.08.24-.11.35Z"/>
        <path class="cls-2" d="M39.16,25.76c.03-.1.06-.21.1-.31-.03.1-.07.21-.1.31Z"/>
        <path class="cls-2" d="M41.82,24.63s.1,0,.14,0c-.05,0-.1,0-.14,0Z"/>
        <path class="cls-2" d="M42.09,24.64s.09,0,.14.01c-.04,0-.09-.01-.14-.01Z"/>
        <path class="cls-2" d="M38.9,23.54c-.04.05-.09.1-.14.15.05-.05.09-.1.14-.15Z"/>
        <path class="cls-2" d="M38.72,23.75c-.05.05-.09.11-.14.16.05-.06.09-.11.14-.16Z"/>
        <path class="cls-2" d="M41.55,24.63c.05,0,.1,0,.15,0-.05,0-.1,0-.15,0Z"/>
        <path class="cls-2" d="M38.55,23.95c-.06.07-.11.13-.16.2.05-.07.11-.14.16-.2Z"/>
        <path class="cls-2" d="M42.56,24.72s.08.02.12.03c-.04-.01-.08-.02-.12-.03Z"/>
        <path class="cls-2" d="M39.09,23.33c-.05.06-.1.11-.16.17.05-.06.11-.12.16-.17Z"/>
        <path class="cls-2" d="M41.35,24.64s0,0-.01,0c.02,0,.05,0,.08,0-.02,0-.04,0-.06,0Z"/>
        <path class="cls-2" d="M42.78,24.78s.08.03.12.04c-.04-.01-.08-.03-.12-.04Z"/>
        <path class="cls-2" d="M39.44,22.99s-.1.09-.15.14c.05-.05.1-.1.15-.14Z"/>
        <path class="cls-2" d="M42.33,24.67s.09.02.13.02c-.04,0-.09-.02-.13-.02Z"/>
        <path class="cls-2" d="M39.58,22.87s-.09.07-.13.11c.05-.04.09-.08.13-.11Z"/>
        <path class="cls-2" d="M41.98,31.97s-.03.03-.05.04c.02-.01.03-.03.05-.04Z"/>
        <path class="cls-2" d="M41.91,24.97c.07,0,.14,0,.21,0-.07,0-.14,0-.21,0Z"/>
        <path class="cls-2" d="M42.08,31.89s-.04.03-.05.05c.02-.02.04-.03.05-.05Z"/>
        <path class="cls-2" d="M41.89,32.05s-.03.03-.05.04c.02-.01.03-.03.05-.04Z"/>
        <path class="cls-2" d="M41.8,32.12s-.03.03-.05.04c.02-.01.03-.03.05-.04Z"/>
        <path class="cls-2" d="M41.7,32.19s-.03.03-.05.04c.02-.01.03-.03.05-.04Z"/>
        <path class="cls-2" d="M43.4,25.52c.05.05.1.1.15.15-.05-.05-.09-.1-.15-.15Z"/>
        <path class="cls-2" d="M44.36,26.93s0,.08,0,.12c0-.04,0-.08,0-.12Z"/>
        <path class="cls-2" d="M44.37,27.14s0,.08,0,.12c0-.04,0-.08,0-.12Z"/>
        <path class="cls-2" d="M42.38,31.59s-.06.06-.09.09c.03-.03.06-.06.09-.09Z"/>
        <path class="cls-2" d="M42.17,31.8s-.04.03-.06.05c.02-.02.04-.03.06-.05Z"/>
        <path class="cls-2" d="M42.27,31.71s-.04.04-.06.06c.02-.02.04-.04.06-.06Z"/>
        <path class="cls-2" d="M44.26,26.33s.02.07.03.1c0-.04-.02-.07-.03-.1Z"/>
        <path class="cls-2" d="M41.27,32.49s-.04.02-.05.03c.02-.01.03-.02.05-.03Z"/>
        <path class="cls-2" d="M44.2,26.14s.02.07.03.1c-.01-.03-.02-.07-.03-.1Z"/>
        <path class="cls-2" d="M44.12,25.96s.03.06.04.1c-.01-.03-.03-.07-.04-.1Z"/>
        <path class="cls-2" d="M44.04,25.79s.03.06.05.09c-.02-.03-.03-.06-.05-.09Z"/>
        <path class="cls-2" d="M41.35,32.44s-.03.02-.05.03c.02-.01.03-.02.05-.03Z"/>
        <path class="cls-2" d="M41.2,32.54s-.05.03-.07.04c.02-.01.05-.03.07-.04Z"/>
        <path class="cls-2" d="M41.44,32.38s-.03.02-.05.03c.02-.01.03-.02.05-.03Z"/>
        <path class="cls-2" d="M38.78,27.06c.05-.18.09-.36.14-.54-.05.18-.1.36-.14.54Z"/>
        <path class="cls-2" d="M41.52,32.32s-.03.02-.05.03c.02-.01.03-.02.05-.03Z"/>
        <path class="cls-2" d="M44.34,26.72s0,.07.01.11c0-.04,0-.08-.01-.11Z"/>
        <path class="cls-2" d="M41.61,32.26s-.03.02-.05.04c.02-.01.03-.02.05-.04Z"/>
        <path class="cls-2" d="M44.3,26.52s.01.07.02.11c0-.04-.01-.07-.02-.11Z"/>
        <path class="cls-2" d="M37.39,26.16s.09-.04.13-.06c-.04.02-.09.04-.13.06Z"/>
        <path class="cls-2" d="M43.86,27.76s.03-.09.05-.14c-.02.05-.03.09-.05.14Z"/>
        <path class="cls-2" d="M38.58,26.16s-.04.06-.07.09c.02-.03.04-.06.07-.09Z"/>
        <path class="cls-2" d="M43.91,27.61s.03-.09.04-.14c-.01.05-.03.09-.04.14Z"/>
        <path class="cls-2" d="M43.79,27.93s.04-.09.05-.14c-.02.05-.04.09-.05.14Z"/>
        <path class="cls-2" d="M38.77,25.74s0-.02,0-.03c0,.02,0,.04-.01.06,0-.01,0-.02.01-.03Z"/>
        <path class="cls-2" d="M38.67,26s-.03.06-.05.09c.02-.03.04-.06.05-.09Z"/>
        <path class="cls-2" d="M38.74,25.84s-.02.06-.04.1c.01-.03.03-.06.04-.1Z"/>
        <path class="cls-2" d="M44.03,27.14s0-.09.01-.14c0,.05,0,.09-.01.14Z"/>
        <path class="cls-2" d="M38.34,25.59s.03-.01.04-.02c-.01,0-.03.01-.04.02Z"/>
        <path class="cls-2" d="M44.04,27c0-.08,0-.16-.01-.24,0,.08.01.16.01.24Z"/>
        <path class="cls-2" d="M43.96,27.46s.02-.09.03-.14c-.01.05-.02.09-.03.14Z"/>
        <path class="cls-2" d="M38.5,25.52s-.01,0-.02.01c.01,0,.02,0,.03-.01,0,0,0,0,0,0Z"/>
        <path class="cls-2" d="M44,27.29s.02-.09.02-.13c0,.04-.01.09-.02.13Z"/>
        <path class="cls-2" d="M38.34,26.44s-.07.07-.11.1c.04-.03.07-.07.11-.1Z"/>
        <path class="cls-2" d="M37.82,26.86s-.07.05-.1.07c.04-.02.07-.05.1-.07Z"/>
        <path class="cls-2" d="M43.73,28.09s.04-.09.06-.14c-.02.05-.04.09-.06.14Z"/>
        <path class="cls-2" d="M38.01,26.73s-.08.06-.12.09c.04-.03.08-.06.12-.09Z"/>
        <path class="cls-2" d="M37.64,26.99s-.07.05-.1.07c.03-.02.07-.05.1-.07Z"/>
        <path class="cls-2" d="M43.55,28.56s0-.01,0-.02c0,0,0,.01,0,.02Z"/>
        <path class="cls-2" d="M43.47,28.85s0-.01,0-.02c0,0,0,.01,0,.02Z"/>
        <path class="cls-2" d="M43.51,28.7s0,0,0,0c0,0,0,0,0,0Z"/>
        <path class="cls-2" d="M38.2,26.57s-.1.08-.15.13c.05-.04.1-.08.15-.13Z"/>
        <path class="cls-2" d="M43.66,28.25s0-.02,0-.02c0,0,0,.02,0,.02Z"/>
        <path class="cls-2" d="M38.46,26.3s-.05.06-.08.09c.03-.03.05-.06.08-.09Z"/>
        <path class="cls-2" d="M43.6,28.41s0-.02,0-.03c0,0,0,.02,0,.03Z"/>
        <path class="cls-2" d="M38.21,25.67s0,0,0,0c0,0,0,0,0,0Z"/>
        <path class="cls-2" d="M41.88,24.97c-.07,0-.14,0-.22.02.07,0,.14-.02.22-.02Z"/>
        <path class="cls-2" d="M37.66,25.11c-.05.07-.09.13-.14.19.04-.06.09-.13.14-.19Z"/>
        <path class="cls-2" d="M37.81,24.9c-.04.05-.08.1-.11.15.04-.05.07-.1.11-.15Z"/>
        <path class="cls-2" d="M42.58,25.06c-.06-.02-.13-.04-.2-.05.07.01.13.03.2.05Z"/>
        <path class="cls-2" d="M42.81,25.14c-.06-.03-.13-.05-.19-.07.07.02.13.04.19.07Z"/>
        <path class="cls-2" d="M37.36,25.54s-.07.1-.1.14c.03-.05.06-.09.1-.14Z"/>
        <path class="cls-2" d="M43.02,25.25c-.06-.03-.12-.06-.19-.09.06.03.13.06.19.09Z"/>
        <path class="cls-2" d="M37.5,25.33c-.04.05-.07.1-.11.15.03-.05.07-.1.11-.15Z"/>
        <path class="cls-2" d="M38.34,24.21c-.04.05-.08.11-.13.16.04-.05.08-.11.13-.16Z"/>
        <path class="cls-2" d="M41.65,24.99c-.08.01-.15.03-.23.04.08-.02.15-.03.23-.04Z"/>
        <path class="cls-2" d="M44.02,26.74c0-.08-.02-.15-.04-.22.02.07.03.14.04.22Z"/>
        <path class="cls-2" d="M42.35,25.01c-.07-.01-.13-.02-.2-.03.07,0,.14.02.2.03Z"/>
        <path class="cls-2" d="M38.17,24.43c-.11.14-.21.28-.32.42.1-.14.21-.28.32-.42Z"/>
        <path class="cls-2" d="M43.91,26.26c-.02-.06-.05-.13-.08-.19.03.06.06.12.08.19Z"/>
        <path class="cls-2" d="M37.7,25.99s.06-.03.08-.05c-.03.02-.06.04-.08.05Z"/>
        <path class="cls-2" d="M37.84,25.91s.06-.04.09-.06c-.03.02-.06.04-.09.06Z"/>
        <path class="cls-2" d="M38.03,25.78s.04-.02.05-.03c-.02.01-.04.02-.05.03Z"/>
        <path class="cls-2" d="M43.98,26.49c-.02-.07-.04-.14-.06-.2.02.07.04.13.06.2Z"/>
        <path class="cls-2" d="M43.81,26.04c-.03-.06-.07-.12-.1-.17.04.06.07.11.1.17Z"/>
        <path class="cls-2" d="M37.55,26.08s.07-.04.1-.06c-.03.02-.07.04-.1.06Z"/>
        <path class="cls-2" d="M37.25,25.71c-.04.05-.07.1-.1.15.03-.05.06-.1.1-.15Z"/>
        <path class="cls-2" d="M43.38,25.51c-.05-.05-.11-.09-.17-.14.06.04.11.09.17.14Z"/>
        <path class="cls-2" d="M43.46,28.99s0-.02,0-.02c0,0,0,.02,0,.02Z"/>
        <path class="cls-2" d="M43.69,25.85c-.04-.06-.08-.11-.12-.16.04.05.09.1.12.16Z"/>
        <path class="cls-2" d="M43.21,25.37c-.06-.04-.12-.08-.18-.12.06.04.12.08.18.12Z"/>
        <path class="cls-9" d="M39.5,19.5c-4.69,0-8.5,3.81-8.5,8.5s3.81,8.5,8.5,8.5,8.5-3.81,8.5-8.5-3.81-8.5-8.5-8.5ZM42.29,31.68s-.02.02-.03.03c-.02.02-.04.04-.06.06-.01.01-.02.02-.04.03-.02.02-.04.03-.06.05-.01.01-.03.02-.04.03-.02.02-.04.03-.05.05-.01.01-.03.02-.04.03-.02.01-.03.03-.05.04-.01.01-.03.02-.04.03-.02.01-.03.03-.05.04-.01.01-.03.02-.04.03-.02.01-.03.03-.05.04-.01.01-.03.02-.04.03-.02.01-.03.03-.05.04-.01.01-.03.02-.04.03-.02.01-.03.02-.05.04-.01,0-.03.02-.04.03-.02.01-.03.02-.05.03-.01,0-.03.02-.04.03-.02.01-.03.02-.05.03-.01,0-.02.02-.03.02-.02.01-.03.02-.05.03-.01,0-.02.01-.03.02-.02.01-.04.02-.05.03,0,0-.02.01-.03.02-.02.02-.05.03-.07.04-4.41,2.53-2.92-3.21-2.34-5.53.05-.18.09-.36.14-.54.02-.06.04-.13.06-.19.03-.11.07-.23.1-.34.02-.08.05-.15.07-.23.03-.1.06-.21.1-.31.03-.09.06-.18.09-.27.04-.12.08-.24.11-.35.04-.13.08-.26.13-.39.03-.08.05-.16.08-.24.03-.1.07-.2.1-.31.02-.08.05-.16.07-.24.03-.1.06-.2.09-.3.02-.08.05-.16.07-.24.02-.05.03-.11.04-.16.03-.17-.15-.3-.3-.21,0,0-.02.01-.03.02-.03.02-.06.04-.1.07-.01,0-.02.02-.04.03-.04.04-.09.07-.13.11,0,0,0,0,0,0-.05.04-.1.09-.15.14-.01.01-.03.03-.04.04-.04.04-.08.08-.12.12-.01.01-.03.03-.04.04-.05.06-.1.11-.16.17-.01.01-.02.02-.03.03-.04.05-.09.1-.14.15-.02.02-.03.04-.05.06-.05.05-.09.11-.14.16-.01.01-.02.02-.03.04-.06.07-.11.13-.16.2-.01.02-.03.04-.04.05-.04.05-.08.11-.13.16-.02.02-.03.04-.05.06-.11.14-.21.28-.32.42-.01.02-.03.04-.04.06-.04.05-.08.1-.11.15-.01.02-.03.03-.04.05-.05.07-.09.13-.14.19,0,.01-.02.02-.02.03-.04.05-.07.1-.11.15-.01.02-.02.03-.04.05-.03.05-.07.1-.1.14,0,0-.01.02-.02.03-.04.05-.07.1-.1.15,0,0,0,0,0,.01-.1.16.06.36.24.29,0,0,0,0,.01,0,.04-.02.09-.04.13-.06,0,0,.02-.01.03-.02.03-.02.07-.04.1-.06.02,0,.03-.02.05-.03.03-.02.06-.03.08-.05.02-.01.04-.02.05-.03.03-.02.06-.04.09-.06.03-.02.07-.04.1-.06.02-.01.04-.02.05-.03.04-.03.09-.06.13-.08,0,0,0,0,0,0,.04-.02.08-.05.12-.07.01,0,.03-.01.04-.02.03-.02.06-.03.09-.04,0,0,.01,0,.02-.01,0,0,0,0,0,0,.1-.04.2-.08.31-.09,0,.1-.01.2-.04.3,0,0,0,.02,0,.03,0,.01,0,.02-.01.03,0,.02-.02.05-.02.07-.01.03-.02.06-.04.1-.01.02-.02.04-.03.07-.02.03-.03.06-.05.09-.01.02-.03.04-.04.06-.02.03-.04.06-.07.09-.02.02-.03.04-.05.06-.03.03-.05.06-.08.09-.02.02-.03.03-.05.05-.03.03-.07.07-.11.1-.01.01-.02.02-.03.03-.05.04-.1.08-.15.13-.01.01-.03.02-.04.03-.04.03-.08.06-.12.09-.02.02-.04.03-.06.05-.03.02-.07.05-.1.07-.02.02-.05.03-.07.05-.03.02-.07.05-.1.07-.04.03-.08.06-.12.08-.03.02-.06.04-.1.07-.03.02-.07.05-.1.07-.02.02-.05.03-.07.05-.03.02-.07.05-.1.07-.02.02-.04.03-.07.05-.03.03-.07.05-.1.08-.02.01-.04.03-.05.04-.05.04-.1.08-.14.12-.1.09-.19.18-.28.27-.03.03-.06.06-.09.1-.06.06-.12.12-.17.18-.04.04-.07.08-.11.12-.05.06-.1.11-.15.17-.04.04-.07.09-.11.13-.05.05-.09.11-.14.16-.04.05-.08.09-.11.14-.04.05-.09.11-.13.16-.06.07-.11.14-.17.21-.05.06-.1.12-.14.18-.05.06-.1.12-.15.19-.04.05-.07.09-.11.14-.03.04-.07.08-.1.12,0,0,0,0,0,0-.03.03-.05.06-.07.09-.04,0-.07-.02-.11-.03,0,0,0,0,0,0-.01,0-.02,0-.03,0-.03,0-.06-.02-.08-.02-.03,0-.06-.02-.08-.03-.03,0-.05-.02-.07-.03-.03,0-.05-.02-.07-.03-.02,0-.04-.02-.07-.03-.02-.01-.04-.02-.07-.03-.02,0-.04-.02-.06-.03-.02-.01-.04-.02-.06-.03-.02-.01-.03-.02-.05-.03-.02-.01-.03-.02-.05-.04-.01-.01-.03-.02-.04-.04-.01-.01-.03-.03-.04-.04-.01-.01-.02-.02-.03-.04-.01-.01-.02-.03-.03-.04,0-.01-.02-.03-.03-.04,0-.01-.02-.03-.03-.04,0-.01-.01-.03-.02-.04,0-.01-.01-.03-.02-.04,0-.01-.01-.03-.02-.04,0-.02,0-.03-.01-.05,0-.01,0-.03,0-.04,0-.02,0-.03,0-.05,0-.02,0-.03,0-.05,0-.02,0-.03,0-.05,0-.02,0-.03,0-.05,0-.02,0-.03,0-.05,0-.02,0-.03,0-.05,0-.02,0-.03,0-.05,0-.02,0-.03.01-.05,0-.02,0-.04.01-.05,0-.02,0-.03.01-.05,0-.02.01-.04.02-.05,0-.02.01-.03.02-.05,0-.02.01-.04.02-.06,0-.02.01-.03.02-.05,0-.02.02-.04.03-.06,0-.02.02-.04.02-.05,0-.02.02-.04.03-.06,0-.02.02-.04.03-.05.01-.02.02-.04.03-.06,0-.02.02-.04.03-.05.01-.02.02-.04.03-.06.01-.02.02-.04.03-.05.01-.02.02-.04.04-.06.01-.02.02-.03.03-.05.01-.02.03-.04.04-.06.01-.02.02-.04.03-.05.01-.02.03-.04.04-.06.01-.02.02-.04.04-.05.01-.02.03-.04.04-.06.01-.02.02-.03.03-.05.02-.02.03-.05.05-.07.01-.02.02-.03.03-.05.02-.03.03-.05.05-.08.02-.03.04-.07.07-.1,0-.01.02-.03.03-.04.02-.02.03-.05.05-.07,0-.01.02-.03.03-.04.02-.02.03-.05.05-.07,0-.01.02-.02.02-.03.02-.04.05-.07.07-.11.83-1.32,3.09-4.48,4.42-5.14.64-.32,1.98-.36,2.23.47.22.75-.92,3.99-1.14,5.02-.16.74-.41,1.85-.48,2.56,0,.03,0,.06,0,.1,0,.03,0,.05,0,.08,0,.01,0,.03,0,.04,0,.02,0,.05,0,.08,0,.02,0,.03,0,.05,0,.03,0,.05,0,.08,0,.02,0,.04,0,.05,0,.03,0,.05,0,.08,0,.02,0,.04,0,.06,0,.03,0,.05,0,.08,0,.02,0,.04,0,.06,0,.03,0,.05,0,.08,0,.02,0,.04,0,.06,0,.03,0,.05,0,.08,0,.02,0,.04,0,.06,0,.03,0,.05,0,.08,0,.02,0,.04,0,.06,0,.02,0,.05.01.07,0,.02,0,.04.01.06,0,.02,0,.04.02.06,0,.02.01.04.02.05,0,.02.01.04.02.06,0,.02.01.03.02.05,0,.02.02.03.03.05,0,.01.02.02.03.04.01.01.02.02.03.04.01,0,.02.02.03.03.01,0,.03.02.04.02.01,0,.03.01.04.01.01,0,.03,0,.05,0,.03,0,.05,0,.07-.02.02,0,.03-.01.05-.02.02,0,.04-.02.06-.02.02,0,.05-.02.08-.03.02,0,.04-.02.06-.02.03,0,.06-.02.08-.03.02,0,.04-.01.06-.02.04-.01.08-.03.12-.04.03,0,.05-.02.08-.03.02,0,.05-.02.07-.02.03,0,.05-.02.08-.03.02,0,.04-.01.06-.02.03-.01.06-.02.09-.04.02,0,.03-.01.05-.02.04-.02.08-.04.12-.06.02-.01.04-.02.07-.04,0,0,.02-.01.03-.02.02-.01.04-.03.06-.04.01,0,.02-.02.03-.03.02-.02.05-.04.07-.06.01,0,.02-.02.03-.03.04-.03.08-.06.12-.09,0,0,0,0,0,0,.04-.03.08-.07.13-.11.02-.01.03-.03.05-.04.03-.03.06-.05.09-.08.04-.03.08-.07.12-.1.02-.02.04-.03.06-.05.05-.04.1-.08.14-.12,0,0,0,0,0,0,.04-.04.09-.07.13-.11.01-.01.03-.02.04-.03.03-.03.06-.05.09-.08.01-.01.03-.02.04-.04.03-.02.06-.05.09-.07.01,0,.03-.02.04-.03.04-.03.08-.06.11-.09,0,0,0,0,0,0,.03-.02.05-.04.08-.05,0,0,0,0,0,0,.11-.07.19-.11.22-.08.04.07.06.13.08.2,0,0,0,0,0,0,0,.02,0,.03,0,.05,0,.01,0,.02,0,.04,0,.02,0,.05,0,.07,0,0,0,.02,0,.03,0,.03,0,.06,0,.1,0,0,0,.01,0,.02,0,.03,0,.05,0,.08,0,.01,0,.02,0,.04,0,.02,0,.04-.01.06,0,.01,0,.03-.01.04,0,.02-.01.04-.02.06,0,.01,0,.03-.01.04,0,.02-.01.04-.02.06,0,.01-.01.03-.02.04,0,.02-.02.04-.02.05,0,.01-.01.03-.02.04,0,.02-.02.04-.03.05,0,.01-.02.03-.02.04-.01.02-.02.04-.03.05,0,.01-.02.03-.03.04-.01.02-.02.04-.03.05,0,.01-.02.03-.03.04-.01.02-.03.04-.04.05-.01.01-.02.03-.03.04-.01.02-.03.04-.04.05-.01.01-.02.03-.03.04-.01.02-.03.04-.05.05-.01.01-.02.03-.03.04-.02.02-.03.04-.05.06,0,.01-.02.02-.03.03-.02.02-.05.05-.07.07,0,0-.01.01-.02.02-.03.03-.06.06-.09.09ZM44.37,27.35s0,.08,0,.12c0,.03,0,.06,0,.1,0,.04,0,.09-.01.13,0,.03,0,.06-.01.09,0,.05-.01.1-.02.14,0,.03,0,.05-.01.08-.01.06-.02.12-.03.18,0,.02,0,.03-.01.05-.02.08-.04.15-.06.23,0,.02-.01.04-.02.06-.02.06-.03.11-.05.17,0,.03-.02.06-.03.09-.02.05-.03.1-.05.15-.01.03-.02.06-.04.1-.02.05-.03.09-.05.13-.01.03-.03.07-.04.1-.01.03-.03.07-.04.1,0,0,0,0,0,0-.04.1-.09.2-.14.29-.11-.09-.18-.19-.23-.29,0,0,0,0,0,0,0,0,0,0,0-.01-.02-.04-.03-.07-.04-.11,0,0,0,0,0-.01,0-.04-.01-.07-.02-.11,0,0,0,0,0-.01,0-.04,0-.08,0-.12,0,0,0-.02,0-.02,0-.04,0-.08.02-.12,0,0,0-.01,0-.02,0-.04.02-.09.03-.13,0,0,0,0,0,0,.01-.04.02-.09.04-.13,0,0,0-.01,0-.02.01-.04.03-.09.05-.13,0,0,0-.02,0-.03.02-.04.03-.09.05-.13,0,0,0-.02,0-.02.02-.04.04-.09.05-.13.02-.05.04-.09.06-.14,0,0,0-.02.01-.03.02-.05.04-.09.05-.14,0,0,0-.02,0-.03.02-.05.03-.09.05-.14,0,0,0,0,0-.01.02-.05.03-.09.04-.14,0,0,0-.01,0-.02.01-.05.02-.09.03-.14,0,0,0-.02,0-.03,0-.05.02-.09.02-.13,0,0,0-.01,0-.02,0-.05,0-.09.01-.14,0-.08,0-.16-.01-.24,0,0,0-.01,0-.02,0-.08-.02-.15-.04-.22,0,0,0-.02,0-.03-.02-.07-.04-.14-.06-.2,0-.01,0-.02-.01-.03-.02-.06-.05-.13-.08-.19,0,0-.01-.02-.02-.03-.03-.06-.07-.12-.1-.17,0,0-.01-.02-.02-.03-.04-.06-.08-.11-.12-.16,0,0-.01-.01-.02-.02-.05-.05-.09-.1-.15-.15,0,0,0,0-.01-.01-.05-.05-.11-.09-.17-.14,0,0,0,0,0,0-.06-.04-.12-.08-.18-.12,0,0,0,0-.01,0-.06-.03-.12-.06-.19-.09,0,0-.02,0-.02-.01-.06-.03-.13-.05-.19-.07,0,0-.02,0-.03,0-.06-.02-.13-.04-.2-.05-.01,0-.02,0-.03,0-.07-.01-.13-.02-.2-.03-.01,0-.02,0-.03,0-.07,0-.14,0-.21,0,0,0-.02,0-.03,0-.07,0-.14,0-.22.02,0,0-.01,0-.02,0-.08.01-.15.03-.23.04-.08.02-.17.05-.25.08v-.27s0,0,0,0h0s0-.18,0-.18c.06,0,.11,0,.17-.01,0,0,0,0,.01,0,.02,0,.04,0,.06,0,.04,0,.09,0,.13,0,.05,0,.1,0,.15,0,.04,0,.08,0,.12,0,.05,0,.1,0,.14,0,.04,0,.08,0,.12,0,.05,0,.09,0,.14.01.04,0,.07,0,.11.01.04,0,.09.02.13.02.03,0,.07.01.1.02.04,0,.08.02.12.03.03,0,.06.02.09.03.04.01.08.03.12.04.03.01.06.02.09.03.04.02.08.03.11.05.02.01.05.02.07.04.04.02.08.04.11.07.02.01.04.02.06.04.05.03.09.06.14.1,0,0,.01,0,.02.01.05.04.1.08.14.13.01.01.03.03.04.04.03.03.06.06.09.09.02.02.03.04.05.06.02.03.05.06.07.09.02.02.03.04.04.07.02.03.04.06.06.09.01.02.03.05.04.07.02.03.03.06.05.09.01.03.02.05.04.08.01.03.03.06.04.1.01.03.02.05.03.08.01.03.02.07.03.1,0,.03.02.06.03.09,0,.03.02.07.03.1,0,.03.01.06.02.09,0,.04.01.07.02.11,0,.03.01.06.01.09,0,.04,0,.07.01.11,0,.03,0,.06,0,.09,0,.04,0,.08,0,.12,0,.03,0,.06,0,.1,0,.04,0,.08,0,.12,0,.03,0,.06,0,.1Z"/>
        <path class="cls-1" d="M42.46,31.5s.02-.02.03-.03c.02-.02.04-.04.05-.06.01-.01.02-.03.03-.04.02-.02.03-.04.05-.05.01-.01.02-.03.03-.04.01-.02.03-.04.04-.05.01-.01.02-.03.03-.04.01-.02.03-.04.04-.05,0-.01.02-.03.03-.04.01-.02.02-.04.03-.05,0-.01.02-.03.03-.04.01-.02.02-.04.03-.05,0-.01.02-.03.02-.04,0-.02.02-.04.03-.05,0-.01.01-.03.02-.04,0-.02.02-.04.02-.05,0-.01.01-.03.02-.04,0-.02.01-.04.02-.06,0-.01.01-.03.01-.04,0-.02.01-.04.02-.06,0-.01,0-.03.01-.04,0-.02,0-.04.01-.06,0-.01,0-.02,0-.04,0-.03,0-.05,0-.08,0,0,0-.01,0-.02,0-.03,0-.06,0-.1,0,0,0-.02,0-.03,0-.02,0-.05,0-.07,0-.01,0-.02,0-.04,0-.02,0-.04-.01-.05-.04-.13-.18-.19-.3-.12-.03.02-.05.04-.08.06,0,0,0,0,0,0-.04.03-.07.05-.11.09-.01,0-.02.02-.04.03-.03.02-.06.05-.09.07-.01.01-.03.02-.04.04-.03.02-.06.05-.09.08-.01.01-.03.02-.04.03-.04.04-.09.07-.13.11,0,0,0,0,0,0-.05.04-.1.08-.14.12-.02.02-.04.03-.06.05-.04.03-.08.07-.12.1-.03.03-.06.05-.09.08-.02.01-.03.03-.05.04-.04.04-.09.07-.13.11,0,0,0,0,0,0-.04.03-.08.06-.12.09-.01,0-.02.02-.03.03-.03.02-.05.04-.07.06-.01,0-.02.02-.03.03-.02.02-.04.03-.06.04,0,0-.02.01-.03.02-.03.02-.05.03-.07.04-.04.02-.08.04-.12.06-.01,0-.03.01-.05.02-.03.01-.06.02-.09.04-.02,0-.04.01-.06.02-.03,0-.05.02-.08.03-.02,0-.05.02-.07.02-.03,0-.05.02-.08.03-.04.01-.08.03-.12.04-.02,0-.04.01-.06.02-.03,0-.06.02-.08.03-.02,0-.04.02-.06.02-.03,0-.05.02-.08.03-.02,0-.04.02-.06.02-.03.01-.06.03-.1.04-.01,0-.02,0-.03,0,0,0-.01,0-.02,0,0,0-.02,0-.02,0-.01,0-.03,0-.04-.01-.01,0-.03-.01-.04-.02-.01,0-.02-.02-.03-.03-.01-.01-.02-.02-.03-.04,0-.01-.02-.02-.03-.04,0-.01-.02-.03-.03-.05,0-.01-.02-.03-.02-.05,0-.02-.01-.04-.02-.06,0-.02-.01-.03-.02-.05,0-.02-.01-.04-.02-.06,0-.02,0-.04-.01-.06,0-.02,0-.05-.01-.07,0-.02,0-.04,0-.06,0-.02,0-.05,0-.08,0-.02,0-.04,0-.06,0-.03,0-.05,0-.08,0-.02,0-.04,0-.06,0-.03,0-.05,0-.08,0-.02,0-.04,0-.06,0-.03,0-.05,0-.08,0-.02,0-.04,0-.06,0-.03,0-.05,0-.08,0-.02,0-.04,0-.05,0-.03,0-.05,0-.08,0-.02,0-.03,0-.05,0-.03,0-.05,0-.08,0-.01,0-.03,0-.04,0-.03,0-.06,0-.08,0-.04,0-.07,0-.1.07-.71.32-1.82.48-2.56.22-1.03,1.36-4.26,1.14-5.02-.25-.83-1.59-.79-2.23-.47-1.33.66-3.59,3.82-4.42,5.14-.02.03-.04.07-.07.11,0,.01-.02.02-.02.03-.02.02-.03.05-.05.07,0,.01-.02.03-.03.04-.02.02-.03.05-.05.07,0,.01-.02.03-.03.04-.02.03-.04.07-.07.1-.02.03-.03.05-.05.08-.01.02-.02.03-.03.05-.02.02-.03.05-.05.07-.01.02-.02.03-.03.05-.01.02-.03.04-.04.06-.01.02-.02.04-.04.05-.01.02-.03.04-.04.06-.01.02-.02.04-.03.05-.01.02-.03.04-.04.06-.01.02-.02.03-.03.05-.01.02-.02.04-.04.06-.01.02-.02.04-.03.05-.01.02-.02.04-.03.06-.01.02-.02.04-.03.05-.01.02-.02.04-.03.06,0,.02-.02.04-.03.05,0,.02-.02.04-.03.06,0,.02-.02.04-.02.05,0,.02-.02.04-.03.06,0,.02-.01.03-.02.05,0,.02-.02.04-.02.06,0,.02-.01.03-.02.05,0,.02-.01.04-.02.05,0,.02,0,.03-.01.05,0,.02,0,.04-.01.05,0,.02,0,.03-.01.05,0,.02,0,.04,0,.05,0,.02,0,.03,0,.05,0,.02,0,.03,0,.05,0,.02,0,.03,0,.05,0,.02,0,.03,0,.05,0,.02,0,.03,0,.05,0,.02,0,.03,0,.05,0,.01,0,.03,0,.04,0,.02,0,.03.01.05,0,.01,0,.03.02.04,0,.02.01.03.02.04,0,.01.01.03.02.04,0,.01.02.03.03.04,0,.01.02.03.03.04.01.01.02.03.03.04.01.01.02.03.03.04.01.01.03.03.04.04.01.01.03.02.04.04.02.01.03.02.05.04.02.01.03.02.05.03.02.01.04.02.06.03.02.01.04.02.06.03.02.01.04.02.07.03.02,0,.04.02.07.03.02,0,.05.02.07.03.02,0,.05.02.07.03.03,0,.06.02.08.03.03,0,.05.02.08.02.01,0,.03,0,.04,0,.07.01.14-.01.19-.06.04-.04.07-.09.11-.13.04-.05.07-.09.11-.14.05-.06.1-.12.15-.19.05-.06.1-.12.14-.18.05-.07.11-.14.17-.21.04-.05.09-.11.13-.16.04-.05.08-.09.11-.14.04-.05.09-.11.14-.16.04-.04.07-.09.11-.13.05-.06.1-.11.15-.17.04-.04.07-.08.11-.12.06-.06.12-.12.17-.18.03-.03.06-.06.09-.1.09-.09.19-.18.28-.27.05-.04.09-.08.14-.12.02-.01.04-.03.05-.04.03-.03.07-.05.1-.08.02-.02.04-.03.07-.05.03-.02.06-.05.1-.07.02-.02.05-.03.07-.05.03-.02.07-.05.1-.07.03-.02.06-.04.1-.07.04-.03.08-.06.12-.08.03-.02.07-.05.1-.07.02-.02.05-.03.07-.05.04-.02.07-.05.1-.07.02-.02.04-.03.06-.05.04-.03.08-.06.12-.09.01-.01.03-.02.04-.03.05-.04.1-.08.15-.13.01-.01.02-.02.03-.03.04-.03.07-.07.11-.1.02-.02.03-.03.05-.05.03-.03.05-.06.08-.09.02-.02.03-.04.05-.06.02-.03.04-.06.07-.09.01-.02.03-.04.04-.06.02-.03.04-.06.05-.09.01-.02.02-.04.03-.07.01-.03.03-.06.04-.1,0-.02.02-.05.02-.07,0-.02,0-.04.01-.06.02-.14-.13-.26-.27-.2-.01,0-.02,0-.03.01-.03.01-.06.03-.09.04-.01,0-.03.01-.04.02-.04.02-.08.04-.12.07,0,0,0,0,0,0-.04.03-.09.05-.13.08-.02.01-.04.02-.05.03-.03.02-.07.04-.1.06-.03.02-.06.04-.09.06-.02.01-.04.02-.05.03-.03.02-.06.04-.08.05-.02,0-.03.02-.05.03-.03.02-.07.04-.1.06,0,0-.02.01-.03.02-.04.02-.09.04-.13.06,0,0,0,0,0,0,0,0,0,0,0,0-.15.06-.3.1-.46.09.03-.07.1-.2.22-.38,0,0,0,0,0,0,0,0,0,0,0-.01.03-.05.06-.1.1-.15,0,0,.01-.02.02-.03.03-.05.06-.09.1-.14.01-.02.02-.03.04-.05.03-.05.07-.1.11-.15,0-.01.02-.02.02-.03.04-.06.09-.13.14-.19.01-.02.03-.03.04-.05.04-.05.07-.1.11-.15.01-.02.03-.04.04-.06.1-.14.21-.28.32-.42.02-.02.03-.04.05-.06.04-.05.08-.11.13-.16.01-.02.03-.04.04-.05.05-.07.11-.14.16-.2.01-.01.02-.02.03-.04.05-.06.09-.11.14-.16.02-.02.03-.04.05-.06.05-.05.09-.1.14-.15.01-.01.02-.02.03-.03.05-.06.11-.12.16-.17.01-.01.03-.03.04-.04.04-.04.08-.08.12-.12.01-.01.03-.03.04-.04.05-.05.1-.1.15-.14,0,0,0,0,0,0,.05-.04.09-.08.13-.11.01-.01.02-.02.04-.03.03-.03.07-.05.1-.07,0,0,.02-.01.02-.02,0,0,0,0,0,0,.17-.11.3-.14.37-.06-.02.09-.05.18-.07.27,0,0,0,0,0,.01-.01.05-.03.1-.04.15-.02.08-.05.16-.07.24-.03.1-.06.2-.09.3-.02.08-.05.16-.07.24-.03.1-.06.2-.1.31-.03.08-.05.16-.08.24-.04.13-.08.26-.13.39-.04.12-.08.24-.11.35-.03.09-.06.18-.09.27-.03.1-.07.21-.1.31-.02.08-.05.15-.07.23-.04.11-.07.23-.1.34-.02.06-.04.13-.06.19-.05.18-.1.36-.14.54-.58,2.32-2.07,8.05,2.34,5.53.02-.01.05-.03.07-.04,0,0,.02-.01.03-.02.02-.01.03-.02.05-.03,0,0,.02-.01.03-.02.02-.01.03-.02.05-.03.01,0,.02-.02.03-.02.02-.01.03-.02.05-.03.01,0,.03-.02.04-.03.02-.01.03-.02.05-.03.01,0,.03-.02.04-.03.02-.01.03-.02.05-.04.01,0,.03-.02.04-.03.02-.01.03-.03.05-.04.01-.01.03-.02.04-.03.02-.01.03-.03.05-.04.01-.01.03-.02.04-.03.02-.01.03-.03.05-.04.01-.01.03-.02.04-.03.02-.01.03-.03.05-.04.01-.01.03-.02.04-.03.02-.02.04-.03.05-.05.01-.01.03-.02.04-.03.02-.02.04-.03.06-.05.01-.01.02-.02.04-.03.02-.02.04-.04.06-.06,0,0,.02-.02.03-.03.03-.03.06-.06.09-.09,0,0,.01-.01.02-.02.02-.02.05-.05.07-.07Z"/>
        <path class="cls-1" d="M37.32,27.21s-.07.05-.1.07c.03-.02.07-.05.1-.07Z"/>
        <path class="cls-1" d="M37.72,26.94s-.05.03-.07.05c.02-.02.05-.03.07-.05Z"/>
        <path class="cls-1" d="M37.15,27.33s-.07.05-.1.07c.03-.02.06-.05.1-.07Z"/>
        <path class="cls-1" d="M37.54,27.06s-.08.06-.12.08c.04-.03.08-.06.12-.08Z"/>
        <path class="cls-1" d="M38.22,25.66s.08-.05.12-.07c-.04.02-.08.04-.12.07Z"/>
        <path class="cls-1" d="M36.31,28.06c-.06.06-.12.12-.17.18.06-.06.12-.12.17-.18Z"/>
        <path class="cls-1" d="M36.99,27.45s-.07.05-.1.08c.03-.03.07-.05.1-.08Z"/>
        <path class="cls-1" d="M36.83,27.57s-.1.08-.14.12c.05-.04.09-.08.14-.12Z"/>
        <path class="cls-1" d="M38.51,26.24s-.03.04-.05.06c.02-.02.03-.04.05-.06Z"/>
        <path class="cls-1" d="M38.76,25.77s-.02.05-.02.07c0-.02.02-.05.02-.07Z"/>
        <path class="cls-1" d="M38.7,25.94s-.02.04-.03.07c.01-.02.02-.04.03-.07Z"/>
        <path class="cls-1" d="M38.39,25.57s.06-.03.09-.04c-.03.01-.06.03-.09.04Z"/>
        <path class="cls-1" d="M38.62,26.09s-.03.04-.04.06c.01-.02.03-.04.04-.06Z"/>
        <path class="cls-1" d="M38.38,26.39s-.03.03-.05.05c.02-.02.03-.03.05-.05Z"/>
        <path class="cls-1" d="M38.23,26.54s-.02.02-.03.03c.01-.01.02-.02.03-.03Z"/>
        <path class="cls-1" d="M35.78,28.66c-.05.05-.09.11-.14.16.04-.05.09-.11.14-.16Z"/>
        <path class="cls-1" d="M38.05,26.7s-.03.02-.04.03c.01-.01.03-.02.04-.03Z"/>
        <path class="cls-1" d="M37.89,26.82s-.04.03-.06.05c.02-.02.04-.03.06-.05Z"/>
        <path class="cls-1" d="M36.03,28.36c-.05.06-.1.11-.15.17.05-.06.1-.11.15-.17Z"/>
        <path class="cls-1" d="M39.25,23.17s.03-.03.04-.04c-.01.01-.03.03-.04.04Z"/>
        <path class="cls-1" d="M33.83,29.72s-.03-.02-.04-.04c.01.01.03.02.04.04Z"/>
        <path class="cls-1" d="M33.75,29.65s-.02-.02-.03-.04c.01.01.02.03.03.04Z"/>
        <path class="cls-1" d="M39.71,22.77s.02-.01.03-.02c0,0,0,0,0,0,0,0-.02.01-.02.02Z"/>
        <polygon class="cls-1" points="37.39 26.16 37.38 26.16 37.38 26.16 37.39 26.16"/>
        <path class="cls-1" d="M33.93,29.79s-.03-.02-.05-.03c.02.01.03.02.05.03Z"/>
        <path class="cls-1" d="M33.68,29.57s-.02-.03-.03-.04c0,.01.02.03.03.04Z"/>
        <path class="cls-1" d="M37.14,25.87s0,0,0-.01c0,0,0,0,0,.01,0,0,0,0,0,0Z"/>
        <path class="cls-1" d="M35.53,28.96c-.04.05-.09.11-.13.16.04-.05.09-.11.13-.16Z"/>
        <path class="cls-1" d="M34.33,29.97s-.05-.02-.07-.03c.02,0,.05.02.07.03Z"/>
        <path class="cls-1" d="M34.49,30.02s-.06-.02-.08-.02c.03,0,.05.02.08.02Z"/>
        <path class="cls-1" d="M34.94,29.7s-.07.09-.11.14c.04-.05.07-.09.11-.14Z"/>
        <path class="cls-1" d="M40.03,22.96c-.01.05-.03.11-.04.16.01-.05.03-.1.04-.15,0,0,0,0,0-.01Z"/>
        <path class="cls-1" d="M35.23,29.33c-.05.06-.1.12-.14.18.05-.06.1-.12.14-.18Z"/>
        <path class="cls-1" d="M34.05,29.86s-.04-.02-.06-.03c.02.01.04.02.06.03Z"/>
        <path class="cls-1" d="M42.38,31.59s.01-.01.02-.02c0,0-.01.01-.02.02Z"/>
        <path class="cls-1" d="M34.18,29.92s-.04-.02-.07-.03c.02,0,.04.02.07.03Z"/>
        <path class="cls-1" d="M39.83,23.66c.03-.1.06-.2.09-.3-.03.1-.06.2-.09.3Z"/>
        <path class="cls-1" d="M41.39,32.42s-.02.02-.03.02c.01,0,.02-.02.03-.02Z"/>
        <path class="cls-1" d="M41.22,32.52s-.02.01-.03.02c0,0,.02-.01.03-.02Z"/>
        <path class="cls-1" d="M41.3,32.47s-.02.01-.03.02c0,0,.02-.01.03-.02Z"/>
        <path class="cls-1" d="M41.48,32.36s-.03.02-.04.03c.01,0,.03-.02.04-.03Z"/>
        <path class="cls-1" d="M41.56,32.3s-.03.02-.04.03c.01,0,.03-.02.04-.03Z"/>
        <path class="cls-1" d="M39.25,25.45c.03-.09.06-.18.09-.27-.03.09-.06.18-.09.27Z"/>
        <path class="cls-1" d="M39.66,24.21c.03-.1.07-.2.1-.31-.03.1-.06.2-.1.31Z"/>
        <path class="cls-1" d="M38.93,26.52c.02-.06.04-.13.06-.19-.02.06-.04.13-.06.19Z"/>
        <path class="cls-1" d="M39.09,25.99c.02-.08.05-.15.07-.23-.02.08-.05.15-.07.23Z"/>
        <path class="cls-1" d="M39.46,24.83c.04-.13.08-.26.13-.39-.04.13-.08.26-.13.39Z"/>
        <path class="cls-1" d="M42.11,31.85s-.03.02-.04.03c.01-.01.03-.02.04-.03Z"/>
        <path class="cls-1" d="M42.2,31.77s-.02.02-.04.03c.01-.01.02-.02.04-.03Z"/>
        <path class="cls-1" d="M42.29,31.68s-.02.02-.03.03c0,0,.02-.02.03-.03Z"/>
        <path class="cls-1" d="M42.02,31.93s-.03.02-.04.03c.01-.01.03-.02.04-.03Z"/>
        <path class="cls-1" d="M38.08,25.75s.09-.06.13-.08c-.04.03-.09.05-.13.08Z"/>
        <path class="cls-1" d="M41.74,32.16s-.03.02-.04.03c.01-.01.03-.02.04-.03Z"/>
        <path class="cls-1" d="M41.65,32.23s-.03.02-.04.03c.01,0,.03-.02.04-.03Z"/>
        <path class="cls-1" d="M41.93,32.01s-.03.02-.04.03c.01-.01.03-.02.04-.03Z"/>
        <path class="cls-1" d="M41.84,32.09s-.03.02-.04.03c.01-.01.03-.02.04-.03Z"/>
        <path class="cls-1" d="M37.26,25.68s-.01.02-.02.03c0,0,.01-.02.02-.03Z"/>
        <path class="cls-1" d="M37.4,25.49s-.02.03-.04.05c.01-.02.02-.03.04-.05Z"/>
        <path class="cls-1" d="M37.52,25.3s-.02.02-.02.03c0-.01.02-.02.02-.03Z"/>
        <path class="cls-1" d="M37.7,25.06s-.03.03-.04.05c.01-.02.03-.03.04-.05Z"/>
        <path class="cls-1" d="M37.52,26.1s.02-.01.03-.02c0,0-.02.01-.03.02Z"/>
        <path class="cls-1" d="M37.86,24.84s-.03.04-.04.06c.01-.02.03-.04.04-.06Z"/>
        <path class="cls-1" d="M37.93,25.85s.07-.04.1-.06c-.03.02-.07.04-.1.06Z"/>
        <path class="cls-1" d="M37.78,25.94s.04-.02.05-.03c-.02.01-.04.02-.05.03Z"/>
        <path class="cls-1" d="M37.65,26.02s.03-.02.05-.03c-.02,0-.03.02-.05.03Z"/>
        <path class="cls-1" d="M39.13,23.29s-.03.03-.04.04c.01-.01.03-.03.04-.04Z"/>
        <path class="cls-1" d="M39.44,22.99s0,0,0,0c0,0,0,0,0,0Z"/>
        <path class="cls-1" d="M33.63,29.49s-.01-.03-.02-.04c0,.01.01.03.02.04Z"/>
        <path class="cls-1" d="M39.61,22.84s-.02.02-.04.03c.01-.01.02-.02.04-.03Z"/>
        <path class="cls-1" d="M38.22,24.37s-.03.04-.05.06c.02-.02.03-.04.05-.06Z"/>
        <path class="cls-1" d="M38.93,23.5s-.02.02-.03.03c.01-.01.02-.02.03-.03Z"/>
        <path class="cls-1" d="M38.39,24.15s-.03.04-.04.05c.01-.02.03-.04.04-.05Z"/>
        <path class="cls-1" d="M38.77,23.69s-.03.04-.05.06c.02-.02.03-.04.05-.06Z"/>
        <path class="cls-1" d="M38.58,23.91s-.02.02-.03.04c.01-.01.02-.02.03-.04Z"/>
        <path class="cls-1" d="M43.09,30.4s0,.02,0,.04c0-.01,0-.02,0-.04Z"/>
        <path class="cls-1" d="M43.09,30.18s0,.02,0,.03c0,0,0-.02,0-.03Z"/>
        <path class="cls-1" d="M34.02,27.94s.02-.04.03-.05c-.01.02-.02.04-.03.05Z"/>
        <path class="cls-1" d="M43.08,30.08s0,.02,0,.04c0-.01,0-.02,0-.04Z"/>
        <path class="cls-1" d="M39.66,30.01s0,.05,0,.08c0-.03,0-.06,0-.08Z"/>
        <path class="cls-1" d="M34.5,27.22s.03-.05.05-.07c-.02.02-.03.05-.05.07Z"/>
        <path class="cls-1" d="M34.57,27.12s.05-.07.07-.11c-.02.03-.04.07-.07.11Z"/>
        <path class="cls-1" d="M42.53,30.08s.03-.02.04-.03c-.01,0-.02.02-.04.03Z"/>
        <path class="cls-1" d="M39.64,30.26s0,.05,0,.08c0-.03,0-.05,0-.08Z"/>
        <path class="cls-1" d="M42.26,30.3s.03-.02.04-.03c-.01.01-.03.02-.04.03Z"/>
        <path class="cls-1" d="M42.39,30.19s.03-.02.04-.04c-.01.01-.03.02-.04.04Z"/>
        <path class="cls-1" d="M39.65,30.14s0,.05,0,.08c0-.03,0-.05,0-.08Z"/>
        <path class="cls-1" d="M40.59,31.43s.05-.02.08-.03c-.03,0-.05.02-.08.03Z"/>
        <path class="cls-1" d="M43.04,30.6s0,.03-.01.04c0-.01.01-.03.01-.04Z"/>
        <path class="cls-1" d="M34.17,27.72s.02-.03.03-.05c-.01.02-.02.03-.03.05Z"/>
        <path class="cls-1" d="M43,30.69s-.01.03-.02.04c0-.01.01-.03.02-.04Z"/>
        <path class="cls-1" d="M43.07,30.5s0,.03-.01.04c0-.01,0-.03.01-.04Z"/>
        <path class="cls-1" d="M34.43,27.33s.03-.05.05-.07c-.02.02-.03.05-.05.07Z"/>
        <path class="cls-1" d="M34.09,27.83s.02-.04.04-.05c-.01.02-.02.04-.04.05Z"/>
        <path class="cls-1" d="M34.33,27.47s.04-.07.07-.1c-.02.03-.04.06-.07.1Z"/>
        <path class="cls-1" d="M34.25,27.6s.02-.03.03-.05c-.01.02-.02.03-.03.05Z"/>
        <path class="cls-1" d="M43.1,30.3s0,.01,0,.02c0,0,0-.01,0-.02Z"/>
        <path class="cls-1" d="M39.63,30.39s0,.05,0,.08c0-.03,0-.05,0-.08Z"/>
        <path class="cls-1" d="M42.68,29.97s0,0,0,0c0,0,0,0,0,0Z"/>
        <path class="cls-1" d="M39.7,31.35s.01.04.02.06c0-.02-.01-.04-.02-.06Z"/>
        <path class="cls-1" d="M39.87,31.6s.03.02.04.02c-.01,0-.03-.01-.04-.02Z"/>
        <path class="cls-1" d="M41.22,31.16s.04-.03.06-.04c-.02.02-.04.03-.06.04Z"/>
        <path class="cls-1" d="M39.74,31.45s.02.03.03.05c0-.01-.02-.03-.03-.05Z"/>
        <path class="cls-1" d="M41,31.28s.08-.04.12-.06c-.04.02-.08.04-.12.06Z"/>
        <path class="cls-1" d="M41.12,31.22s.04-.02.07-.04c-.03.02-.05.03-.07.04Z"/>
        <path class="cls-1" d="M40.12,31.6s.04-.02.06-.02c-.02,0-.04.02-.06.02Z"/>
        <path class="cls-1" d="M40.4,31.5s.04-.01.06-.02c-.02,0-.04.01-.06.02Z"/>
        <path class="cls-1" d="M40.73,31.38s.05-.02.08-.03c-.03,0-.05.02-.08.03Z"/>
        <path class="cls-1" d="M40.87,31.33s.06-.02.09-.04c-.03.01-.06.02-.09.04Z"/>
        <path class="cls-1" d="M42.12,30.41s0,0,0,0c0,0,0,0,0,0Z"/>
        <path class="cls-1" d="M40.25,31.55s.04-.02.06-.02c-.02,0-.04.02-.06.02Z"/>
        <path class="cls-1" d="M39.62,30.83s0,.05,0,.08c0-.03,0-.05,0-.08Z"/>
        <path class="cls-1" d="M39.63,30.97s0,.05,0,.08c0-.02,0-.05,0-.08Z"/>
        <path class="cls-1" d="M41.71,30.76s.06-.05.09-.08c-.03.03-.06.05-.09.08Z"/>
        <path class="cls-1" d="M39.62,30.54s0,.05,0,.08c0-.03,0-.05,0-.08Z"/>
        <path class="cls-1" d="M41.92,30.58s.04-.03.06-.05c-.02.02-.04.03-.06.05Z"/>
        <path class="cls-1" d="M41.42,31s.08-.06.12-.09c-.04.03-.08.06-.12.09Z"/>
        <path class="cls-1" d="M39.66,31.24s0,.04.02.06c0-.02-.01-.04-.02-.06Z"/>
        <path class="cls-1" d="M41.54,30.91s.08-.07.13-.11c-.04.04-.09.07-.13.11Z"/>
        <path class="cls-1" d="M41.31,31.09s.05-.04.07-.06c-.03.02-.05.04-.07.06Z"/>
        <path class="cls-1" d="M39.64,31.11s0,.05.01.07c0-.02,0-.05-.01-.07Z"/>
        <path class="cls-1" d="M33.54,29.13s0-.03,0-.05c0,.02,0,.03,0,.05Z"/>
        <path class="cls-1" d="M33.56,28.93s0-.03.01-.05c0,.02,0,.03-.01.05Z"/>
        <path class="cls-1" d="M40,31.64s-.03,0-.05,0c0,0,.02,0,.02,0,0,0,.01,0,.02,0Z"/>
        <path class="cls-1" d="M42.79,31.09s-.02.03-.03.04c0-.01.02-.03.03-.04Z"/>
        <path class="cls-1" d="M33.59,28.83s0-.03.01-.05c0,.02,0,.03-.01.05Z"/>
        <path class="cls-1" d="M43.07,30.02c-.02-.07-.04-.14-.08-.2-.03-.02-.11.01-.22.08.11-.07.26-.01.3.12Z"/>
        <path class="cls-1" d="M42.86,30.99s-.02.03-.03.04c0-.01.02-.03.03-.04Z"/>
        <path class="cls-1" d="M39.83,31.57s-.02-.02-.03-.04c.01.01.02.02.03.04Z"/>
        <path class="cls-1" d="M33.55,29.03s0-.03,0-.05c0,.02,0,.03,0,.05Z"/>
        <path class="cls-1" d="M33.82,28.28s.02-.04.03-.05c-.01.02-.02.04-.03.05Z"/>
        <path class="cls-1" d="M33.76,28.39s.02-.04.03-.05c0,.02-.02.04-.03.05Z"/>
        <path class="cls-1" d="M33.66,28.61s.01-.03.02-.05c0,.02-.01.03-.02.05Z"/>
        <path class="cls-1" d="M42.66,31.28s-.02.03-.03.04c.01-.01.02-.03.03-.04Z"/>
        <path class="cls-1" d="M42.58,31.37s-.02.03-.03.04c.01-.01.02-.03.03-.04Z"/>
        <path class="cls-1" d="M33.62,28.72s.01-.03.02-.05c0,.02-.01.03-.02.05Z"/>
        <path class="cls-1" d="M42.73,31.18s-.02.03-.03.04c.01-.01.02-.03.03-.04Z"/>
        <path class="cls-1" d="M42.49,31.47s-.02.02-.03.03c0-.01.02-.02.03-.03Z"/>
        <path class="cls-1" d="M33.71,28.5s.02-.04.02-.05c0,.02-.02.04-.02.05Z"/>
        <path class="cls-1" d="M33.59,29.41s-.01-.03-.02-.04c0,.01,0,.03.02.04Z"/>
        <path class="cls-1" d="M34.53,30.03s.07.02.11.03c.03-.03.05-.06.07-.09-.05.05-.12.08-.19.06Z"/>
        <path class="cls-1" d="M39.62,30.76s0-.05,0-.08c0,.03,0,.05,0,.08Z"/>
        <path class="cls-1" d="M33.95,28.06s.02-.03.03-.05c-.01.02-.02.03-.03.05Z"/>
        <path class="cls-1" d="M42.96,30.79s-.01.03-.02.04c0-.01.01-.03.02-.04Z"/>
        <path class="cls-1" d="M33.55,29.22s0-.03,0-.05c0,.02,0,.03,0,.05Z"/>
        <path class="cls-1" d="M36.4,27.96c.09-.09.19-.18.28-.27-.1.09-.19.18-.28.27Z"/>
        <path class="cls-1" d="M42.91,30.89s-.02.03-.02.04c0-.01.02-.03.02-.04Z"/>
        <path class="cls-1" d="M33.88,28.17s.02-.04.03-.05c-.01.02-.02.04-.03.05Z"/>
        <path class="cls-1" d="M33.56,29.32s0-.03,0-.04c0,.01,0,.03,0,.04Z"/>
        <path class="cls-1" d="M38.78,25.71c.02-.09.04-.19.04-.3-.11.02-.21.05-.31.09.14-.05.29.06.27.2Z"/>
        <path class="cls-1" d="M44.37,27.04s0-.08,0-.12c0-.03,0-.06,0-.09,0-.04,0-.08-.01-.11,0-.03,0-.06-.01-.09,0-.04-.01-.07-.02-.11,0-.03-.01-.06-.02-.09,0-.04-.02-.07-.03-.1,0-.03-.02-.06-.03-.09-.01-.03-.02-.07-.03-.1,0-.03-.02-.05-.03-.08-.01-.03-.03-.07-.04-.1-.01-.03-.02-.05-.04-.08-.02-.03-.03-.06-.05-.09-.01-.02-.03-.05-.04-.07-.02-.03-.04-.06-.06-.09-.01-.02-.03-.04-.04-.07-.02-.03-.05-.06-.07-.09-.02-.02-.03-.04-.05-.06-.03-.03-.06-.06-.09-.09-.01-.01-.03-.03-.04-.04-.05-.04-.09-.09-.14-.13,0,0-.01,0-.02-.01-.04-.03-.09-.07-.14-.1-.02-.01-.04-.02-.06-.04-.04-.02-.07-.04-.11-.07-.02-.01-.05-.02-.07-.04-.04-.02-.07-.04-.11-.05-.03-.01-.06-.02-.09-.03-.04-.01-.08-.03-.12-.04-.03,0-.06-.02-.09-.03-.04-.01-.08-.02-.12-.03-.03,0-.07-.01-.1-.02-.04,0-.09-.02-.13-.02-.04,0-.07-.01-.11-.01-.04,0-.09-.01-.14-.01-.04,0-.08,0-.12,0-.05,0-.1,0-.14,0-.04,0-.08,0-.12,0-.05,0-.1,0-.15,0-.04,0-.09,0-.13,0-.02,0-.05,0-.08,0-.1.01-.17.1-.17.2h0c0,.13.13.22.25.19,0,0,0,0,0,0,.08-.02.15-.03.23-.04,0,0,.01,0,.02,0,.07,0,.14-.02.22-.02,0,0,.02,0,.03,0,.07,0,.14,0,.21,0,.01,0,.02,0,.03,0,.07,0,.14.02.2.03.01,0,.02,0,.03,0,.07.01.13.03.2.05.01,0,.02,0,.03,0,.07.02.13.04.19.07,0,0,.02,0,.02.01.06.03.13.06.19.09,0,0,0,0,.01,0,.06.04.12.08.18.12,0,0,0,0,0,0,.06.04.11.09.17.14,0,0,0,0,.01.01.05.05.1.1.15.15,0,0,.01.01.02.02.04.05.09.1.12.16,0,0,.01.02.02.03.04.06.07.11.1.17,0,0,.01.02.02.03.03.06.06.12.08.19,0,0,0,.02.01.03.02.07.04.13.06.2,0,0,0,.02,0,.03.02.07.03.14.04.22,0,0,0,.01,0,.02,0,.08.01.16.01.24,0,.05,0,.09-.01.14,0,0,0,.01,0,.02,0,.04-.01.09-.02.13,0,0,0,.02,0,.03-.01.05-.02.09-.03.14,0,0,0,.01,0,.02-.01.05-.03.09-.04.14,0,0,0,0,0,.01-.02.05-.03.09-.05.14,0,0,0,.02,0,.03-.02.05-.04.09-.05.14,0,0,0,.02-.01.03-.02.05-.04.09-.06.14-.02.04-.04.09-.05.13,0,0,0,.02,0,.02-.02.04-.03.09-.05.13,0,0,0,.02,0,.03-.02.04-.03.09-.05.13,0,0,0,.01,0,.02-.01.04-.03.09-.04.13,0,0,0,0,0,0-.01.04-.02.09-.03.13,0,0,0,.01,0,.02,0,.04-.01.08-.02.12,0,0,0,.02,0,.02,0,.04,0,.08,0,.12,0,0,0,0,0,.01,0,.04,0,.08.02.11,0,0,0,0,0,.01,0,.04.02.07.04.11,0,0,0,.01,0,.02.07.15.29.15.36,0,.02-.03.03-.07.04-.1.01-.03.03-.07.04-.1.02-.04.03-.09.05-.13.01-.03.02-.06.04-.1.02-.05.03-.1.05-.15,0-.03.02-.06.03-.09.02-.06.03-.11.05-.17,0-.02.01-.04.02-.06.02-.08.04-.15.06-.23,0-.02,0-.03.01-.05.01-.06.02-.12.03-.18,0-.03,0-.06.01-.08,0-.05.02-.1.02-.14,0-.03,0-.06.01-.09,0-.04,0-.09.01-.13,0-.03,0-.06,0-.1,0-.04,0-.08,0-.12,0-.03,0-.06,0-.1,0-.04,0-.08,0-.12,0-.03,0-.06,0-.1Z"/>
        <path class="cls-1" d="M44.37,27.48s0,.06,0,.1c0-.03,0-.06,0-.1Z"/>
        <path class="cls-1" d="M43.78,25.41s.03.04.05.06c-.02-.02-.03-.04-.05-.06Z"/>
        <path class="cls-1" d="M43.52,29.38c.05.1.12.2.23.29.05-.1.09-.19.14-.29-.07.15-.29.15-.36,0Z"/>
        <path class="cls-1" d="M43.61,28.38s.03-.09.05-.13c-.02.04-.03.09-.05.13Z"/>
        <path class="cls-1" d="M43.28,25.01s.04.02.06.04c-.02-.01-.04-.02-.06-.04Z"/>
        <path class="cls-1" d="M44.32,27.94s0,.05-.01.08c0-.03,0-.06.01-.08Z"/>
        <path class="cls-1" d="M43.48,25.14s.01,0,.02.01c0,0-.01,0-.02-.01Z"/>
        <path class="cls-1" d="M43.65,25.28s.03.03.04.04c-.01-.01-.03-.03-.04-.04Z"/>
        <path class="cls-1" d="M44.35,27.71s0,.06-.01.09c0-.03,0-.06.01-.09Z"/>
        <path class="cls-1" d="M41.17,24.84v.27c.08-.03.17-.06.25-.08,0,0,0,0,0,0-.13.03-.25-.06-.25-.19Z"/>
        <path class="cls-1" d="M44.37,27.04s0,.06,0,.1c0-.03,0-.06,0-.1Z"/>
        <path class="cls-1" d="M44.32,26.63s.01.06.01.09c0-.03,0-.06-.01-.09Z"/>
        <path class="cls-1" d="M44.23,26.24s.02.06.03.09c0-.03-.02-.06-.03-.09Z"/>
        <path class="cls-1" d="M43.89,25.56s.03.04.04.07c-.01-.02-.03-.04-.04-.07Z"/>
        <path class="cls-1" d="M44.35,26.83s0,.06,0,.09c0-.03,0-.06,0-.09Z"/>
        <path class="cls-1" d="M41.34,24.65c-.06,0-.11,0-.17.01v.18c0-.1.07-.18.17-.2Z"/>
        <path class="cls-1" d="M44.28,26.43s.01.06.02.09c0-.03-.01-.06-.02-.09Z"/>
        <path class="cls-1" d="M44,25.72s.03.05.04.07c-.01-.02-.03-.05-.04-.07Z"/>
        <path class="cls-1" d="M41.88,24.97s.02,0,.03,0c0,0-.02,0-.03,0Z"/>
        <path class="cls-1" d="M44.09,25.88s.02.05.04.08c-.01-.03-.02-.05-.04-.08Z"/>
        <path class="cls-1" d="M44.37,27.26s0,.06,0,.1c0-.03,0-.06,0-.1Z"/>
        <path class="cls-1" d="M43.38,25.51s0,0,.01.01c0,0,0,0-.01-.01Z"/>
        <path class="cls-1" d="M44.17,26.06s.02.05.03.08c0-.03-.02-.05-.03-.08Z"/>
        <path class="cls-1" d="M43.1,24.9s.05.02.07.04c-.02-.01-.05-.02-.07-.04Z"/>
        <path class="cls-1" d="M43.99,26.52s0-.02,0-.03c0,0,0,.02,0,.03Z"/>
        <path class="cls-1" d="M43.46,29.11s0-.08,0-.12c0,.04,0,.08,0,.12Z"/>
        <path class="cls-1" d="M44.02,27.16s0-.01,0-.02c0,0,0,.01,0,.02Z"/>
        <path class="cls-1" d="M43.46,28.97s0-.08.02-.12c0,.04-.01.08-.02.12Z"/>
        <path class="cls-1" d="M44.03,26.76s0-.01,0-.02c0,0,0,.01,0,.02Z"/>
        <path class="cls-1" d="M43.92,26.29s0-.02-.01-.03c0,0,0,.02.01.03Z"/>
        <path class="cls-1" d="M43.7,25.87s-.01-.02-.02-.03c0,0,.01.02.02.03Z"/>
        <path class="cls-1" d="M43.47,29.24s-.01-.07-.02-.11c0,.04,0,.08.02.11Z"/>
        <path class="cls-1" d="M43.82,26.07s-.01-.02-.02-.03c0,0,.01.02.02.03Z"/>
        <path class="cls-1" d="M43.91,27.62s0,0,0-.01c0,0,0,0,0,.01Z"/>
        <path class="cls-1" d="M43.67,28.22s.04-.09.05-.13c-.02.04-.04.09-.05.13Z"/>
        <path class="cls-1" d="M43.78,27.96s0-.02.01-.03c0,0,0,.02-.01.03Z"/>
        <path class="cls-1" d="M43.51,28.69s.02-.09.04-.13c-.01.04-.03.09-.04.13Z"/>
        <path class="cls-1" d="M43.55,28.54s.03-.09.05-.13c-.02.04-.03.09-.05.13Z"/>
        <path class="cls-1" d="M43.95,27.48s0-.01,0-.02c0,0,0,.01,0,.02Z"/>
        <path class="cls-1" d="M44,27.32s0-.02,0-.03c0,0,0,.02,0,.03Z"/>
        <path class="cls-1" d="M43.85,27.79s0-.02,0-.03c0,0,0,.02,0,.03Z"/>
        <path class="cls-1" d="M43.48,28.82s.02-.09.03-.13c-.01.04-.02.09-.03.13Z"/>
        <path class="cls-1" d="M43.56,25.69s-.01-.01-.02-.02c0,0,.01.01.02.02Z"/>
        <path class="cls-1" d="M41.97,24.64s.08,0,.12,0c-.04,0-.08,0-.12,0Z"/>
        <path class="cls-1" d="M41.42,24.64s.09,0,.13,0c-.04,0-.09,0-.13,0Z"/>
        <path class="cls-1" d="M44.2,28.48s-.01.04-.02.06c0-.02.01-.04.02-.06Z"/>
        <path class="cls-1" d="M41.7,24.63s.08,0,.12,0c-.04,0-.08,0-.12,0Z"/>
        <path class="cls-1" d="M44.13,28.71s-.02.06-.03.09c0-.03.02-.06.03-.09Z"/>
        <path class="cls-1" d="M42.9,24.82s.06.02.09.03c-.03-.01-.06-.02-.09-.03Z"/>
        <path class="cls-1" d="M42.22,24.66s.07,0,.11.01c-.04,0-.07-.01-.11-.01Z"/>
        <path class="cls-1" d="M44.27,28.2s0,.03-.01.05c0-.02,0-.03.01-.05Z"/>
        <path class="cls-1" d="M42.69,24.75s.06.02.09.03c-.03,0-.06-.02-.09-.03Z"/>
        <path class="cls-1" d="M42.46,24.7s.07.01.1.02c-.03,0-.07-.01-.1-.02Z"/>
        <path class="cls-1" d="M42.61,25.07s-.02,0-.03,0c.01,0,.02,0,.03,0Z"/>
        <path class="cls-1" d="M43.03,25.25s0,0-.01,0c0,0,0,0,.01,0Z"/>
        <path class="cls-1" d="M43.97,29.17s-.03.07-.04.1c.01-.03.03-.07.04-.1Z"/>
        <path class="cls-1" d="M42.83,25.15s-.02,0-.02-.01c0,0,.02,0,.02.01Z"/>
        <path class="cls-1" d="M43.51,29.36s-.03-.07-.04-.11c0,.04.02.07.04.11Z"/>
        <path class="cls-1" d="M42.39,25.01s-.02,0-.03,0c.01,0,.02,0,.03,0Z"/>
        <path class="cls-1" d="M44.06,28.94s-.02.06-.04.1c.01-.03.02-.06.04-.1Z"/>
        <path class="cls-1" d="M43.22,25.37s0,0,0,0c0,0,0,0,0,0Z"/>
        <path class="cls-1" d="M42.15,24.98s-.02,0-.03,0c.01,0,.02,0,.03,0Z"/>
        <path class="cls-1" d="M41.67,24.99s-.01,0-.02,0c0,0,.01,0,.02,0Z"/>
      </g>
    </g>
  </g>
  <g id="link_ports-2" data-name="link_ports">
    <g>
      <rect class="cls-3" x="1457.58" y="49.21" width="122.5" height="95.79"/>
      <g>
        <polygon class="cls-4" points="1480.28 93.89 1475.97 93.89 1475.97 87.62 1465.19 87.62 1465.19 53.76 1514.77 53.76 1514.77 87.62 1505.07 87.62 1505.07 93.89 1499.68 93.89 1480.28 93.89"/>
        <polygon class="cls-4" points="1537.69 93.89 1533.38 93.89 1533.38 87.62 1522.6 87.62 1522.6 53.76 1572.18 53.76 1572.18 87.62 1562.48 87.62 1562.48 93.89 1557.09 93.89 1537.69 93.89"/>
        <polygon class="cls-4" points="1480.28 101.07 1475.97 101.07 1475.97 107.34 1465.19 107.34 1465.19 141.2 1514.77 141.2 1514.77 107.34 1505.07 107.34 1505.07 101.07 1499.68 101.07 1480.28 101.07"/>
        <polygon class="cls-4" points="1537.69 101.07 1533.38 101.07 1533.38 107.34 1522.6 107.34 1522.6 141.2 1572.18 141.2 1572.18 107.34 1562.48 107.34 1562.48 101.07 1557.09 101.07 1537.69 101.07"/>
      </g>
    </g>
  </g>
</svg>