<?xml version="1.0" encoding="UTF-8"?>
<svg xmlns="http://www.w3.org/2000/svg" xmlns:xlink="http://www.w3.org/1999/xlink" viewBox="0 0 1676 180">
  <defs>
    <style>
      .cls-1 {
        font-family: TrebuchetMS-Bold, 'Trebuchet MS';
        font-size: 43.58px;
        font-weight: 700;
      }

      .cls-1, .cls-2 {
        fill: #6b489d;
      }

      .cls-3 {
        fill: #fff;
      }

      .cls-4 {
        fill: none;
      }

      .cls-5 {
        fill: #e2e2e2;
      }

      .cls-6 {
        fill: #b1b4ab;
        stroke: #999;
        stroke-miterlimit: 10;
      }

      .cls-7 {
        fill: #8470a1;
      }

      .cls-8 {
        fill: #65605c;
      }

      .cls-9 {
        fill: #ddd;
      }

      .cls-10 {
        fill: url(#Circles);
      }

      .cls-11 {
        fill: #18171c;
      }

      .cls-12 {
        fill: #c6c6c6;
      }
    </style>
    <pattern id="Circles" x="0" y="0" width="37" height="37" patternTransform="translate(-136.78 -402.09) scale(.99 1.01)" patternUnits="userSpaceOnUse" viewBox="0 0 37 37">
      <g>
        <rect class="cls-4" width="37" height="37"/>
        <circle class="cls-5" cx="37" cy="27.75" r="6.25"/>
        <circle class="cls-5" cx="18.5" cy="37" r="6.25"/>
        <circle class="cls-5" cx="0" cy="27.75" r="6.25"/>
        <circle class="cls-5" cx="37" cy="9.25" r="6.25"/>
        <circle class="cls-5" cx="18.5" cy="18.5" r="6.25"/>
        <circle class="cls-5" cx="0" cy="9.25" r="6.25"/>
        <circle class="cls-5" cx="18.5" cy="0" r="6.25"/>
      </g>
    </pattern>
  </defs>
  <g id="back">
    <rect class="cls-12" x="5" y="4" width="1666" height="172" rx="10" ry="10"/>
    <rect class="cls-9" x="10" y="10" width="1655" height="160" rx="10" ry="10"/>
    <rect class="cls-7" x="548" y="156" width="672" height="8"/>
    <rect class="cls-7" x="1228" y="156" width="407" height="8"/>
  </g>
  <g id="base_ports" data-name="base ports">
    <rect class="cls-6" x="1228" y="47" width="66" height="98"/>
  </g>
  <g id="link_ports">
    <polygon class="cls-11" points="1275 60 1275 55 1270 55 1270 51 1252 51 1252 55 1248 55 1248 60 1238 60 1238 87 1284 87 1284 60 1275 60"/>
    <g>
      <polygon class="cls-11" points="1275 60 1275 55 1270 55 1270 51 1252 51 1252 55 1248 55 1248 60 1238 60 1238 87 1284 87 1284 60 1275 60"/>
      <polygon class="cls-11" points="1275 132 1275 137 1270 137 1270 141 1252 141 1252 137 1248 137 1248 132 1238 132 1238 105 1284 105 1284 132 1275 132"/>
    </g>
    <g>
      <g>
        <rect class="cls-6" x="548" y="47" width="332" height="98"/>
        <g>
          <g>
            <polygon class="cls-11" points="651 60 651 55 646 55 646 51 628 51 628 55 624 55 624 60 614 60 614 87 660 87 660 60 651 60"/>
            <polygon class="cls-11" points="704 60 704 55 699 55 699 51 681 51 681 55 677 55 677 60 667 60 667 87 713 87 713 60 704 60"/>
            <polygon class="cls-11" points="757 60 757 55 752 55 752 51 734 51 734 55 730 55 730 60 720 60 720 87 766 87 766 60 757 60"/>
            <polygon class="cls-11" points="810 60 810 55 805 55 805 51 787 51 787 55 783 55 783 60 773 60 773 87 819 87 819 60 810 60"/>
            <polygon class="cls-11" points="598 60 598 55 593 55 593 51 575 51 575 55 571 55 571 60 561 60 561 87 607 87 607 60 598 60"/>
            <polygon class="cls-11" points="863 60 863 55 858 55 858 51 840 51 840 55 836 55 836 60 826 60 826 87 872 87 872 60 863 60"/>
          </g>
          <g>
            <polygon class="cls-11" points="651 132 651 137 646 137 646 141 628 141 628 137 624 137 624 132 614 132 614 105 660 105 660 132 651 132"/>
            <polygon class="cls-11" points="704 132 704 137 699 137 699 141 681 141 681 137 677 137 677 132 667 132 667 105 713 105 713 132 704 132"/>
            <polygon class="cls-11" points="757 132 757 137 752 137 752 141 734 141 734 137 730 137 730 132 720 132 720 105 766 105 766 132 757 132"/>
            <polygon class="cls-11" points="810 132 810 137 805 137 805 141 787 141 787 137 783 137 783 132 773 132 773 105 819 105 819 132 810 132"/>
            <polygon class="cls-11" points="598 132 598 137 593 137 593 141 575 141 575 137 571 137 571 132 561 132 561 105 607 105 607 132 598 132"/>
            <polygon class="cls-11" points="863 132 863 137 858 137 858 141 840 141 840 137 836 137 836 132 826 132 826 105 872 105 872 132 863 132"/>
          </g>
        </g>
      </g>
      <g>
        <rect class="cls-6" x="889" y="47" width="332" height="98"/>
        <g>
          <g>
            <polygon class="cls-11" points="989 60 989 55 984 55 984 51 966 51 966 55 962 55 962 60 952 60 952 87 998 87 998 60 989 60"/>
            <polygon class="cls-11" points="1042 60 1042 55 1037 55 1037 51 1019 51 1019 55 1015 55 1015 60 1005 60 1005 87 1051 87 1051 60 1042 60"/>
            <polygon class="cls-11" points="1095 60 1095 55 1090 55 1090 51 1072 51 1072 55 1068 55 1068 60 1058 60 1058 87 1104 87 1104 60 1095 60"/>
            <polygon class="cls-11" points="1148 60 1148 55 1143 55 1143 51 1125 51 1125 55 1121 55 1121 60 1111 60 1111 87 1157 87 1157 60 1148 60"/>
            <polygon class="cls-11" points="936 60 936 55 931 55 931 51 913 51 913 55 909 55 909 60 899 60 899 87 945 87 945 60 936 60"/>
            <polygon class="cls-11" points="1201 60 1201 55 1196 55 1196 51 1178 51 1178 55 1174 55 1174 60 1164 60 1164 87 1210 87 1210 60 1201 60"/>
          </g>
          <g>
            <polygon class="cls-11" points="989 132 989 137 984 137 984 141 966 141 966 137 962 137 962 132 952 132 952 105 998 105 998 132 989 132"/>
            <polygon class="cls-11" points="1042 132 1042 137 1037 137 1037 141 1019 141 1019 137 1015 137 1015 132 1005 132 1005 105 1051 105 1051 132 1042 132"/>
            <polygon class="cls-11" points="1095 132 1095 137 1090 137 1090 141 1072 141 1072 137 1068 137 1068 132 1058 132 1058 105 1104 105 1104 132 1095 132"/>
            <polygon class="cls-11" points="1148 132 1148 137 1143 137 1143 141 1125 141 1125 137 1121 137 1121 132 1111 132 1111 105 1157 105 1157 132 1148 132"/>
            <polygon class="cls-11" points="936 132 936 137 931 137 931 141 913 141 913 137 909 137 909 132 899 132 899 105 945 105 945 132 936 132"/>
            <polygon class="cls-11" points="1201 132 1201 137 1196 137 1196 141 1178 141 1178 137 1174 137 1174 132 1164 132 1164 105 1210 105 1210 132 1201 132"/>
          </g>
        </g>
      </g>
    </g>
  </g>
  <g id="console_ports">
    <g>
      <rect class="cls-6" x="1571" y="65" width="64" height="83" rx="2" ry="2"/>
      <polygon class="cls-11" points="1617 74 1617 69 1612 69 1612 65 1594 65 1594 69 1590 69 1590 74 1580 74 1580 101 1626 101 1626 74 1617 74"/>
      <g>
        <rect class="cls-11" x="1580" y="111.86" width="46" height="30.14"/>
        <rect class="cls-8" x="1580" y="123" width="46" height="8"/>
      </g>
    </g>
  </g>
  <g id="uplink_ports">
    <g>
      <g>
        <rect class="cls-11" x="1303" y="107" width="58" height="38"/>
        <rect class="cls-8" x="1303" y="107" width="58" height="8"/>
      </g>
      <g>
        <rect class="cls-11" x="1370" y="107" width="58" height="38"/>
        <rect class="cls-8" x="1370" y="107" width="58" height="8"/>
      </g>
      <g>
        <rect class="cls-11" x="1437" y="107" width="58" height="38"/>
        <rect class="cls-8" x="1437" y="107" width="58" height="8"/>
      </g>
      <g>
        <rect class="cls-11" x="1504" y="107" width="58" height="38"/>
        <rect class="cls-8" x="1504" y="107" width="58" height="8"/>
      </g>
    </g>
  </g>
  <g id="nome_switch">
    <rect class="cls-12" x="1305" y="30" width="257" height="71"/>
    <g>
      <text class="cls-1" transform="translate(177.87 69.28)"><tspan x="0" y="0">Alcatel Lucent</tspan></text>
      <text class="cls-1" transform="translate(177.87 135.72)"><tspan x="0" y="0">OS6360-P24</tspan></text>
    </g>
    <g>
      <path class="cls-4" d="M94.9,56.33c.87-.54,1.96.26,1.76,1.25.15-.54.31-1.09.45-1.63-.44-.44-1.22-.25-2.2.38Z"/>
      <path class="cls-4" d="M58.11,93.92c0-.1.02-.2.03-.3-.01.1-.02.2-.03.3Z"/>
      <path class="cls-4" d="M58.29,95.6c-.03-.09-.05-.18-.07-.28.02.09.05.19.07.28Z"/>
      <path class="cls-4" d="M58.17,95.06c-.02-.09-.03-.19-.04-.29.01.1.02.19.04.29Z"/>
      <path class="cls-4" d="M58.1,94.5c0-.1,0-.2,0-.3,0,.1,0,.2,0,.3Z"/>
      <path class="cls-4" d="M94.21,104.29c0-.13,0-.26,0-.39,0,.13,0,.26,0,.39Z"/>
      <path class="cls-4" d="M74.57,87.85c.18-.19.36-.38.54-.57-.19.19-.36.38-.54.57Z"/>
      <path class="cls-4" d="M58.78,96.61c-.05-.08-.11-.17-.15-.25.05.09.1.17.15.25Z"/>
      <path class="cls-4" d="M91.31,59.52c.24-.25.48-.49.71-.73-.23.23-.47.47-.71.73Z"/>
      <path class="cls-4" d="M60.12,97.96c-.1-.07-.2-.14-.29-.21.09.07.19.14.29.21Z"/>
      <path class="cls-4" d="M59.58,97.54c-.08-.07-.17-.15-.24-.23.08.08.16.15.24.23Z"/>
      <path class="cls-4" d="M80.91,76.58c-1.05.42-2.04-.77-1.43-1.73-.68,1.07-1.15,1.88-1.3,2.28.93.05,1.84-.17,2.73-.55Z"/>
      <path class="cls-4" d="M112.9,106.09c-.07.11-.15.21-.23.32.08-.11.15-.21.23-.32Z"/>
      <path class="cls-4" d="M58.5,96.12c-.04-.09-.08-.18-.11-.27.03.09.07.18.11.27Z"/>
      <path class="cls-4" d="M58.94,90.83c.05-.11.1-.22.15-.34-.05.11-.1.22-.15.34Z"/>
      <path class="cls-4" d="M111.59,107.77c-.1.12-.21.23-.31.35.1-.12.21-.23.31-.35Z"/>
      <path class="cls-4" d="M58.68,91.47c.04-.11.09-.22.13-.33-.05.11-.09.22-.13.33Z"/>
      <path class="cls-4" d="M95.67,108.87c-.07-.05-.14-.1-.21-.15.07.06.13.11.21.15Z"/>
      <path class="cls-4" d="M112.49,106.66c-.08.11-.16.21-.25.32.08-.11.17-.21.25-.32Z"/>
      <path class="cls-4" d="M59.24,90.18c.06-.11.11-.23.17-.34-.06.11-.12.23-.17.34Z"/>
      <path class="cls-4" d="M112.05,107.22c-.09.11-.18.22-.27.33.09-.11.18-.22.27-.33Z"/>
      <path class="cls-4" d="M97.18,108.91c-.1.04-.2.08-.3.12-.14.06-.29.09-.44.09.06,0,.11.03.17.03.18-.08.37-.16.56-.24Z"/>
      <path class="cls-4" d="M58.17,93.33c.02-.1.04-.21.06-.31-.02.1-.04.21-.06.31Z"/>
      <path class="cls-4" d="M111.11,108.32c-.13.15-.27.29-.4.43.14-.14.27-.29.4-.43Z"/>
      <path class="cls-4" d="M58.46,92.1c.03-.11.07-.22.11-.32-.04.11-.08.22-.11.32Z"/>
      <path class="cls-4" d="M58.29,92.72c.03-.11.05-.21.08-.32-.03.11-.06.21-.08.32Z"/>
      <path class="cls-4" d="M59.14,97.09c-.07-.08-.13-.16-.2-.24.06.08.13.16.2.24Z"/>
      <path class="cls-4" d="M73.53,88.94c-.21.23-.42.47-.63.71.21-.24.42-.47.63-.71Z"/>
      <path class="cls-4" d="M120.36,93.67c-.1.27-.2.53-.31.8.11-.27.21-.53.31-.8Z"/>
      <path class="cls-4" d="M120.86,92.24c-.09.29-.19.58-.29.86.1-.29.2-.58.29-.86Z"/>
      <path class="cls-4" d="M121.32,90.73c-.09.33-.19.67-.29,1,.1-.34.2-.67.29-1Z"/>
      <path class="cls-4" d="M77.96,84.7c-.1.08-.21.16-.31.25.1-.08.21-.16.31-.25Z"/>
      <path class="cls-4" d="M72.02,90.64c-.22.26-.44.52-.65.78.22-.26.43-.52.65-.78Z"/>
      <path class="cls-4" d="M70.57,92.38c-.23.28-.45.56-.68.84.23-.28.45-.56.68-.84Z"/>
      <path class="cls-4" d="M79.97,83.22c-.15.1-.29.2-.44.31.14-.1.29-.2.44-.31Z"/>
      <path class="cls-4" d="M117.02,94.17s0-.05,0-.07c0,.02,0,.05,0,.07Z"/>
      <path class="cls-4" d="M117.13,94.93s-.01-.05-.02-.08c0,.03,0,.05.02.08Z"/>
      <path class="cls-4" d="M119.56,95.65c.08-.19.16-.39.24-.58-.09.2-.17.41-.26.61,0-.01.01-.02.02-.03Z"/>
      <path class="cls-4" d="M78.95,83.94c-.13.1-.26.19-.39.29.13-.1.26-.19.39-.29Z"/>
      <path class="cls-4" d="M117.37,95.65s.02.02.02.03c-.02-.03-.03-.07-.04-.1,0,.02.01.05.02.07Z"/>
      <path class="cls-4" d="M122.38,84.97c-.02.26-.05.52-.08.78.03-.26.06-.52.08-.78Z"/>
      <path class="cls-4" d="M122.45,83.66c0,.24-.02.49-.04.74.01-.25.03-.49.04-.74Z"/>
      <path class="cls-4" d="M63.26,99.35c-.17-.05-.34-.1-.5-.15.16.05.33.1.5.15Z"/>
      <path class="cls-4" d="M63.95,99.54s.03,0,.05,0c-.08-.02-.16-.04-.24-.06.07.02.12.04.19.05Z"/>
      <path class="cls-4" d="M60.75,98.35c-.12-.07-.23-.13-.34-.2.11.07.22.13.34.2Z"/>
      <path class="cls-4" d="M62.32,99.05c-.15-.05-.3-.11-.44-.17.14.06.29.11.44.17Z"/>
      <path class="cls-4" d="M99.23,108.16c.25-.08.49-.17.74-.25-.25.08-.49.17-.74.25Z"/>
      <path class="cls-4" d="M65.13,99.14c.2-.25.4-.49.6-.74-.21.25-.42.51-.63.76,0,0,.02-.01.02-.02Z"/>
      <path class="cls-4" d="M81.13,82.42c-.19.13-.38.26-.57.39.19-.13.38-.26.57-.39Z"/>
      <path class="cls-4" d="M122.03,87.64c-.06.35-.13.7-.21,1.05.07-.35.15-.7.21-1.05Z"/>
      <path class="cls-4" d="M121.76,88.99c-.1.45-.21.91-.33,1.36.12-.46.23-.91.33-1.36Z"/>
      <path class="cls-4" d="M122.24,86.29c-.04.28-.08.57-.13.85.05-.28.09-.57.13-.85Z"/>
      <path class="cls-4" d="M67.27,96.49c-.29.37-.58.73-.88,1.1.3-.37.59-.73.88-1.1Z"/>
      <path class="cls-4" d="M69.11,94.18c-.33.41-.65.82-.98,1.23.33-.41.65-.82.98-1.23Z"/>
      <path class="cls-4" d="M94.22,104.76c0,.13.02.25.03.38,0-.13-.02-.25-.03-.38Z"/>
      <path class="cls-4" d="M59.57,89.52c.06-.12.13-.23.19-.35-.06.12-.13.23-.19.35Z"/>
      <path class="cls-4" d="M107.18,103.44c.23-.19.46-.39.69-.58-.23.2-.46.39-.69.58Z"/>
      <path class="cls-4" d="M106.35,104.15c.1-.08.2-.17.3-.25-.1.08-.2.17-.3.25Z"/>
      <path class="cls-4" d="M94.29,105.59c.01.13.03.25.05.37-.02-.12-.04-.24-.05-.37Z"/>
      <path class="cls-4" d="M105.58,104.79s.01,0,.02-.01c0,0-.01,0-.02.01Z"/>
      <path class="cls-4" d="M110.14,100.96c.19-.16.37-.31.56-.45-.18.15-.37.3-.56.45Z"/>
      <path class="cls-4" d="M94.4,106.38c.02.12.05.23.07.35-.03-.11-.05-.23-.07-.35Z"/>
      <path class="cls-4" d="M94.34,100.64c0,.09-.01.19-.02.28,0-.09.01-.19.02-.28Z"/>
      <path class="cls-4" d="M108.22,102.56c.29-.24.57-.49.86-.72-.29.24-.57.48-.86.72Z"/>
      <path class="cls-4" d="M94.28,101.4c0,.1-.01.21-.02.32,0-.11.01-.22.02-.32Z"/>
      <path class="cls-4" d="M94.24,102.21c0,.12,0,.24-.01.36,0-.12,0-.24.01-.36Z"/>
      <path class="cls-4" d="M110.96,100.29c.18-.14.36-.28.53-.42-.17.13-.35.27-.53.42Z"/>
      <path class="cls-4" d="M109.12,101.8c.26-.22.52-.43.77-.64-.25.21-.51.42-.77.64Z"/>
      <path class="cls-4" d="M104.7,105.5c.06-.05.13-.1.19-.15-.07.05-.13.1-.19.15Z"/>
      <path class="cls-4" d="M102.15,107.09c.09-.04.18-.07.27-.11-.09.04-.18.08-.27.11Z"/>
      <path class="cls-4" d="M101.3,107.43c.12-.04.23-.09.35-.13-.11.04-.23.09-.35.13Z"/>
      <path class="cls-4" d="M95.92,109c.08.03.16.06.25.08-.09-.02-.17-.05-.25-.08Z"/>
      <path class="cls-4" d="M98.35,108.46c.16-.06.33-.12.49-.17-.17.06-.33.11-.49.17Z"/>
      <path class="cls-4" d="M100.42,107.75c.14-.05.27-.09.41-.14-.13.05-.27.1-.41.14Z"/>
      <path class="cls-4" d="M97.53,108.77c.15-.06.3-.11.45-.17-.15.06-.3.11-.45.17Z"/>
      <path class="cls-4" d="M94.57,107.1c.03.11.07.21.1.31-.04-.1-.07-.2-.1-.31Z"/>
      <path class="cls-4" d="M104.06,106c.07-.05.13-.1.2-.15-.07.05-.14.1-.2.15Z"/>
      <path class="cls-4" d="M103.55,106.37s.1-.07.16-.11c-.05.04-.11.08-.16.11Z"/>
      <path class="cls-4" d="M94.8,107.74c.04.09.09.18.13.27-.05-.09-.09-.17-.13-.27Z"/>
      <path class="cls-4" d="M95.09,108.29c.05.08.11.15.17.21-.06-.07-.12-.14-.17-.21Z"/>
      <path class="cls-4" d="M94.2,103.05c0,.13,0,.25,0,.38,0-.13,0-.25,0-.38Z"/>
      <path class="cls-4" d="M62.04,85.51c.09-.13.18-.27.27-.4-.09.13-.18.27-.27.4Z"/>
      <path class="cls-4" d="M114.21,103.77c-.05.11-.09.22-.14.32.05-.11.1-.22.14-.32Z"/>
      <path class="cls-4" d="M60.73,87.52c.07-.12.15-.24.23-.36-.08.12-.15.24-.23.36Z"/>
      <path class="cls-4" d="M114.44,103.18c-.04.11-.08.22-.12.33.04-.11.08-.22.12-.33Z"/>
      <path class="cls-4" d="M114.63,102.58c-.03.11-.06.23-.1.34.04-.11.07-.23.1-.34Z"/>
      <path class="cls-4" d="M61.59,86.18c.08-.12.16-.24.24-.37-.08.12-.16.24-.24.37Z"/>
      <path class="cls-4" d="M61.16,86.85c.08-.12.15-.23.23-.35-.08.12-.15.23-.23.35Z"/>
      <path class="cls-4" d="M59.93,88.86c.07-.12.13-.23.2-.35-.07.12-.14.23-.2.35Z"/>
      <path class="cls-4" d="M113.94,104.36c-.05.11-.11.21-.16.32.06-.11.11-.21.16-.32Z"/>
      <path class="cls-4" d="M113.28,105.52c-.07.11-.14.21-.21.32.07-.11.14-.21.21-.32Z"/>
      <path class="cls-4" d="M113.63,104.94c-.06.11-.12.21-.19.32.06-.11.13-.21.19-.32Z"/>
      <path class="cls-4" d="M60.32,88.19c.07-.12.15-.24.22-.36-.07.12-.15.24-.22.36Z"/>
      <path class="cls-4" d="M64.09,82.45c.04-.07.09-.14.13-.21-.04.07-.09.14-.13.21Z"/>
      <path class="cls-4" d="M114.82,100.05c.02.13.03.27.04.41,0-.14-.02-.27-.04-.41Z"/>
      <path class="cls-4" d="M112.91,98.84c-.15.1-.3.21-.47.32.18-.12.34-.23.49-.33,0,0-.02,0-.03.01Z"/>
      <path class="cls-4" d="M94.41,99.95c0,.08-.01.16-.02.24,0-.08.01-.16.02-.24Z"/>
      <path class="cls-4" d="M114.72,99.55s0-.02-.01-.03c.03.11.05.22.07.32-.02-.1-.03-.2-.06-.3Z"/>
      <path class="cls-4" d="M94.51,98.88c-.02.16-.04.36-.06.58.02-.22.04-.42.06-.58Z"/>
      <path class="cls-4" d="M111.71,99.7c.24-.18.47-.35.68-.51-.21.15-.44.32-.68.51Z"/>
      <path class="cls-4" d="M63.64,83.13c.05-.08.11-.17.17-.25-.05.08-.11.16-.17.25Z"/>
      <path class="cls-4" d="M114.85,101.32c-.01.15-.03.3-.05.45.02-.15.04-.3.05-.45Z"/>
      <path class="cls-4" d="M62.49,84.83c.1-.15.21-.31.31-.46-.1.15-.21.3-.31.46Z"/>
      <path class="cls-4" d="M114.87,100.62c0,.19,0,.38,0,.57.01-.19.01-.38,0-.57Z"/>
      <path class="cls-4" d="M114.76,101.98c-.02.12-.04.24-.07.36.03-.12.05-.24.07-.36Z"/>
      <path class="cls-4" d="M63.2,83.79c.06-.08.11-.17.17-.25-.06.08-.11.17-.17.25Z"/>
      <path class="cls-4" d="M61.49,98.72c-.13-.06-.27-.12-.39-.18.12.06.26.12.39.18Z"/>
      <path class="cls-4" d="M115.3,69.32c.23.12.45.26.67.39-.22-.13-.44-.27-.67-.39Z"/>
      <path class="cls-4" d="M95.02,63.15c.15-.47.29-.95.44-1.42-.14.47-.29.95-.44,1.42Z"/>
      <path class="cls-4" d="M116.33,69.92c.29.19.56.38.83.59-.27-.2-.54-.4-.83-.59Z"/>
      <path class="cls-4" d="M95.98,59.98c.14-.48.28-.96.41-1.44-.14.48-.27.96-.41,1.44Z"/>
      <path class="cls-4" d="M114.19,68.8c.23.1.45.2.67.31-.22-.11-.44-.21-.67-.31Z"/>
      <path class="cls-4" d="M93.99,66.37c.15-.47.3-.93.45-1.4-.15.47-.3.93-.45,1.4Z"/>
      <path class="cls-4" d="M90.43,77.59c.2-.68.4-1.37.61-2.05-.21.68-.41,1.36-.61,2.05Z"/>
      <path class="cls-4" d="M119.87,73.4c.12.18.24.36.35.54-.11-.18-.23-.36-.35-.54Z"/>
      <path class="cls-4" d="M119.18,72.48c.14.18.29.35.42.53-.13-.18-.28-.36-.42-.53Z"/>
      <path class="cls-4" d="M94.74,56.43c-.19.13-.38.26-.57.42.2-.15.39-.29.57-.42Z"/>
      <path class="cls-4" d="M117.27,70.59c.3.24.59.48.86.74-.27-.26-.56-.51-.86-.74Z"/>
      <path class="cls-4" d="M118.38,71.58c.18.18.36.37.53.56-.17-.19-.35-.38-.53-.56Z"/>
      <path class="cls-4" d="M92.55,70.78c.23-.7.45-1.4.68-2.1-.23.7-.46,1.4-.68,2.1Z"/>
      <path class="cls-4" d="M91.46,74.19c.19-.61.38-1.22.58-1.83-.2.61-.39,1.22-.58,1.83Z"/>
      <path class="cls-4" d="M107.31,67.48c.29,0,.58.02.86.03-.28-.02-.57-.03-.86-.03Z"/>
      <path class="cls-4" d="M108.87,67.56c.28.02.54.05.81.09-.27-.03-.54-.06-.81-.09Z"/>
      <path class="cls-4" d="M89.95,61c-.27.3-.53.6-.8.92.27-.31.54-.62.8-.92Z"/>
      <path class="cls-4" d="M88.86,62.25c-.27.32-.54.64-.81.97.27-.33.54-.65.81-.97Z"/>
      <path class="cls-4" d="M105.66,67.5c.31-.01.61-.02.91-.02-.3,0-.6.01-.91.02Z"/>
      <path class="cls-4" d="M87.86,63.44c-.33.4-.65.8-.98,1.21.33-.41.65-.81.98-1.21Z"/>
      <path class="cls-4" d="M111.71,68c.25.06.49.13.73.19-.24-.07-.48-.13-.73-.19Z"/>
      <path class="cls-4" d="M91.07,59.77c-.31.33-.62.67-.94,1.02.32-.35.63-.7.94-1.02Z"/>
      <path class="cls-4" d="M104.5,67.56s-.04.01-.06.02c.15-.01.3-.03.45-.04-.13,0-.25,0-.38.02Z"/>
      <path class="cls-4" d="M112.99,68.36c.24.08.46.16.69.25-.23-.09-.45-.17-.69-.25Z"/>
      <path class="cls-4" d="M93.14,57.71c-.28.25-.57.53-.87.83.3-.29.59-.57.87-.83Z"/>
      <path class="cls-4" d="M110.33,67.73c.26.04.51.09.77.14-.25-.05-.51-.1-.77-.14Z"/>
      <path class="cls-4" d="M93.95,57.02c-.26.21-.52.43-.8.68.28-.25.54-.47.8-.68Z"/>
      <path class="cls-4" d="M108.24,111.08c-.1.09-.2.17-.31.26.1-.09.2-.17.31-.26Z"/>
      <path class="cls-4" d="M107.82,69.49c.42,0,.83,0,1.24.04-.41-.03-.82-.05-1.24-.04Z"/>
      <path class="cls-4" d="M108.8,110.59c-.11.09-.21.19-.32.28.11-.09.21-.19.32-.28Z"/>
      <path class="cls-4" d="M107.69,111.54c-.1.08-.2.17-.3.25.1-.08.2-.16.3-.25Z"/>
      <path class="cls-4" d="M107.14,111.98c-.1.08-.2.16-.3.24.1-.08.2-.16.3-.24Z"/>
      <path class="cls-4" d="M106.59,112.4c-.1.08-.2.15-.3.23.1-.07.2-.15.3-.23Z"/>
      <path class="cls-4" d="M116.66,72.76c.3.28.59.57.87.88-.27-.31-.56-.6-.87-.88Z"/>
      <path class="cls-4" d="M122.39,81.13c.02.23.03.46.04.69-.01-.23-.02-.46-.04-.69Z"/>
      <path class="cls-4" d="M122.45,82.38c0,.24,0,.47,0,.71,0-.24,0-.48,0-.71Z"/>
      <path class="cls-4" d="M110.61,108.85c-.17.18-.34.35-.52.52.17-.17.35-.35.52-.52Z"/>
      <path class="cls-4" d="M109.35,110.09c-.11.1-.22.2-.33.3.11-.1.22-.2.33-.3Z"/>
      <path class="cls-4" d="M109.93,109.53c-.12.12-.24.24-.37.36.12-.12.25-.24.37-.36Z"/>
      <path class="cls-4" d="M121.76,77.57c.06.21.11.41.16.62-.05-.21-.11-.42-.16-.62Z"/>
      <path class="cls-4" d="M104.03,114.19c-.11.07-.21.13-.31.19.1-.06.21-.13.31-.19Z"/>
      <path class="cls-4" d="M121.41,76.46c.07.2.14.4.21.6-.06-.2-.13-.4-.21-.6Z"/>
      <path class="cls-4" d="M120.98,75.39c.09.19.17.38.25.58-.08-.2-.16-.39-.25-.58Z"/>
      <path class="cls-4" d="M120.46,74.37c.1.18.2.37.3.56-.09-.19-.2-.37-.3-.56Z"/>
      <path class="cls-4" d="M104.51,113.88c-.1.07-.2.13-.3.19.1-.06.2-.13.3-.19Z"/>
      <path class="cls-4" d="M103.57,114.47c-.15.09-.29.17-.43.25.14-.08.28-.17.43-.25Z"/>
      <path class="cls-4" d="M105.01,113.55c-.1.07-.19.13-.29.2.1-.06.19-.13.29-.2Z"/>
      <path class="cls-4" d="M89.25,81.9c.27-1.06.55-2.12.85-3.18-.3,1.06-.59,2.12-.85,3.18Z"/>
      <path class="cls-4" d="M105.52,113.19c-.1.07-.19.14-.29.2.1-.07.19-.13.29-.2Z"/>
      <path class="cls-4" d="M122.25,79.91c.03.22.06.44.08.67-.02-.22-.05-.45-.08-.67Z"/>
      <path class="cls-4" d="M106.05,112.81c-.1.07-.2.14-.29.21.1-.07.2-.14.29-.21Z"/>
      <path class="cls-4" d="M122.04,78.72c.04.21.08.43.12.64-.04-.22-.08-.43-.12-.64Z"/>
      <path class="cls-4" d="M80.97,76.56c.26-.11.51-.23.77-.37-.25.13-.51.26-.77.37Z"/>
      <path class="cls-4" d="M119.39,86.1c.11-.28.21-.56.3-.84-.1.28-.2.56-.3.84Z"/>
      <path class="cls-4" d="M88.01,76.55c-.12.18-.25.35-.39.52.13-.17.27-.34.39-.52Z"/>
      <path class="cls-4" d="M119.71,85.19c.09-.27.18-.54.26-.81-.08.27-.16.54-.26.81Z"/>
      <path class="cls-4" d="M119.01,87.06c.11-.27.22-.54.32-.81-.1.27-.21.54-.32.81Z"/>
      <path class="cls-4" d="M89.19,74.08c.01-.05.01-.1.02-.16-.03.11-.05.23-.08.34.02-.06.05-.12.06-.18Z"/>
      <path class="cls-4" d="M88.56,75.64c-.1.18-.2.36-.31.54.11-.18.21-.36.31-.54Z"/>
      <path class="cls-4" d="M88.99,74.67c-.07.19-.15.39-.23.57.09-.19.16-.38.23-.57Z"/>
      <path class="cls-4" d="M120.39,82.38c.03-.28.06-.56.06-.83,0,.28-.03.55-.06.83Z"/>
      <path class="cls-4" d="M86.62,73.19c.08-.05.17-.09.25-.13-.08.04-.17.08-.25.13Z"/>
      <path class="cls-4" d="M120.45,81.54c0-.49-.02-.97-.06-1.44.05.47.07.95.06,1.44Z"/>
      <path class="cls-4" d="M120,84.28c.08-.27.15-.54.21-.81-.06.27-.13.54-.21.81Z"/>
      <path class="cls-4" d="M87.54,72.74s-.09.04-.13.06c.06-.03.12-.05.18-.08-.02,0-.03,0-.05.01Z"/>
      <path class="cls-4" d="M120.24,83.31c.06-.27.1-.54.14-.8-.04.27-.08.53-.14.8Z"/>
      <path class="cls-4" d="M86.59,78.22c-.2.2-.41.39-.63.59.21-.19.43-.39.63-.59Z"/>
      <path class="cls-4" d="M83.53,80.75c-.21.15-.41.3-.62.44.21-.15.41-.29.62-.44Z"/>
      <path class="cls-4" d="M118.61,88.04c.11-.27.22-.54.33-.81-.11.27-.22.54-.33.81Z"/>
      <path class="cls-4" d="M84.62,79.93c-.23.18-.47.36-.71.54.24-.18.48-.36.71-.54Z"/>
      <path class="cls-4" d="M82.47,81.5c-.2.14-.41.28-.61.42.21-.14.41-.28.61-.42Z"/>
      <path class="cls-4" d="M117.55,90.82s.02-.08.04-.12c-.01.04-.02.08-.04.12Z"/>
      <path class="cls-4" d="M117.11,92.53s.02-.09.03-.13c0,.04-.02.09-.03.13Z"/>
      <path class="cls-4" d="M117.31,91.63s0-.03.01-.04c0,.01,0,.03-.01.04Z"/>
      <path class="cls-4" d="M85.76,79c-.29.25-.59.5-.9.75.31-.24.61-.49.9-.75Z"/>
      <path class="cls-4" d="M118.23,88.98s.04-.1.06-.15c-.02.05-.04.1-.06.15Z"/>
      <path class="cls-4" d="M87.35,77.41c-.15.18-.31.35-.48.52.16-.17.32-.34.48-.52Z"/>
      <path class="cls-4" d="M117.87,89.92c.02-.05.04-.1.06-.16-.02.05-.04.1-.06.16Z"/>
      <path class="cls-4" d="M85.86,73.63s.04-.02.06-.03c-.02.01-.04.02-.06.03Z"/>
      <path class="cls-4" d="M107.66,69.49c-.43.01-.86.05-1.28.1.43-.06.86-.09,1.28-.1Z"/>
      <path class="cls-4" d="M82.57,70.32c-.28.39-.55.77-.81,1.14.26-.37.53-.75.81-1.14Z"/>
      <path class="cls-4" d="M83.47,69.1c-.23.31-.45.61-.67.92.22-.3.44-.61.67-.92Z"/>
      <path class="cls-4" d="M111.82,70.04c-.38-.12-.78-.21-1.17-.3.4.08.79.18,1.17.3Z"/>
      <path class="cls-4" d="M113.14,70.52c-.37-.16-.75-.3-1.14-.42.39.12.77.26,1.14.42Z"/>
      <path class="cls-4" d="M80.79,72.87c-.2.29-.39.57-.57.85.18-.27.37-.55.57-.85Z"/>
      <path class="cls-4" d="M114.4,71.14c-.36-.2-.73-.39-1.11-.55.38.17.75.35,1.11.55Z"/>
      <path class="cls-4" d="M81.62,71.67c-.22.31-.42.61-.62.9.2-.29.41-.59.62-.9Z"/>
      <path class="cls-4" d="M86.63,64.96c-.25.32-.5.64-.75.96.25-.32.5-.64.75-.96Z"/>
      <path class="cls-4" d="M106.26,69.62c-.45.06-.9.15-1.34.26.45-.11.89-.2,1.34-.26Z"/>
      <path class="cls-4" d="M120.38,80c-.05-.45-.13-.88-.23-1.3.1.42.18.86.23,1.3Z"/>
      <path class="cls-4" d="M110.46,69.71c-.4-.07-.8-.13-1.2-.17.41.04.81.09,1.2.17Z"/>
      <path class="cls-4" d="M85.6,66.27c-.64.83-1.27,1.66-1.87,2.47.6-.81,1.23-1.64,1.87-2.47Z"/>
      <path class="cls-4" d="M119.69,77.16c-.15-.38-.31-.75-.5-1.1.18.36.35.73.5,1.1Z"/>
      <path class="cls-4" d="M82.8,75.58c.17-.1.33-.2.5-.31-.17.11-.33.21-.5.31Z"/>
      <path class="cls-4" d="M83.61,75.07c.19-.12.37-.24.56-.36-.19.12-.37.24-.56.36Z"/>
      <path class="cls-4" d="M84.76,74.32c.1-.07.21-.14.31-.2-.1.07-.21.13-.31.2Z"/>
      <path class="cls-4" d="M120.12,78.53c-.1-.41-.22-.81-.37-1.2.14.39.27.79.37,1.2Z"/>
      <path class="cls-4" d="M119.1,75.88c-.19-.35-.4-.69-.62-1.02.22.33.43.67.62,1.02Z"/>
      <path class="cls-4" d="M81.91,76.09c.2-.11.4-.22.6-.34-.2.12-.4.23-.6.34Z"/>
      <path class="cls-4" d="M80.11,73.88c-.21.32-.4.61-.58.9.18-.28.37-.58.58-.9Z"/>
      <path class="cls-4" d="M116.58,72.7c-.32-.29-.65-.56-1-.81.35.25.68.52,1,.81Z"/>
      <path class="cls-4" d="M117.01,93.38s0-.09,0-.14c0,.05,0,.09,0,.14Z"/>
      <path class="cls-4" d="M118.37,74.7c-.23-.33-.48-.64-.74-.95.26.3.51.62.74.95Z"/>
      <path class="cls-4" d="M115.57,71.88c-.35-.25-.72-.48-1.09-.7.38.21.74.45,1.09.7Z"/>
      <path class="cls-2" d="M93.5,37c-27.89,0-50.5,22.61-50.5,50.5s22.61,50.5,50.5,50.5,50.5-22.61,50.5-50.5-22.61-50.5-50.5-50.5ZM110.09,109.38c-.05.05-.11.1-.16.15-.12.12-.24.24-.37.36-.07.07-.14.13-.21.2-.11.1-.22.2-.33.3-.07.07-.15.13-.22.2-.11.09-.21.19-.32.28-.08.07-.16.14-.24.21-.1.09-.2.17-.31.26-.08.07-.16.14-.25.2-.1.08-.2.16-.3.25-.08.07-.17.13-.25.2-.1.08-.2.16-.3.24-.08.06-.16.13-.24.19-.1.08-.2.15-.3.23-.08.06-.16.12-.24.18-.1.07-.2.14-.29.21-.08.06-.16.11-.23.17-.1.07-.19.14-.29.2-.08.05-.15.1-.22.16-.1.07-.19.13-.29.2-.07.05-.14.09-.21.14-.1.07-.2.13-.3.19-.06.04-.12.08-.18.12-.11.07-.21.13-.31.19-.05.03-.1.06-.15.09-.15.09-.29.17-.43.25-26.2,15.01-17.36-19.06-13.89-32.83.27-1.06.55-2.12.85-3.18.11-.38.22-.75.33-1.12.2-.68.4-1.37.61-2.05.14-.45.28-.9.42-1.35.19-.61.38-1.22.58-1.83.17-.53.34-1.06.51-1.58.23-.7.45-1.4.68-2.1.25-.77.5-1.54.75-2.31.15-.47.3-.93.45-1.4.19-.61.39-1.21.58-1.82.15-.47.29-.95.44-1.42.18-.58.35-1.17.53-1.75.14-.48.28-.96.41-1.44.09-.32.18-.64.26-.96.2-.99-.88-1.79-1.76-1.25-.05.03-.11.07-.16.11-.19.13-.38.26-.57.42-.07.06-.15.11-.22.17-.26.21-.52.43-.8.68,0,0,0,0,0,0-.28.25-.57.53-.87.83-.08.08-.17.17-.26.26-.23.23-.47.47-.71.73-.08.08-.16.16-.24.25-.31.33-.62.67-.94,1.02-.06.07-.12.14-.18.21-.27.3-.53.6-.8.92-.1.11-.19.22-.29.34-.27.32-.54.64-.81.97-.06.07-.12.14-.18.21-.33.4-.65.8-.98,1.21-.09.11-.17.21-.25.32-.25.32-.5.64-.75.96-.09.12-.18.23-.27.35-.64.83-1.27,1.66-1.87,2.47-.09.12-.17.24-.26.36-.23.31-.45.62-.67.92-.07.1-.15.21-.22.31-.28.39-.55.77-.81,1.14-.05.07-.09.13-.14.2-.22.31-.42.61-.62.9-.07.1-.14.2-.21.3-.2.29-.39.57-.57.85-.03.05-.07.11-.11.16-.21.32-.4.61-.58.9-.02.03-.03.05-.05.08-.61.96.38,2.15,1.43,1.73.02,0,.04-.02.07-.03.26-.11.51-.23.77-.37.06-.03.11-.06.17-.1.2-.11.4-.22.6-.34.09-.06.19-.11.28-.17.17-.1.33-.2.5-.31.11-.07.21-.14.32-.2.19-.12.37-.24.56-.36.2-.13.39-.26.59-.38.1-.07.21-.14.31-.2.26-.17.52-.33.78-.49.02-.01.04-.02.06-.03.24-.14.47-.28.71-.4.08-.05.17-.09.25-.13.18-.09.35-.18.53-.26.04-.02.09-.04.13-.06.02,0,.03,0,.05-.01.6-.26,1.21-.47,1.84-.56,0,.62-.09,1.2-.22,1.76,0,.05,0,.1-.02.16-.02.06-.04.12-.06.18-.04.14-.09.28-.14.41-.07.19-.15.39-.23.57-.06.13-.13.27-.2.4-.1.18-.2.36-.31.54-.08.12-.16.25-.24.37-.12.18-.25.35-.39.52-.09.11-.18.23-.27.34-.15.18-.31.35-.48.52-.09.1-.18.2-.28.29-.2.2-.41.39-.63.59-.07.06-.13.13-.2.19-.29.25-.59.5-.9.75-.08.06-.16.12-.24.19-.23.18-.47.36-.71.54-.12.09-.25.18-.38.27-.21.15-.41.3-.62.44-.15.1-.3.21-.44.31-.2.14-.41.28-.61.42-.24.17-.48.33-.73.5-.19.13-.38.26-.57.39-.2.14-.39.27-.59.41-.15.1-.29.2-.44.31-.2.14-.39.28-.58.42-.13.1-.26.19-.39.29-.21.15-.41.31-.61.47-.1.08-.21.16-.31.25-.3.24-.58.48-.85.73-.58.53-1.14,1.06-1.68,1.61-.19.19-.36.38-.54.57-.35.36-.7.72-1.04,1.09-.21.23-.42.47-.63.71-.29.33-.59.66-.88.99-.22.26-.44.52-.65.78-.27.32-.54.64-.8.96-.23.28-.45.56-.68.84-.26.32-.52.64-.77.96-.33.41-.65.82-.98,1.23-.29.36-.57.72-.86,1.08-.29.37-.58.73-.88,1.1-.22.27-.44.54-.66.81-.2.25-.4.49-.6.74,0,0-.02.01-.02.02-.15.18-.29.36-.45.54-.23-.05-.44-.1-.66-.16-.02,0-.03,0-.05,0-.07-.02-.13-.04-.19-.05-.17-.04-.33-.09-.49-.14-.17-.05-.34-.1-.5-.15-.15-.05-.3-.1-.44-.15-.15-.05-.3-.11-.44-.17-.14-.05-.26-.11-.39-.17-.13-.06-.27-.12-.39-.18-.12-.06-.23-.12-.34-.18-.12-.07-.23-.13-.34-.2-.1-.06-.2-.13-.29-.2-.1-.07-.2-.14-.29-.21-.09-.07-.17-.14-.25-.21-.08-.07-.17-.15-.24-.23-.07-.07-.14-.15-.21-.22-.07-.08-.13-.16-.2-.24-.06-.08-.11-.15-.16-.23-.05-.08-.11-.17-.15-.25-.04-.08-.09-.16-.13-.24-.04-.09-.08-.18-.11-.27-.03-.08-.06-.17-.09-.25-.03-.09-.05-.18-.07-.28-.02-.09-.04-.17-.05-.26-.02-.09-.03-.19-.04-.29,0-.09-.02-.18-.02-.27,0-.1,0-.2,0-.3,0-.09,0-.19,0-.28,0-.1.02-.2.03-.3.01-.1.02-.19.04-.29.02-.1.04-.21.06-.31.02-.1.04-.2.06-.29.03-.11.05-.21.08-.32.03-.1.06-.2.09-.3.03-.11.07-.22.11-.32.04-.1.07-.2.11-.31.04-.11.09-.22.13-.33.04-.1.08-.21.13-.31.05-.11.1-.22.15-.34.05-.1.1-.21.15-.31.06-.11.11-.23.17-.34.05-.1.1-.21.16-.31.06-.12.13-.23.19-.35.06-.11.11-.21.17-.32.07-.12.13-.23.2-.35.06-.11.12-.21.18-.32.07-.12.15-.24.22-.36.06-.1.12-.21.19-.31.07-.12.15-.24.23-.36.07-.1.13-.21.2-.31.08-.12.15-.23.23-.35.07-.11.14-.21.21-.32.08-.12.16-.24.24-.37.07-.1.13-.2.2-.3.09-.13.18-.27.27-.4.06-.09.12-.19.19-.28.1-.15.21-.31.31-.46.13-.19.26-.39.39-.58.06-.08.11-.17.17-.25.09-.14.18-.27.27-.41.05-.08.11-.17.17-.25.1-.15.19-.29.29-.43.04-.07.09-.14.13-.21.14-.21.27-.42.4-.63,4.92-7.84,18.36-26.64,26.27-30.55,3.82-1.89,11.78-2.16,13.25,2.8,1.33,4.48-5.48,23.7-6.78,29.82-.93,4.38-2.45,10.97-2.84,15.19-.02.16-.04.37-.06.58-.02.15-.03.31-.05.49,0,.08-.01.16-.02.24-.01.15-.03.29-.04.45,0,.09-.01.19-.02.28-.01.16-.03.31-.04.48,0,.1-.01.21-.02.32-.01.16-.02.32-.03.49,0,.12,0,.24-.01.36,0,.16-.01.32-.02.48,0,.13,0,.25,0,.38,0,.16,0,.32,0,.48,0,.13,0,.26,0,.39,0,.16,0,.31.02.47,0,.13.02.26.03.38.01.15.02.3.04.45.01.13.03.25.05.37.02.14.04.28.06.42.02.12.05.23.07.35.03.13.06.26.09.38.03.11.07.21.1.31.04.11.08.23.13.33.04.09.09.18.13.27.05.1.11.19.16.28.05.08.11.15.17.21.06.08.13.15.2.21.07.06.13.11.21.15.08.05.16.1.25.13.08.03.16.06.25.08.09.02.18.03.27.04.15,0,.3-.03.44-.09.1-.04.2-.08.3-.12.12-.05.23-.1.36-.14.15-.06.3-.11.45-.17.12-.05.24-.09.37-.14.16-.06.33-.12.49-.17.13-.04.25-.09.38-.13.25-.08.49-.17.74-.25.15-.05.3-.1.45-.16.14-.05.27-.09.41-.14.16-.06.31-.12.47-.18.12-.04.23-.09.35-.13.17-.07.34-.14.51-.21.09-.04.18-.07.27-.11.25-.11.49-.23.73-.35.11-.06.25-.15.4-.25.05-.03.1-.07.16-.11.11-.08.23-.16.36-.26.07-.05.13-.1.2-.15.14-.11.28-.22.43-.34.06-.05.13-.1.19-.15.22-.18.45-.36.69-.56,0,0,.01,0,.02-.01.24-.2.49-.41.75-.63.1-.08.2-.17.3-.25.18-.15.36-.3.54-.46.23-.19.46-.39.69-.58.12-.1.23-.2.35-.3.29-.24.57-.49.86-.72.01-.01.02-.02.04-.03.26-.22.52-.43.77-.64.08-.07.17-.14.25-.21.19-.16.37-.31.56-.45.09-.07.18-.14.26-.21.18-.14.36-.28.53-.42.07-.06.15-.12.22-.17.24-.18.47-.35.68-.51.02-.01.03-.02.05-.03.16-.12.32-.23.47-.32,0,0,.02,0,.03-.01.65-.42,1.12-.64,1.3-.5.21.39.37.79.47,1.19,0,.01,0,.02.01.03.02.1.04.2.06.3.01.07.03.14.04.21.02.13.03.27.04.41,0,.05.01.11.01.16,0,.19,0,.38,0,.57,0,.04,0,.08-.01.13-.01.15-.03.3-.05.45-.01.07-.03.14-.04.22-.02.12-.04.24-.07.36-.02.08-.04.16-.06.24-.03.11-.06.23-.1.34-.03.08-.06.17-.09.25-.04.11-.08.22-.12.33-.03.09-.07.17-.11.26-.05.11-.09.22-.14.32-.04.09-.08.18-.13.26-.05.11-.11.21-.16.32-.05.09-.1.18-.15.26-.06.11-.12.21-.19.32-.05.09-.11.17-.16.26-.07.11-.14.21-.21.32-.06.09-.11.17-.17.26-.07.11-.15.21-.23.32-.06.08-.12.17-.18.25-.08.11-.16.21-.25.32-.06.08-.13.16-.19.24-.09.11-.18.22-.27.33-.06.08-.13.15-.19.23-.1.12-.21.23-.31.35-.06.06-.11.13-.17.19-.13.15-.27.29-.4.43-.03.03-.06.07-.1.1-.17.18-.34.35-.52.52ZM122.45,83.66c0,.24-.02.49-.04.74-.01.19-.02.38-.04.57-.02.26-.05.52-.08.78-.02.18-.04.36-.06.54-.04.28-.08.57-.13.85-.03.16-.05.33-.08.49-.06.35-.13.7-.21,1.05-.02.1-.04.2-.06.31-.1.45-.21.91-.33,1.36-.03.12-.07.25-.11.37-.09.33-.19.67-.29,1-.05.17-.11.34-.17.51-.09.29-.19.58-.29.86-.07.19-.14.38-.21.57-.1.27-.2.53-.31.8-.08.2-.16.4-.25.6-.08.19-.16.39-.24.58,0,.01-.01.02-.02.03-.25.58-.52,1.16-.81,1.74-.64-.54-1.07-1.12-1.35-1.73,0-.01-.02-.02-.02-.03,0-.02-.01-.05-.02-.07-.09-.22-.16-.43-.22-.66,0-.03-.01-.05-.02-.08-.05-.22-.08-.44-.1-.67,0-.02,0-.05,0-.07-.01-.23-.01-.47,0-.72,0-.05,0-.09,0-.14.02-.24.05-.48.09-.72,0-.04.02-.09.03-.13.05-.25.1-.51.17-.76,0-.01,0-.03.01-.04.07-.26.15-.51.23-.77.01-.04.02-.08.04-.12.09-.26.18-.52.28-.78.02-.05.04-.1.06-.16.1-.26.2-.52.3-.78.02-.05.04-.1.06-.15.11-.26.21-.52.32-.79.11-.27.22-.54.33-.81.02-.06.05-.12.07-.18.11-.27.22-.54.32-.81.02-.05.04-.1.06-.15.11-.28.21-.56.3-.84,0-.02.02-.05.02-.07.09-.27.18-.54.26-.81.01-.04.02-.07.03-.11.08-.27.15-.54.21-.81.01-.05.02-.1.03-.16.06-.27.1-.54.14-.8,0-.04,0-.09.02-.13.03-.28.06-.56.06-.83,0-.49-.02-.97-.06-1.44,0-.04,0-.07,0-.11-.05-.45-.13-.88-.23-1.3-.01-.05-.02-.11-.04-.16-.1-.41-.22-.81-.37-1.2-.02-.06-.04-.12-.07-.18-.15-.38-.31-.75-.5-1.1-.03-.06-.06-.12-.09-.17-.19-.35-.4-.69-.62-1.02-.04-.05-.07-.1-.11-.15-.23-.33-.48-.65-.74-.95-.03-.04-.07-.08-.11-.12-.27-.31-.56-.6-.87-.88-.03-.02-.05-.05-.08-.07-.32-.29-.65-.56-1-.81,0,0,0,0,0,0-.35-.25-.72-.48-1.09-.7-.03-.02-.06-.03-.08-.05-.36-.2-.73-.39-1.11-.55-.05-.02-.09-.04-.14-.06-.37-.16-.75-.3-1.14-.42-.06-.02-.12-.04-.18-.06-.38-.12-.78-.21-1.17-.3-.06-.01-.13-.03-.19-.04-.4-.07-.8-.13-1.2-.17-.06,0-.13-.01-.19-.01-.41-.03-.82-.05-1.24-.04-.05,0-.11,0-.16,0-.43.01-.86.05-1.28.1-.04,0-.07.01-.11.02-.45.06-.9.15-1.34.26-.5.13-1,.29-1.5.48v-1.62s0,0,0,0h0s0-1.08,0-1.08c.35-.04.68-.06,1.02-.09.02,0,.04-.02.06-.02.13-.01.25-.01.38-.02.26-.02.52-.03.78-.04.31-.01.61-.02.91-.02.25,0,.5,0,.74,0,.29,0,.58.02.86.03.24.01.47.03.7.05.28.02.54.05.81.09.22.03.44.05.65.09.26.04.51.09.77.14.2.04.41.08.61.13.25.06.49.13.73.19.19.05.38.1.56.16.24.08.46.16.69.25.17.06.34.12.51.19.23.1.45.2.67.31.15.07.3.14.44.21.23.12.45.26.67.39.12.07.24.14.35.21.29.19.56.38.83.59.04.03.08.05.11.08.3.24.59.48.86.74.09.08.16.17.24.25.18.18.36.37.53.56.1.11.18.23.28.34.14.18.29.35.42.53.09.13.18.26.26.39.12.18.24.36.35.54.08.14.16.29.24.43.1.18.2.37.3.56.08.15.14.31.21.46.09.19.17.38.25.58.06.16.12.32.18.49.07.2.14.4.21.6.05.17.1.34.15.51.06.21.11.41.16.62.04.17.08.35.12.53.04.21.08.43.12.64.03.18.06.36.09.55.03.22.06.44.08.67.02.18.04.37.05.56.02.23.03.46.04.69,0,.19.02.38.02.57,0,.24,0,.47,0,.71,0,.19,0,.38,0,.57Z"/>
      <path class="cls-3" d="M111.11,108.32c.06-.06.11-.13.17-.19.1-.12.21-.23.31-.35.06-.07.13-.15.19-.23.09-.11.18-.22.27-.33.07-.08.13-.16.19-.24.08-.11.17-.21.25-.32.06-.08.12-.17.18-.25.08-.11.15-.21.23-.32.06-.09.12-.17.17-.26.07-.11.14-.21.21-.32.05-.09.11-.17.16-.26.06-.11.13-.21.19-.32.05-.09.1-.18.15-.26.06-.11.11-.21.16-.32.04-.09.09-.18.13-.26.05-.11.1-.22.14-.32.04-.09.07-.17.11-.26.04-.11.08-.22.12-.33.03-.08.06-.17.09-.25.04-.11.07-.23.1-.34.02-.08.05-.16.06-.24.03-.12.05-.24.07-.36.01-.07.03-.14.04-.22.02-.15.04-.3.05-.45,0-.04.01-.08.01-.13.01-.19.01-.38,0-.57,0-.05-.01-.11-.01-.16,0-.14-.02-.27-.04-.41-.01-.07-.03-.14-.04-.21-.02-.11-.04-.22-.07-.32-.21-.76-1.1-1.11-1.77-.69-.16.1-.32.21-.49.33-.02.01-.03.02-.05.03-.21.15-.44.32-.68.51-.07.05-.15.11-.22.17-.17.13-.35.27-.53.42-.09.07-.17.14-.26.21-.18.15-.37.3-.56.45-.08.07-.17.14-.25.21-.25.21-.51.42-.77.64-.01.01-.02.02-.04.03-.29.24-.57.48-.86.72-.12.1-.24.2-.35.3-.23.2-.46.39-.69.58-.18.15-.36.31-.54.46-.1.08-.2.17-.3.25-.26.22-.51.43-.75.63,0,0-.01,0-.02.01-.24.2-.47.39-.69.56-.07.05-.13.1-.19.15-.15.12-.29.23-.43.34-.07.05-.14.1-.2.15-.13.1-.25.18-.36.26-.05.04-.11.08-.16.11-.15.1-.29.19-.4.25-.23.12-.47.24-.73.35-.09.04-.18.08-.27.11-.17.07-.33.14-.51.21-.11.04-.23.09-.35.13-.16.06-.31.12-.47.18-.13.05-.27.1-.41.14-.15.05-.3.11-.45.16-.25.08-.49.17-.74.25-.13.04-.25.09-.38.13-.17.06-.33.11-.49.17-.12.04-.25.09-.37.14-.15.06-.3.11-.45.17-.12.05-.24.1-.36.14-.19.08-.38.16-.56.24-.06,0-.11-.02-.17-.03-.04,0-.09.01-.13,0-.05,0-.09-.03-.14-.05-.09-.02-.17-.05-.25-.08-.09-.04-.17-.08-.25-.13-.07-.05-.14-.1-.21-.15-.07-.06-.14-.13-.2-.21-.06-.07-.12-.14-.17-.21-.06-.09-.11-.18-.16-.28-.05-.09-.09-.17-.13-.27-.05-.11-.09-.22-.13-.33-.04-.1-.07-.2-.1-.31-.03-.12-.06-.25-.09-.38-.03-.11-.05-.23-.07-.35-.02-.14-.04-.28-.06-.42-.02-.12-.04-.24-.05-.37-.02-.15-.03-.3-.04-.45,0-.13-.02-.25-.03-.38,0-.15-.01-.31-.02-.47,0-.13,0-.26,0-.39,0-.16,0-.32,0-.48,0-.13,0-.25,0-.38,0-.16.01-.32.02-.48,0-.12,0-.24.01-.36,0-.17.02-.33.03-.49,0-.11.01-.22.02-.32.01-.17.02-.32.04-.48,0-.09.01-.19.02-.28.01-.16.03-.3.04-.45,0-.08.01-.16.02-.24.02-.18.03-.33.05-.49.02-.22.04-.42.06-.58.39-4.23,1.92-10.82,2.84-15.19,1.3-6.12,8.1-25.33,6.78-29.82-1.47-4.96-9.42-4.69-13.25-2.8-7.9,3.9-21.34,22.71-26.27,30.55-.13.21-.26.42-.4.63-.04.07-.09.14-.13.21-.09.14-.19.29-.29.43-.05.08-.11.16-.17.25-.09.14-.18.27-.27.41-.06.08-.11.17-.17.25-.13.19-.26.39-.39.58-.1.15-.21.31-.31.46-.06.09-.12.19-.19.28-.09.13-.18.27-.27.4-.07.1-.13.2-.2.3-.08.12-.16.24-.24.37-.07.11-.14.21-.21.32-.08.12-.15.23-.23.35-.07.1-.13.21-.2.31-.08.12-.15.24-.23.36-.06.1-.13.21-.19.31-.07.12-.15.24-.22.36-.06.11-.12.21-.18.32-.07.12-.14.23-.2.35-.06.11-.12.21-.17.32-.06.12-.13.23-.19.35-.06.1-.11.21-.16.31-.06.11-.12.23-.17.34-.05.11-.1.21-.15.31-.05.11-.1.22-.15.34-.05.1-.09.21-.13.31-.04.11-.09.22-.13.33-.04.1-.07.21-.11.31-.04.11-.08.22-.11.32-.03.1-.06.2-.09.3-.03.11-.06.21-.08.32-.02.1-.04.2-.06.29-.02.1-.04.21-.06.31-.02.1-.03.19-.04.29-.01.1-.02.2-.03.3,0,.09,0,.19,0,.28,0,.1,0,.2,0,.3,0,.09.01.18.02.27.01.1.02.19.04.29.02.09.03.18.05.26.02.09.05.19.07.28.03.09.06.17.09.25.03.09.07.18.11.27.04.08.08.16.13.24.05.09.1.17.15.25.05.08.11.16.16.23.06.08.13.16.2.24.07.07.13.15.21.22.08.08.16.15.24.23.08.07.16.14.25.21.09.07.19.14.29.21.09.07.19.13.29.2.11.07.22.13.34.2.11.06.22.12.34.18.12.06.26.12.39.18.13.06.26.11.39.17.14.06.29.11.44.17.14.05.29.1.44.15.16.05.33.1.5.15.16.05.32.09.49.14.08.02.16.04.24.06.41.08.83-.07,1.11-.39.21-.25.42-.51.63-.76.22-.27.44-.54.66-.81.3-.37.59-.73.88-1.1.29-.36.58-.72.86-1.08.33-.41.65-.82.98-1.23.26-.32.51-.64.77-.96.23-.28.45-.56.68-.84.27-.32.54-.64.8-.96.22-.26.43-.52.65-.78.29-.33.58-.66.88-.99.21-.24.42-.47.63-.71.34-.37.69-.73,1.04-1.09.18-.19.36-.38.54-.57.54-.54,1.1-1.08,1.68-1.61.27-.25.56-.49.85-.73.1-.08.21-.16.31-.25.2-.16.4-.31.61-.47.13-.1.26-.19.39-.29.19-.14.38-.28.58-.42.14-.1.29-.2.44-.31.2-.14.39-.27.59-.41.19-.13.38-.26.57-.39.24-.16.48-.33.73-.5.2-.14.41-.28.61-.42.15-.1.3-.21.44-.31.21-.15.41-.29.62-.44.13-.09.25-.18.38-.27.24-.18.48-.36.71-.54.08-.06.16-.12.24-.19.31-.24.61-.49.9-.75.07-.06.14-.13.2-.19.21-.19.43-.39.63-.59.1-.1.18-.2.28-.29.16-.17.32-.34.48-.52.1-.11.18-.23.27-.34.13-.17.27-.34.39-.52.08-.12.16-.25.24-.37.11-.18.21-.36.31-.54.07-.13.14-.26.2-.4.09-.19.16-.38.23-.57.05-.14.1-.27.14-.41.03-.11.05-.23.08-.34.11-.86-.78-1.52-1.62-1.2-.06.03-.12.05-.18.08-.18.08-.36.17-.53.26-.08.04-.17.08-.25.13-.24.13-.48.26-.71.4-.02.01-.04.02-.06.03-.26.16-.52.32-.78.49-.1.07-.21.13-.31.2-.2.13-.39.26-.59.38-.19.12-.37.24-.56.36-.11.07-.21.14-.32.2-.17.11-.33.21-.5.31-.09.06-.19.12-.28.17-.2.12-.4.23-.6.34-.06.03-.11.07-.17.1-.25.13-.51.26-.77.37-.01,0-.03.01-.04.02,0,0-.02,0-.02,0-.89.38-1.8.61-2.73.55.15-.4.62-1.21,1.3-2.28,0,0,0,0,0,0,.01-.02.03-.05.05-.07.18-.28.37-.58.58-.9.03-.05.07-.11.11-.16.18-.27.37-.55.57-.85.07-.1.14-.2.21-.3.2-.29.41-.59.62-.9.05-.07.09-.13.14-.2.26-.37.53-.75.81-1.14.07-.1.15-.21.22-.31.22-.3.44-.61.67-.92.09-.12.17-.24.26-.36.6-.81,1.23-1.64,1.87-2.47.09-.12.18-.23.27-.35.25-.32.5-.64.75-.96.09-.11.17-.21.25-.32.33-.41.65-.81.98-1.21.06-.07.12-.14.18-.21.27-.33.54-.65.81-.97.1-.11.19-.22.29-.34.27-.31.54-.62.8-.92.06-.07.12-.14.18-.21.32-.35.63-.7.94-1.02.08-.08.16-.16.24-.25.24-.25.48-.49.71-.73.09-.09.17-.17.26-.26.3-.29.59-.57.87-.83,0,0,0,0,0,0,.28-.25.54-.47.8-.68.07-.06.15-.12.22-.17.2-.15.39-.29.57-.42.04-.03.09-.07.13-.1,0,0,.02,0,.03-.01.98-.63,1.76-.83,2.2-.38-.14.55-.3,1.09-.45,1.63,0,.03,0,.05,0,.08-.08.3-.17.59-.25.89-.14.48-.27.96-.41,1.44-.17.59-.35,1.17-.53,1.75-.14.47-.29.95-.44,1.42-.19.61-.38,1.21-.58,1.82-.15.47-.3.93-.45,1.4-.25.77-.5,1.54-.75,2.31-.23.7-.46,1.4-.68,2.1-.17.53-.34,1.06-.51,1.58-.2.61-.39,1.22-.58,1.83-.14.45-.28.9-.42,1.35-.21.68-.41,1.36-.61,2.05-.11.37-.22.75-.33,1.12-.3,1.06-.59,2.12-.85,3.18-3.46,13.77-12.3,47.84,13.89,32.83.14-.08.28-.17.43-.25.05-.03.1-.06.15-.09.1-.06.21-.13.31-.19.06-.04.12-.08.18-.12.1-.06.2-.13.3-.19.07-.04.14-.09.21-.14.1-.06.19-.13.29-.2.07-.05.15-.1.22-.16.1-.07.19-.13.29-.2.08-.05.16-.11.23-.17.1-.07.2-.14.29-.21.08-.06.16-.12.24-.18.1-.07.2-.15.3-.23.08-.06.16-.12.24-.19.1-.08.2-.16.3-.24.08-.07.17-.13.25-.2.1-.08.2-.16.3-.25.08-.07.16-.13.25-.2.1-.09.2-.17.31-.26.08-.07.16-.14.24-.21.11-.09.21-.19.32-.28.08-.07.15-.13.22-.2.11-.1.22-.2.33-.3.07-.07.14-.13.21-.2.12-.12.25-.24.37-.36.05-.05.11-.1.16-.15.17-.17.35-.35.52-.52.03-.03.06-.07.1-.1.14-.14.27-.29.4-.43Z"/>
      <path class="cls-3" d="M80.56,82.81c-.2.14-.39.27-.59.41.2-.14.39-.27.59-.41Z"/>
      <path class="cls-3" d="M82.91,81.19c-.15.1-.3.21-.44.31.15-.1.3-.2.44-.31Z"/>
      <path class="cls-3" d="M79.53,83.52c-.2.14-.39.28-.58.42.19-.14.38-.28.58-.42Z"/>
      <path class="cls-3" d="M81.86,81.92c-.24.17-.48.33-.73.5.24-.16.48-.33.73-.5Z"/>
      <path class="cls-3" d="M85.91,73.6c.24-.14.47-.28.71-.4-.24.13-.48.26-.71.4Z"/>
      <path class="cls-3" d="M74.57,87.85c-.35.36-.7.72-1.04,1.09.34-.37.69-.73,1.04-1.09Z"/>
      <path class="cls-3" d="M78.56,84.23c-.21.15-.41.31-.61.47.2-.16.4-.31.61-.47Z"/>
      <path class="cls-3" d="M77.65,84.94c-.3.24-.58.48-.85.73.27-.25.56-.49.85-.73Z"/>
      <path class="cls-3" d="M87.62,77.07c-.09.11-.18.23-.27.34.1-.11.18-.23.27-.34Z"/>
      <path class="cls-3" d="M89.13,74.26c-.04.14-.09.28-.14.41.05-.14.1-.27.14-.41Z"/>
      <path class="cls-3" d="M88.76,75.25c-.06.13-.13.27-.2.4.07-.13.14-.26.2-.4Z"/>
      <path class="cls-3" d="M86.88,73.06c.18-.09.35-.18.53-.26-.18.08-.36.17-.53.26Z"/>
      <path class="cls-3" d="M88.25,76.18c-.08.12-.16.25-.24.37.08-.12.16-.25.24-.37Z"/>
      <path class="cls-3" d="M86.87,77.93c-.09.1-.18.2-.28.29.1-.1.18-.2.28-.29Z"/>
      <path class="cls-3" d="M85.97,78.81c-.07.06-.13.13-.2.19.07-.06.14-.13.2-.19Z"/>
      <path class="cls-3" d="M71.37,91.42c-.27.32-.54.64-.8.96.27-.32.54-.64.8-.96Z"/>
      <path class="cls-3" d="M84.87,79.75c-.08.06-.16.12-.24.19.08-.06.16-.12.24-.19Z"/>
      <path class="cls-3" d="M83.91,80.48c-.12.09-.25.18-.38.27.13-.09.25-.18.38-.27Z"/>
      <path class="cls-3" d="M72.9,89.65c-.29.33-.59.66-.88.99.29-.33.58-.66.88-.99Z"/>
      <path class="cls-3" d="M92.01,58.79c.09-.09.17-.17.26-.26-.08.08-.17.17-.26.26Z"/>
      <path class="cls-3" d="M59.83,97.75c-.09-.07-.17-.14-.25-.21.08.07.16.14.25.21Z"/>
      <path class="cls-3" d="M59.34,97.31c-.07-.07-.14-.15-.21-.22.07.07.13.15.21.22Z"/>
      <path class="cls-3" d="M94.74,56.43c.05-.04.11-.07.16-.11,0,0-.02,0-.03.01-.04.03-.09.07-.13.1Z"/>
      <path class="cls-3" d="M80.97,76.56s-.04.02-.07.03c0,0,.02,0,.02,0,.01,0,.03-.01.04-.02Z"/>
      <path class="cls-3" d="M60.42,98.15c-.1-.06-.2-.13-.29-.2.09.07.19.13.29.2Z"/>
      <path class="cls-3" d="M58.94,96.85c-.06-.08-.11-.15-.16-.23.05.08.11.16.16.23Z"/>
      <path class="cls-3" d="M79.48,74.85s.03-.05.05-.08c-.01.02-.03.05-.05.07,0,0,0,0,0,0Z"/>
      <path class="cls-3" d="M69.89,93.22c-.26.32-.52.64-.77.96.26-.32.51-.64.77-.96Z"/>
      <path class="cls-3" d="M62.76,99.2c-.15-.05-.3-.1-.44-.15.14.05.29.1.44.15Z"/>
      <path class="cls-3" d="M63.76,99.49c-.17-.04-.33-.09-.49-.14.16.05.32.09.49.14Z"/>
      <path class="cls-3" d="M66.39,97.59c-.22.27-.44.54-.66.81.22-.27.44-.54.66-.81Z"/>
      <path class="cls-3" d="M96.66,57.58c-.09.32-.17.64-.26.96.08-.3.17-.59.25-.89,0-.03,0-.05,0-.08Z"/>
      <path class="cls-3" d="M68.13,95.41c-.29.36-.57.72-.86,1.08.29-.36.57-.72.86-1.08Z"/>
      <path class="cls-3" d="M61.1,98.54c-.12-.06-.23-.12-.34-.18.11.06.22.12.34.18Z"/>
      <path class="cls-3" d="M110.61,108.85s.06-.07.1-.1c-.03.03-.06.07-.1.1Z"/>
      <path class="cls-3" d="M61.88,98.89c-.14-.05-.26-.11-.39-.17.13.06.26.11.39.17Z"/>
      <path class="cls-3" d="M95.46,61.73c.18-.58.35-1.17.53-1.75-.17.59-.35,1.17-.53,1.75Z"/>
      <path class="cls-3" d="M104.72,113.74c-.07.05-.14.09-.21.14.07-.04.14-.09.21-.14Z"/>
      <path class="cls-3" d="M103.72,114.38s-.1.06-.15.09c.05-.03.1-.06.15-.09Z"/>
      <path class="cls-3" d="M104.22,114.07c-.06.04-.12.08-.18.12.06-.04.12-.08.18-.12Z"/>
      <path class="cls-3" d="M105.24,113.39c-.08.05-.15.1-.22.16.07-.05.15-.1.22-.16Z"/>
      <path class="cls-3" d="M105.76,113.02c-.08.06-.16.11-.23.17.08-.06.16-.11.23-.17Z"/>
      <path class="cls-3" d="M92.04,72.36c.17-.53.34-1.06.51-1.58-.17.53-.34,1.06-.51,1.58Z"/>
      <path class="cls-3" d="M94.44,64.97c.19-.61.39-1.21.58-1.82-.19.61-.38,1.21-.58,1.82Z"/>
      <path class="cls-3" d="M90.1,78.71c.11-.38.22-.75.33-1.12-.11.37-.22.75-.33,1.12Z"/>
      <path class="cls-3" d="M91.04,75.54c.14-.45.28-.9.42-1.35-.14.45-.28.9-.42,1.35Z"/>
      <path class="cls-3" d="M93.24,68.68c.25-.77.5-1.54.75-2.31-.25.77-.5,1.54-.75,2.31Z"/>
      <path class="cls-3" d="M109.02,110.39c-.07.07-.15.13-.22.2.08-.07.15-.13.22-.2Z"/>
      <path class="cls-3" d="M109.57,109.89c-.07.07-.14.13-.21.2.07-.07.14-.13.21-.2Z"/>
      <path class="cls-3" d="M110.09,109.38c-.05.05-.11.1-.16.15.05-.05.11-.1.16-.15Z"/>
      <path class="cls-3" d="M108.48,110.87c-.08.07-.16.14-.24.21.08-.07.16-.14.24-.21Z"/>
      <path class="cls-3" d="M85.07,74.12c.26-.17.52-.33.78-.49-.26.16-.52.32-.78.49Z"/>
      <path class="cls-3" d="M106.84,112.22c-.08.06-.16.13-.24.19.08-.06.16-.12.24-.19Z"/>
      <path class="cls-3" d="M106.29,112.63c-.08.06-.16.12-.24.18.08-.06.16-.12.24-.18Z"/>
      <path class="cls-3" d="M107.93,111.34c-.08.07-.16.14-.25.2.08-.07.16-.13.25-.2Z"/>
      <path class="cls-3" d="M107.38,111.79c-.08.07-.17.13-.25.2.08-.07.16-.13.25-.2Z"/>
      <path class="cls-3" d="M80.22,73.72c-.03.05-.07.11-.11.16.03-.05.07-.11.11-.16Z"/>
      <path class="cls-3" d="M81,72.57c-.07.1-.14.2-.21.3.07-.1.14-.2.21-.3Z"/>
      <path class="cls-3" d="M81.76,71.47c-.05.07-.09.13-.14.2.05-.07.09-.13.14-.2Z"/>
      <path class="cls-3" d="M82.8,70.01c-.07.1-.15.21-.22.31.07-.1.15-.21.22-.31Z"/>
      <path class="cls-3" d="M81.74,76.19c.06-.03.11-.06.17-.1-.06.03-.11.07-.17.1Z"/>
      <path class="cls-3" d="M83.73,68.74c-.09.12-.17.24-.26.36.09-.12.17-.24.26-.36Z"/>
      <path class="cls-3" d="M84.17,74.7c.2-.13.39-.26.59-.38-.2.13-.39.26-.59.38Z"/>
      <path class="cls-3" d="M83.29,75.27c.11-.07.21-.14.32-.2-.11.07-.21.14-.32.2Z"/>
      <path class="cls-3" d="M82.51,75.76c.09-.06.19-.11.28-.17-.09.06-.19.12-.28.17Z"/>
      <path class="cls-3" d="M91.31,59.52c-.08.08-.16.16-.24.25.08-.08.16-.16.24-.25Z"/>
      <path class="cls-3" d="M93.15,57.71s0,0,0,0c0,0,0,0,0,0Z"/>
      <path class="cls-3" d="M58.62,96.36c-.04-.08-.09-.16-.13-.24.04.08.08.16.13.24Z"/>
      <path class="cls-3" d="M94.17,56.85c-.07.06-.15.11-.22.17.07-.06.15-.12.22-.17Z"/>
      <path class="cls-3" d="M85.87,65.92c-.09.12-.18.23-.27.35.09-.12.18-.23.27-.35Z"/>
      <path class="cls-3" d="M90.13,60.79c-.06.07-.12.14-.18.21.06-.07.12-.14.18-.21Z"/>
      <path class="cls-3" d="M86.88,64.64c-.09.11-.17.21-.25.32.08-.11.17-.21.25-.32Z"/>
      <path class="cls-3" d="M89.14,61.91c-.1.11-.19.22-.29.34.1-.11.19-.23.29-.34Z"/>
      <path class="cls-3" d="M88.04,63.22c-.06.07-.12.14-.18.21.06-.07.12-.14.18-.21Z"/>
      <path class="cls-3" d="M114.8,101.76c-.01.07-.03.14-.04.22.01-.07.03-.14.04-.22Z"/>
      <path class="cls-3" d="M114.86,100.46c0,.05.01.11.01.16,0-.05-.01-.11-.01-.16Z"/>
      <path class="cls-3" d="M60.96,87.16c.07-.1.13-.21.2-.31-.07.1-.13.21-.2.31Z"/>
      <path class="cls-3" d="M114.77,99.84c.01.07.03.14.04.21-.01-.07-.03-.14-.04-.21Z"/>
      <path class="cls-3" d="M94.45,99.46c-.02.15-.03.31-.05.49.02-.17.03-.34.05-.49Z"/>
      <path class="cls-3" d="M63.8,82.89c.1-.15.19-.29.29-.43-.09.14-.19.29-.29.43Z"/>
      <path class="cls-3" d="M64.22,82.25c.14-.21.27-.42.4-.63-.13.21-.26.42-.4.63Z"/>
      <path class="cls-3" d="M111.49,99.87c.07-.06.15-.12.22-.17-.07.05-.15.11-.22.17Z"/>
      <path class="cls-3" d="M94.32,100.92c-.01.16-.03.31-.04.48.01-.16.02-.32.04-.48Z"/>
      <path class="cls-3" d="M109.89,101.16c.08-.07.17-.14.25-.21-.08.07-.17.14-.25.21Z"/>
      <path class="cls-3" d="M110.7,100.5c.09-.07.18-.14.26-.21-.09.07-.17.14-.26.21Z"/>
      <path class="cls-3" d="M94.38,100.19c-.01.15-.03.29-.04.45.01-.16.03-.3.04-.45Z"/>
      <path class="cls-3" d="M99.96,107.9c.15-.05.3-.1.45-.16-.15.05-.3.11-.45.16Z"/>
      <path class="cls-3" d="M114.53,102.93c-.03.08-.06.17-.09.25.03-.08.06-.17.09-.25Z"/>
      <path class="cls-3" d="M61.84,85.81c.07-.1.13-.2.2-.3-.07.1-.13.2-.2.3Z"/>
      <path class="cls-3" d="M114.32,103.51c-.03.09-.07.17-.11.26.04-.09.07-.17.11-.26Z"/>
      <path class="cls-3" d="M114.69,102.34c-.02.08-.04.16-.06.24.02-.08.05-.16.06-.24Z"/>
      <path class="cls-3" d="M63.36,83.54c.09-.14.18-.27.27-.41-.09.14-.18.27-.27.41Z"/>
      <path class="cls-3" d="M61.38,86.5c.07-.11.14-.21.21-.32-.07.11-.14.21-.21.32Z"/>
      <path class="cls-3" d="M62.8,84.37c.13-.19.26-.39.39-.58-.13.19-.26.39-.39.58Z"/>
      <path class="cls-3" d="M62.31,85.11c.06-.09.12-.19.19-.28-.06.09-.12.18-.19.28Z"/>
      <path class="cls-3" d="M114.87,101.19s0,.08-.01.13c0-.04.01-.08.01-.13Z"/>
      <path class="cls-3" d="M94.26,101.72c-.01.16-.02.32-.03.49,0-.17.02-.33.03-.49Z"/>
      <path class="cls-3" d="M112.39,99.2s.03-.02.05-.03c-.02.01-.03.02-.05.03Z"/>
      <path class="cls-3" d="M94.67,107.41c.04.11.08.23.13.33-.05-.11-.09-.22-.13-.33Z"/>
      <path class="cls-3" d="M95.67,108.87c.08.05.16.1.25.13-.09-.04-.17-.08-.25-.13Z"/>
      <path class="cls-3" d="M103.7,106.26c.11-.08.23-.16.36-.26-.13.1-.25.18-.36.26Z"/>
      <path class="cls-3" d="M94.93,108.01c.05.1.11.19.16.28-.06-.09-.11-.18-.16-.28Z"/>
      <path class="cls-3" d="M102.42,106.97c.25-.11.49-.23.73-.35-.23.12-.47.24-.73.35Z"/>
      <path class="cls-3" d="M103.15,106.62c.11-.06.25-.15.4-.25-.15.1-.29.19-.4.25Z"/>
      <path class="cls-3" d="M97.18,108.91c.12-.05.23-.1.36-.14-.12.05-.24.1-.36.14Z"/>
      <path class="cls-3" d="M98.85,108.29c.13-.04.25-.09.38-.13-.13.04-.25.09-.38.13Z"/>
      <path class="cls-3" d="M100.82,107.6c.16-.06.31-.12.47-.18-.16.06-.31.12-.47.18Z"/>
      <path class="cls-3" d="M101.64,107.3c.17-.07.34-.14.51-.21-.17.07-.33.14-.51.21Z"/>
      <path class="cls-3" d="M109.08,101.83s.02-.02.04-.03c-.01.01-.02.02-.04.03Z"/>
      <path class="cls-3" d="M97.98,108.6c.12-.05.24-.09.37-.14-.12.04-.25.09-.37.14Z"/>
      <path class="cls-3" d="M94.21,104.29c0,.16,0,.31.02.47,0-.15-.01-.31-.02-.47Z"/>
      <path class="cls-3" d="M94.25,105.14c.01.15.02.3.04.45-.02-.15-.03-.3-.04-.45Z"/>
      <path class="cls-3" d="M106.64,103.9c.18-.15.36-.3.54-.46-.18.16-.36.31-.54.46Z"/>
      <path class="cls-3" d="M94.22,102.57c0,.16-.01.32-.02.48,0-.16.01-.32.02-.48Z"/>
      <path class="cls-3" d="M107.87,102.86c.12-.1.23-.2.35-.3-.12.1-.23.2-.35.3Z"/>
      <path class="cls-3" d="M104.89,105.35c.22-.18.45-.36.69-.56-.24.2-.47.39-.69.56Z"/>
      <path class="cls-3" d="M94.48,106.72c.03.13.06.26.09.38-.03-.12-.06-.25-.09-.38Z"/>
      <path class="cls-3" d="M105.6,104.77c.24-.2.49-.41.75-.63-.26.22-.51.43-.75.63Z"/>
      <path class="cls-3" d="M104.26,105.84c.14-.11.28-.22.43-.34-.15.12-.29.23-.43.34Z"/>
      <path class="cls-3" d="M94.34,105.96c.02.14.04.28.06.42-.02-.14-.04-.28-.06-.42Z"/>
      <path class="cls-3" d="M58.1,94.2c0-.09,0-.19,0-.28,0,.09,0,.19,0,.28Z"/>
      <path class="cls-3" d="M58.23,93.02c.02-.1.04-.2.06-.29-.02.1-.04.2-.06.29Z"/>
      <path class="cls-3" d="M96.44,109.12c-.09,0-.19-.02-.27-.04.05.01.09.04.14.05.04,0,.09,0,.13,0Z"/>
      <path class="cls-3" d="M113.07,105.83c-.06.09-.11.17-.17.26.06-.09.12-.17.17-.26Z"/>
      <path class="cls-3" d="M58.38,92.4c.03-.1.06-.2.09-.3-.03.1-.06.2-.09.3Z"/>
      <path class="cls-3" d="M114.7,99.52c-.11-.41-.26-.8-.47-1.19-.18-.13-.65.08-1.3.5.67-.42,1.56-.07,1.77.69Z"/>
      <path class="cls-3" d="M113.44,105.26c-.05.09-.11.17-.16.26.05-.09.11-.17.16-.26Z"/>
      <path class="cls-3" d="M95.47,108.71c-.07-.06-.14-.13-.2-.21.06.08.13.15.2.21Z"/>
      <path class="cls-3" d="M58.14,93.62c.01-.1.02-.19.04-.29-.02.1-.03.19-.04.29Z"/>
      <path class="cls-3" d="M59.76,89.18c.06-.11.11-.21.17-.32-.06.11-.12.21-.17.32Z"/>
      <path class="cls-3" d="M59.41,89.84c.05-.1.1-.21.16-.31-.06.1-.11.21-.16.31Z"/>
      <path class="cls-3" d="M58.81,91.14c.04-.1.08-.21.13-.31-.05.1-.09.21-.13.31Z"/>
      <path class="cls-3" d="M112.24,106.98c-.06.08-.13.16-.19.24.07-.08.13-.16.19-.24Z"/>
      <path class="cls-3" d="M111.78,107.55c-.06.08-.13.15-.19.23.06-.07.13-.15.19-.23Z"/>
      <path class="cls-3" d="M58.57,91.78c.04-.1.07-.2.11-.31-.04.1-.07.21-.11.31Z"/>
      <path class="cls-3" d="M112.67,106.41c-.06.08-.12.17-.18.25.06-.08.12-.17.18-.25Z"/>
      <path class="cls-3" d="M111.28,108.13c-.06.06-.11.13-.17.19.06-.06.11-.13.17-.19Z"/>
      <path class="cls-3" d="M59.09,90.49c.05-.1.1-.21.15-.31-.05.11-.1.21-.15.31Z"/>
      <path class="cls-3" d="M58.38,95.85c-.03-.08-.06-.17-.09-.25.03.09.06.17.09.25Z"/>
      <path class="cls-3" d="M64,99.55c.22.05.43.11.66.16.15-.18.3-.36.45-.54-.28.31-.7.47-1.11.39Z"/>
      <path class="cls-3" d="M94.2,103.91c0-.16,0-.32,0-.48,0,.16,0,.32,0,.48Z"/>
      <path class="cls-3" d="M60.54,87.83c.06-.1.12-.21.19-.31-.06.1-.13.21-.19.31Z"/>
      <path class="cls-3" d="M114.07,104.09c-.04.09-.09.18-.13.26.04-.09.09-.18.13-.26Z"/>
      <path class="cls-3" d="M58.13,94.77c0-.09-.02-.18-.02-.27,0,.09.01.18.02.27Z"/>
      <path class="cls-3" d="M75.11,87.28c.54-.54,1.1-1.08,1.68-1.61-.58.53-1.14,1.06-1.68,1.61Z"/>
      <path class="cls-3" d="M113.77,104.67c-.05.09-.1.18-.15.26.05-.09.1-.18.15-.26Z"/>
      <path class="cls-3" d="M60.14,88.51c.06-.11.12-.21.18-.32-.06.11-.12.21-.18.32Z"/>
      <path class="cls-3" d="M58.22,95.32c-.02-.09-.04-.17-.05-.26.02.09.03.18.05.26Z"/>
      <path class="cls-3" d="M89.21,73.92c.14-.56.23-1.14.22-1.76-.63.1-1.24.3-1.84.56.83-.32,1.72.34,1.62,1.2Z"/>
      <path class="cls-3" d="M122.43,81.82c-.01-.23-.02-.46-.04-.69-.01-.19-.03-.37-.05-.56-.02-.22-.05-.45-.08-.67-.03-.18-.06-.36-.09-.55-.04-.22-.08-.43-.12-.64-.04-.18-.08-.35-.12-.53-.05-.21-.11-.42-.16-.62-.05-.17-.1-.34-.15-.51-.06-.2-.13-.4-.21-.6-.06-.16-.12-.33-.18-.49-.08-.2-.16-.39-.25-.58-.07-.15-.14-.31-.21-.46-.09-.19-.2-.37-.3-.56-.08-.14-.16-.29-.24-.43-.11-.18-.23-.36-.35-.54-.09-.13-.17-.26-.26-.39-.13-.18-.28-.36-.42-.53-.09-.11-.18-.23-.28-.34-.17-.19-.35-.38-.53-.56-.08-.08-.16-.17-.24-.25-.27-.26-.56-.51-.86-.74-.04-.03-.08-.05-.11-.08-.27-.2-.54-.4-.83-.59-.11-.07-.24-.14-.35-.21-.22-.13-.44-.27-.67-.39-.14-.08-.3-.14-.44-.21-.22-.11-.44-.21-.67-.31-.16-.07-.34-.13-.51-.19-.23-.09-.45-.17-.69-.25-.18-.06-.37-.11-.56-.16-.24-.07-.48-.13-.73-.19-.2-.05-.4-.09-.61-.13-.25-.05-.51-.1-.77-.14-.21-.03-.43-.06-.65-.09-.27-.03-.54-.06-.81-.09-.23-.02-.46-.03-.7-.05-.28-.02-.57-.03-.86-.03-.24,0-.49,0-.74,0-.3,0-.6.01-.91.02-.26.01-.52.02-.78.04-.15,0-.3.03-.45.04-.58.08-1.02.58-1.01,1.17h0c0,.78.74,1.33,1.5,1.13,0,0,0,0,0,0,.45-.11.89-.2,1.34-.26.04,0,.07-.01.11-.02.43-.06.86-.09,1.28-.1.05,0,.11,0,.16,0,.42,0,.83,0,1.24.04.06,0,.13,0,.19.01.41.04.81.09,1.2.17.06.01.13.02.19.04.4.08.79.18,1.17.3.06.02.12.04.18.06.39.12.77.26,1.14.42.05.02.09.04.14.06.38.17.75.35,1.11.55.03.02.06.03.08.05.38.21.74.45,1.09.7,0,0,0,0,0,0,.35.25.68.52,1,.81.03.02.05.05.08.07.3.28.59.57.87.88.04.04.07.08.11.12.26.3.51.62.74.95.04.05.07.1.11.15.22.33.43.67.62,1.02.03.06.06.12.09.17.18.36.35.73.5,1.1.02.06.04.12.07.18.14.39.27.79.37,1.2.01.05.02.11.04.16.1.42.18.86.23,1.3,0,.04,0,.07,0,.11.05.47.07.95.06,1.44,0,.28-.03.55-.06.83,0,.04,0,.09-.02.13-.04.27-.08.53-.14.8-.01.05-.02.1-.03.16-.06.27-.13.54-.21.81-.01.04-.02.07-.03.11-.08.27-.16.54-.26.81,0,.02-.02.05-.02.07-.1.28-.2.56-.3.84-.02.05-.04.1-.06.15-.1.27-.21.54-.32.81-.02.06-.05.12-.07.18-.11.27-.22.54-.33.81-.11.26-.22.53-.32.79-.02.05-.04.1-.06.15-.11.26-.21.52-.3.78-.02.05-.04.1-.06.16-.1.26-.19.52-.28.78-.01.04-.02.08-.04.12-.08.26-.16.52-.23.77,0,.01,0,.03-.01.04-.07.26-.12.51-.17.76,0,.04-.02.09-.03.13-.04.24-.07.48-.09.72,0,.05,0,.09,0,.14-.01.24-.02.48,0,.72,0,.02,0,.05,0,.07.02.23.05.45.1.67,0,.03,0,.05.02.08.05.22.13.44.22.66.01.03.03.07.04.1.43.91,1.72.9,2.15,0,.09-.2.18-.41.26-.61.08-.2.17-.4.25-.6.11-.27.21-.53.31-.8.07-.19.14-.38.21-.57.1-.29.2-.58.29-.86.06-.17.12-.34.17-.51.1-.33.2-.67.29-1,.03-.12.07-.25.11-.37.12-.46.23-.91.33-1.36.02-.1.04-.2.06-.31.07-.35.15-.7.21-1.05.03-.16.05-.33.08-.49.05-.28.09-.57.13-.85.02-.18.04-.36.06-.54.03-.26.06-.52.08-.78.02-.19.02-.38.04-.57.01-.25.03-.49.04-.74,0-.19,0-.38,0-.57,0-.24,0-.48,0-.71,0-.19-.01-.38-.02-.57Z"/>
      <path class="cls-3" d="M122.41,84.4c-.01.19-.02.38-.04.57.02-.19.02-.38.04-.57Z"/>
      <path class="cls-3" d="M118.91,72.14c.1.11.18.23.28.34-.09-.11-.18-.23-.28-.34Z"/>
      <path class="cls-3" d="M117.39,95.69c.28.62.71,1.2,1.35,1.73.29-.58.55-1.15.81-1.74-.43.91-1.72.91-2.15,0Z"/>
      <path class="cls-3" d="M117.92,89.76c.1-.26.2-.52.3-.78-.11.26-.21.52-.3.78Z"/>
      <path class="cls-3" d="M115.98,69.71c.12.07.24.14.35.21-.11-.07-.24-.14-.35-.21Z"/>
      <path class="cls-3" d="M122.11,87.15c-.03.16-.05.33-.08.49.03-.16.05-.33.08-.49Z"/>
      <path class="cls-3" d="M117.16,70.51s.08.05.11.08c-.04-.03-.08-.05-.11-.08Z"/>
      <path class="cls-3" d="M118.13,71.33c.09.08.16.17.24.25-.08-.08-.16-.17-.24-.25Z"/>
      <path class="cls-3" d="M122.3,85.75c-.02.18-.04.36-.06.54.02-.18.04-.36.06-.54Z"/>
      <path class="cls-3" d="M103.42,68.75v1.62c.5-.19,1-.35,1.5-.48,0,0,0,0,0,0-.76.19-1.5-.35-1.5-1.13Z"/>
      <path class="cls-3" d="M122.43,81.82c0,.19.02.38.02.57,0-.19-.01-.38-.02-.57Z"/>
      <path class="cls-3" d="M122.17,79.36c.03.18.06.36.09.55-.03-.18-.06-.36-.09-.55Z"/>
      <path class="cls-3" d="M121.61,77.06c.05.17.1.34.15.51-.05-.17-.1-.34-.15-.51Z"/>
      <path class="cls-3" d="M119.61,73.01c.09.13.18.26.26.39-.09-.13-.17-.26-.26-.39Z"/>
      <path class="cls-3" d="M122.33,80.57c.02.18.04.37.05.56-.01-.19-.03-.37-.05-.56Z"/>
      <path class="cls-3" d="M104.43,67.58c-.34.03-.67.05-1.02.09v1.08c0-.59.44-1.09,1.02-1.17Z"/>
      <path class="cls-3" d="M121.93,78.19c.04.17.08.35.12.53-.04-.18-.08-.35-.12-.53Z"/>
      <path class="cls-3" d="M120.22,73.95c.08.14.16.29.24.43-.08-.14-.16-.29-.24-.43Z"/>
      <path class="cls-3" d="M107.66,69.49c.05,0,.11,0,.16,0-.05,0-.11,0-.16,0Z"/>
      <path class="cls-3" d="M120.76,74.93c.08.15.14.31.21.46-.07-.15-.14-.31-.21-.46Z"/>
      <path class="cls-3" d="M122.45,83.09c0,.19,0,.38,0,.57,0-.19,0-.38,0-.57Z"/>
      <path class="cls-3" d="M116.58,72.7s.05.05.08.07c-.03-.02-.05-.05-.08-.07Z"/>
      <path class="cls-3" d="M121.23,75.97c.06.16.12.32.18.49-.06-.16-.12-.33-.18-.49Z"/>
      <path class="cls-3" d="M114.86,69.11c.15.07.3.14.44.21-.14-.08-.3-.14-.44-.21Z"/>
      <path class="cls-3" d="M120.16,78.69c-.01-.05-.02-.11-.04-.16.01.05.02.11.04.16Z"/>
      <path class="cls-3" d="M117.01,94.1c-.01-.23-.01-.47,0-.72-.01.24-.02.48,0,.72Z"/>
      <path class="cls-3" d="M120.38,82.51s0-.09.02-.13c0,.04,0,.09-.02.13Z"/>
      <path class="cls-3" d="M117.02,93.25c.02-.24.05-.48.09-.72-.04.24-.07.48-.09.72Z"/>
      <path class="cls-3" d="M120.39,80.11s0-.07,0-.11c0,.04,0,.07,0,.11Z"/>
      <path class="cls-3" d="M119.75,77.33c-.02-.06-.04-.12-.07-.18.02.06.04.12.07.18Z"/>
      <path class="cls-3" d="M118.48,74.85c-.04-.05-.07-.1-.11-.15.04.05.07.1.11.15Z"/>
      <path class="cls-3" d="M117.12,94.84c-.05-.22-.08-.44-.1-.67.02.23.05.45.1.67Z"/>
      <path class="cls-3" d="M119.19,76.05c-.03-.06-.06-.12-.09-.17.03.06.06.12.09.17Z"/>
      <path class="cls-3" d="M119.69,85.26s.02-.05.02-.07c0,.02-.02.05-.02.07Z"/>
      <path class="cls-3" d="M118.29,88.83c.11-.26.21-.52.32-.79-.11.26-.22.53-.32.79Z"/>
      <path class="cls-3" d="M118.94,87.24c.02-.06.05-.12.07-.18-.02.06-.05.12-.07.18Z"/>
      <path class="cls-3" d="M117.32,91.59c.07-.26.15-.51.23-.77-.08.26-.16.52-.23.77Z"/>
      <path class="cls-3" d="M117.59,90.7c.09-.26.18-.52.28-.78-.1.26-.19.52-.28.78Z"/>
      <path class="cls-3" d="M119.97,84.39s.02-.07.03-.11c-.01.04-.02.07-.03.11Z"/>
      <path class="cls-3" d="M120.21,83.47c.01-.05.02-.1.03-.16-.01.05-.02.1-.03.16Z"/>
      <path class="cls-3" d="M119.33,86.25c.02-.05.04-.1.06-.15-.02.05-.04.1-.06.15Z"/>
      <path class="cls-3" d="M117.14,92.39c.05-.25.1-.51.17-.76-.07.26-.12.51-.17.76Z"/>
      <path class="cls-3" d="M117.63,73.76s-.07-.08-.11-.12c.04.04.07.08.11.12Z"/>
      <path class="cls-3" d="M108.17,67.51c.24.01.47.03.7.05-.23-.02-.46-.03-.7-.05Z"/>
      <path class="cls-3" d="M104.88,67.54c.26-.02.52-.03.78-.04-.26.01-.52.02-.78.04Z"/>
      <path class="cls-3" d="M121.43,90.36c-.03.12-.07.25-.11.37.03-.12.07-.25.11-.37Z"/>
      <path class="cls-3" d="M106.57,67.48c.25,0,.5,0,.74,0-.24,0-.49,0-.74,0Z"/>
      <path class="cls-3" d="M121.03,91.73c-.05.17-.11.34-.17.51.06-.17.12-.34.17-.51Z"/>
      <path class="cls-3" d="M113.68,68.61c.17.06.34.12.51.19-.16-.07-.34-.13-.51-.19Z"/>
      <path class="cls-3" d="M109.68,67.65c.22.03.44.06.65.09-.21-.03-.43-.06-.65-.09Z"/>
      <path class="cls-3" d="M121.82,88.69c-.02.1-.04.2-.06.31.02-.1.04-.2.06-.31Z"/>
      <path class="cls-3" d="M112.43,68.2c.19.05.38.1.56.16-.18-.06-.37-.11-.56-.16Z"/>
      <path class="cls-3" d="M111.1,67.87c.2.04.41.08.61.13-.2-.05-.4-.09-.61-.13Z"/>
      <path class="cls-3" d="M112,70.1c-.06-.02-.12-.04-.18-.06.06.02.12.04.18.06Z"/>
      <path class="cls-3" d="M114.48,71.19s-.06-.03-.08-.05c.03.02.06.03.08.05Z"/>
      <path class="cls-3" d="M120.05,94.48c-.08.2-.16.4-.25.6.08-.2.17-.4.25-.6Z"/>
      <path class="cls-3" d="M113.28,70.58s-.09-.04-.14-.06c.05.02.09.04.14.06Z"/>
      <path class="cls-3" d="M117.35,95.58c-.09-.22-.16-.43-.22-.66.05.22.13.44.22.66Z"/>
      <path class="cls-3" d="M110.65,69.75c-.06-.01-.13-.03-.19-.04.06.01.13.02.19.04Z"/>
      <path class="cls-3" d="M120.57,93.11c-.07.19-.14.38-.21.57.07-.19.14-.38.21-.57Z"/>
      <path class="cls-3" d="M115.58,71.89s0,0,0,0c0,0,0,0,0,0Z"/>
      <path class="cls-3" d="M109.25,69.54c-.06,0-.13-.01-.19-.01.06,0,.13,0,.19.01Z"/>
      <path class="cls-3" d="M106.37,69.6s-.07.01-.11.02c.04,0,.07-.01.11-.02Z"/>
    </g>
    <rect class="cls-10" x="1305" y="30" width="257" height="71"/>
  </g>
</svg>