<?xml version="1.0" encoding="UTF-8"?>
<svg xmlns="http://www.w3.org/2000/svg" viewBox="0 0 1971 181.5">
  <defs>
    <style>
      .cls-1 {
        fill: #fff;
      }

      .cls-2 {
        fill: none;
      }

      .cls-3 {
        fill: #b1b4ab;
        stroke: #999;
        stroke-miterlimit: 10;
      }

      .cls-4 {
        fill: #65605c;
      }

      .cls-5 {
        fill: #ddd;
      }

      .cls-6 {
        font-family: TrebuchetMS-Bold, 'Trebuchet MS';
        font-size: 13.99px;
        font-weight: 700;
      }

      .cls-6, .cls-7 {
        fill: #6b489d;
      }

      .cls-8 {
        fill: #18171c;
      }

      .cls-9 {
        fill: #c6c6c6;
      }
    </style>
  </defs>
  <g id="rack_structure">
    <path class="cls-5" d="M1965.02,5.06h-77.79v172.69h77.79c2.75,0,4.98-2.23,4.98-4.98V10.04c0-2.75-2.23-4.98-4.98-4.98ZM1939,159.25h-21c-7.18,0-13-5.82-13-13s5.82-13,13-13h21c7.18,0,13,5.82,13,13s-5.82,13-13,13ZM1939,104.25h-21c-7.18,0-13-5.82-13-13s5.82-13,13-13h21c7.18,0,13,5.82,13,13s-5.82,13-13,13ZM1939,49.25h-21c-7.18,0-13-5.82-13-13s5.82-13,13-13h21c7.18,0,13,5.82,13,13s-5.82,13-13,13Z"/>
    <path class="cls-5" d="M5.23,10.04v162.73c0,2.75,2.23,4.98,4.98,4.98h77.79s0-172.69,0-172.69H10.21c-2.75,0-4.98,2.23-4.98,4.98ZM23.23,146.25c0-7.18,5.82-13,13-13h21c7.18,0,13,5.82,13,13,0,7.18-5.82,13-13,13h-21c-7.18,0-13-5.82-13-13ZM23.23,91.25c0-7.18,5.82-13,13-13h21c7.18,0,13,5.82,13,13s-5.82,13-13,13h-21c-7.18,0-13-5.82-13-13ZM23.23,36.25c0-7.18,5.82-13,13-13h21c7.18,0,13,5.82,13,13,0,7.18-5.82,13-13,13h-21c-7.18,0-13-5.82-13-13Z"/>
  </g>
  <g id="back">
    <rect class="cls-9" x="79" y="5.5" width="1819" height="172" rx="10" ry="10"/>
    <rect class="cls-5" x="84.46" y="11.5" width="1806.99" height="160" rx="10" ry="10"/>
  </g>
  <g id="link_ports">
    <g>
      <rect class="cls-3" x="102" y="48.5" width="66" height="98"/>
      <g>
        <polygon class="cls-8" points="149 61.5 149 56.5 144 56.5 144 52.5 126 52.5 126 56.5 122 56.5 122 61.5 112 61.5 112 88.5 158 88.5 158 61.5 149 61.5"/>
        <polygon class="cls-8" points="149 133.5 149 138.5 144 138.5 144 142.5 126 142.5 126 138.5 122 138.5 122 133.5 112 133.5 112 106.5 158 106.5 158 133.5 149 133.5"/>
      </g>
    </g>
  </g>
  <g id="console_ports">
    <g>
      <rect class="cls-3" x="1807" y="66.5" width="64" height="83" rx="2" ry="2"/>
      <polygon class="cls-8" points="1853 75.5 1853 70.5 1848 70.5 1848 66.5 1830 66.5 1830 70.5 1826 70.5 1826 75.5 1816 75.5 1816 102.5 1862 102.5 1862 75.5 1853 75.5"/>
      <g>
        <rect class="cls-8" x="1816" y="113.36" width="46" height="30.14"/>
        <rect class="cls-4" x="1816" y="124.5" width="46" height="8"/>
      </g>
    </g>
  </g>
  <g id="uplink_ports">
    <g>
      <rect class="cls-8" x="1660" y="88.5" width="58" height="38"/>
      <rect class="cls-8" x="1722" y="88.5" width="58" height="38"/>
      <rect class="cls-8" x="1660" y="131.5" width="58" height="38"/>
      <rect class="cls-8" x="1722" y="131.5" width="58" height="38"/>
      <rect class="cls-8" x="1660" y="21.5" width="58" height="38"/>
      <rect class="cls-8" x="1722" y="21.5" width="58" height="38"/>
    </g>
  </g>
  <g id="nome_switch">
    <g>
      <text class="cls-6" transform="translate(126.87 33.9)"><tspan x="0" y="0">Alcatel Lucent OS6900T48</tspan></text>
      <g>
        <path class="cls-2" d="M111.74,24.25c.15-.09.33.04.3.21.03-.09.05-.18.07-.27-.07-.07-.2-.04-.37.06Z"/>
        <path class="cls-2" d="M105.54,30.58s0-.03,0-.05c0,.02,0,.03,0,.05Z"/>
        <path class="cls-2" d="M105.57,30.86s0-.03-.01-.05c0,.02,0,.03.01.05Z"/>
        <path class="cls-2" d="M105.55,30.77s0-.03,0-.05c0,.02,0,.03,0,.05Z"/>
        <path class="cls-2" d="M105.54,30.68s0-.03,0-.05c0,.02,0,.03,0,.05Z"/>
        <path class="cls-2" d="M111.62,32.33s0-.04,0-.06c0,.02,0,.04,0,.06Z"/>
        <path class="cls-2" d="M108.31,29.56s.06-.06.09-.1c-.03.03-.06.06-.09.1Z"/>
        <path class="cls-2" d="M105.66,31.03s-.02-.03-.03-.04c0,.01.02.03.03.04Z"/>
        <path class="cls-2" d="M111.13,24.79s.08-.08.12-.12c-.04.04-.08.08-.12.12Z"/>
        <path class="cls-2" d="M105.88,31.26s-.03-.02-.05-.04c.02.01.03.02.05.04Z"/>
        <path class="cls-2" d="M105.79,31.19s-.03-.03-.04-.04c.01.01.03.03.04.04Z"/>
        <path class="cls-2" d="M109.38,27.66c-.18.07-.34-.13-.24-.29-.11.18-.19.32-.22.38.16,0,.31-.03.46-.09Z"/>
        <path class="cls-2" d="M114.77,32.63s-.03.04-.04.05c.01-.02.03-.04.04-.05Z"/>
        <path class="cls-2" d="M105.61,30.95s-.01-.03-.02-.04c0,.02.01.03.02.04Z"/>
        <path class="cls-2" d="M105.68,30.06s.02-.04.03-.06c0,.02-.02.04-.03.06Z"/>
        <path class="cls-2" d="M114.55,32.91s-.03.04-.05.06c.02-.02.04-.04.05-.06Z"/>
        <path class="cls-2" d="M105.64,30.17s.01-.04.02-.06c0,.02-.02.04-.02.06Z"/>
        <path class="cls-2" d="M111.87,33.1s-.02-.02-.03-.03c.01,0,.02.02.03.03Z"/>
        <path class="cls-2" d="M114.7,32.72s-.03.04-.04.05c.01-.02.03-.04.04-.05Z"/>
        <path class="cls-2" d="M105.73,29.95s.02-.04.03-.06c0,.02-.02.04-.03.06Z"/>
        <path class="cls-2" d="M114.62,32.82s-.03.04-.05.05c.02-.02.03-.04.05-.05Z"/>
        <path class="cls-2" d="M112.12,33.1s-.03.01-.05.02c-.02.01-.05.02-.07.02,0,0,.02,0,.03,0,.03-.01.06-.03.1-.04Z"/>
        <path class="cls-2" d="M105.55,30.48s0-.03,0-.05c0,.02,0,.04,0,.05Z"/>
        <path class="cls-2" d="M114.46,33s-.05.05-.07.07c.02-.02.05-.05.07-.07Z"/>
        <path class="cls-2" d="M105.6,30.27s.01-.04.02-.05c0,.02-.01.04-.02.05Z"/>
        <path class="cls-2" d="M105.57,30.38s0-.04.01-.05c0,.02,0,.04-.01.05Z"/>
        <path class="cls-2" d="M105.72,31.11s-.02-.03-.03-.04c.01.01.02.03.03.04Z"/>
        <path class="cls-2" d="M108.14,29.74s-.07.08-.11.12c.04-.04.07-.08.11-.12Z"/>
        <path class="cls-2" d="M116.02,30.54s-.03.09-.05.13c.02-.04.03-.09.05-.13Z"/>
        <path class="cls-2" d="M116.11,30.3s-.03.1-.05.15c.02-.05.03-.1.05-.15Z"/>
        <path class="cls-2" d="M116.18,30.04c-.02.06-.03.11-.05.17.02-.06.03-.11.05-.17Z"/>
        <path class="cls-2" d="M108.88,29.03s-.04.03-.05.04c.02-.01.04-.03.05-.04Z"/>
        <path class="cls-2" d="M107.89,30.03s-.07.09-.11.13c.04-.04.07-.09.11-.13Z"/>
        <path class="cls-2" d="M107.64,30.32s-.08.09-.11.14c.04-.05.08-.09.11-.14Z"/>
        <path class="cls-2" d="M109.22,28.78s-.05.03-.07.05c.02-.02.05-.03.07-.05Z"/>
        <path class="cls-2" d="M115.46,30.62s0,0,0-.01c0,0,0,0,0,.01Z"/>
        <path class="cls-2" d="M115.48,30.75s0,0,0-.01c0,0,0,0,0,.01Z"/>
        <path class="cls-2" d="M115.89,30.87s.03-.07.04-.1c-.01.03-.03.07-.04.1,0,0,0,0,0,0Z"/>
        <path class="cls-2" d="M109.05,28.9s-.04.03-.07.05c.02-.02.04-.03.07-.05Z"/>
        <path class="cls-2" d="M115.52,30.87s0,0,0,0c0,0,0-.01,0-.02,0,0,0,0,0,.01Z"/>
        <path class="cls-2" d="M116.36,29.07s0,.09-.01.13c0-.04,0-.09.01-.13Z"/>
        <path class="cls-2" d="M116.37,28.85s0,.08,0,.12c0-.04,0-.08,0-.12Z"/>
        <path class="cls-2" d="M106.41,31.5s-.06-.02-.08-.03c.03,0,.06.02.08.03Z"/>
        <path class="cls-2" d="M106.53,31.53s0,0,0,0c-.01,0-.03,0-.04,0,.01,0,.02,0,.03,0Z"/>
        <path class="cls-2" d="M105.99,31.33s-.04-.02-.06-.03c.02.01.04.02.06.03Z"/>
        <path class="cls-2" d="M106.25,31.44s-.05-.02-.07-.03c.02,0,.05.02.07.03Z"/>
        <path class="cls-2" d="M112.46,32.98s.08-.03.12-.04c-.04.01-.08.03-.12.04Z"/>
        <path class="cls-2" d="M106.73,31.46s.07-.08.1-.12c-.03.04-.07.09-.11.13,0,0,0,0,0,0Z"/>
        <path class="cls-2" d="M109.42,28.64s-.06.04-.1.07c.03-.02.06-.04.1-.07Z"/>
        <path class="cls-2" d="M116.3,29.52c-.01.06-.02.12-.03.18.01-.06.02-.12.03-.18Z"/>
        <path class="cls-2" d="M116.26,29.75c-.02.08-.04.15-.06.23.02-.08.04-.15.06-.23Z"/>
        <path class="cls-2" d="M116.34,29.3s-.01.1-.02.14c0-.05.02-.1.02-.14Z"/>
        <path class="cls-2" d="M107.09,31.01c-.05.06-.1.12-.15.19.05-.06.1-.12.15-.19Z"/>
        <path class="cls-2" d="M107.4,30.62c-.05.07-.11.14-.17.21.06-.07.11-.14.17-.21Z"/>
        <path class="cls-2" d="M111.62,32.41s0,.04,0,.06c0-.02,0-.04,0-.06Z"/>
        <path class="cls-2" d="M105.79,29.84s.02-.04.03-.06c-.01.02-.02.04-.03.06Z"/>
        <path class="cls-2" d="M113.8,32.18s.08-.07.12-.1c-.04.03-.08.07-.12.1Z"/>
        <path class="cls-2" d="M113.66,32.3s.03-.03.05-.04c-.02.01-.03.03-.05.04Z"/>
        <path class="cls-2" d="M111.63,32.54s0,.04,0,.06c0-.02,0-.04,0-.06Z"/>
        <path class="cls-2" d="M113.53,32.41s0,0,0,0c0,0,0,0,0,0Z"/>
        <path class="cls-2" d="M114.3,31.76s.06-.05.09-.08c-.03.02-.06.05-.09.08Z"/>
        <path class="cls-2" d="M111.65,32.68s0,.04.01.06c0-.02,0-.04-.01-.06Z"/>
        <path class="cls-2" d="M111.64,31.71s0,.03,0,.05c0-.02,0-.03,0-.05Z"/>
        <path class="cls-2" d="M113.98,32.03s.1-.08.14-.12c-.05.04-.1.08-.14.12Z"/>
        <path class="cls-2" d="M111.63,31.84s0,.04,0,.05c0-.02,0-.04,0-.05Z"/>
        <path class="cls-2" d="M111.62,31.98s0,.04,0,.06c0-.02,0-.04,0-.06Z"/>
        <path class="cls-2" d="M114.44,31.65s.06-.05.09-.07c-.03.02-.06.05-.09.07Z"/>
        <path class="cls-2" d="M114.13,31.91s.09-.07.13-.11c-.04.04-.09.07-.13.11Z"/>
        <path class="cls-2" d="M113.38,32.53s.02-.02.03-.03c-.01,0-.02.02-.03.03Z"/>
        <path class="cls-2" d="M112.96,32.8s.03-.01.05-.02c-.01,0-.03.01-.05.02Z"/>
        <path class="cls-2" d="M112.81,32.85s.04-.01.06-.02c-.02,0-.04.01-.06.02Z"/>
        <path class="cls-2" d="M111.91,33.12s.03.01.04.01c-.01,0-.03,0-.04-.01Z"/>
        <path class="cls-2" d="M112.32,33.03s.06-.02.08-.03c-.03,0-.06.02-.08.03Z"/>
        <path class="cls-2" d="M112.66,32.91s.05-.02.07-.02c-.02,0-.05.02-.07.02Z"/>
        <path class="cls-2" d="M112.18,33.08s.05-.02.08-.03c-.03,0-.05.02-.08.03Z"/>
        <path class="cls-2" d="M111.68,32.8s.01.04.02.05c0-.02-.01-.03-.02-.05Z"/>
        <path class="cls-2" d="M113.28,32.61s.02-.02.03-.03c-.01,0-.02.02-.03.03Z"/>
        <path class="cls-2" d="M113.19,32.68s.02-.01.03-.02c0,0-.02.01-.03.02Z"/>
        <path class="cls-2" d="M111.72,32.91s.01.03.02.05c0-.01-.02-.03-.02-.05Z"/>
        <path class="cls-2" d="M111.77,33s.02.02.03.04c0-.01-.02-.02-.03-.04Z"/>
        <path class="cls-2" d="M111.62,32.12s0,.04,0,.06c0-.02,0-.04,0-.06Z"/>
        <path class="cls-2" d="M106.2,29.16s.03-.05.05-.07c-.02.02-.03.05-.05.07Z"/>
        <path class="cls-2" d="M114.99,32.24s-.02.04-.02.05c0-.02.02-.04.02-.05Z"/>
        <path class="cls-2" d="M105.98,29.5s.03-.04.04-.06c-.01.02-.03.04-.04.06Z"/>
        <path class="cls-2" d="M115.02,32.14s-.01.04-.02.06c0-.02.01-.04.02-.06Z"/>
        <path class="cls-2" d="M115.06,32.04s-.01.04-.02.06c0-.02.01-.04.02-.06Z"/>
        <path class="cls-2" d="M106.13,29.28s.03-.04.04-.06c-.01.02-.03.04-.04.06Z"/>
        <path class="cls-2" d="M106.06,29.39s.03-.04.04-.06c-.01.02-.03.04-.04.06Z"/>
        <path class="cls-2" d="M105.85,29.73s.02-.04.03-.06c-.01.02-.02.04-.03.06Z"/>
        <path class="cls-2" d="M114.94,32.34s-.02.04-.03.05c0-.02.02-.04.03-.05Z"/>
        <path class="cls-2" d="M114.83,32.53s-.02.04-.03.05c.01-.02.02-.04.03-.05Z"/>
        <path class="cls-2" d="M114.89,32.44s-.02.04-.03.05c.01-.02.02-.04.03-.05Z"/>
        <path class="cls-2" d="M105.92,29.62s.02-.04.04-.06c-.01.02-.02.04-.04.06Z"/>
        <path class="cls-2" d="M106.55,28.65s.02-.02.02-.03c0,.01-.02.02-.02.03Z"/>
        <path class="cls-2" d="M115.09,31.61s0,.05,0,.07c0-.02,0-.05,0-.07Z"/>
        <path class="cls-2" d="M114.77,31.41s-.05.03-.08.05c.03-.02.06-.04.08-.06,0,0,0,0,0,0Z"/>
        <path class="cls-2" d="M111.65,31.6s0,.03,0,.04c0-.01,0-.03,0-.04Z"/>
        <path class="cls-2" d="M115.07,31.53s0,0,0,0c0,.02,0,.04.01.05,0-.02,0-.03,0-.05Z"/>
        <path class="cls-2" d="M111.67,31.42s0,.06,0,.1c0-.04,0-.07,0-.1Z"/>
        <path class="cls-2" d="M114.57,31.55s.08-.06.11-.09c-.04.03-.07.05-.11.09Z"/>
        <path class="cls-2" d="M106.47,28.77s.02-.03.03-.04c0,.01-.02.03-.03.04Z"/>
        <path class="cls-2" d="M115.09,31.83s0,.05,0,.08c0-.03,0-.05,0-.08Z"/>
        <path class="cls-2" d="M106.28,29.05s.03-.05.05-.08c-.02.03-.03.05-.05.08Z"/>
        <path class="cls-2" d="M115.1,31.71s0,.06,0,.1c0-.03,0-.06,0-.1Z"/>
        <path class="cls-2" d="M115.08,31.94s0,.04-.01.06c0-.02,0-.04.01-.06Z"/>
        <path class="cls-2" d="M106.4,28.88s.02-.03.03-.04c0,.01-.02.03-.03.04Z"/>
        <path class="cls-2" d="M106.11,31.39s-.04-.02-.07-.03c.02.01.04.02.07.03Z"/>
        <path class="cls-2" d="M115.17,26.44s.08.04.11.07c-.04-.02-.07-.04-.11-.07Z"/>
        <path class="cls-2" d="M111.76,25.4c.02-.08.05-.16.07-.24-.02.08-.05.16-.07.24Z"/>
        <path class="cls-2" d="M115.34,26.54s.09.06.14.1c-.04-.03-.09-.07-.14-.1Z"/>
        <path class="cls-2" d="M111.92,24.87c.02-.08.05-.16.07-.24-.02.08-.05.16-.07.24Z"/>
        <path class="cls-2" d="M114.98,26.35s.08.03.11.05c-.04-.02-.07-.04-.11-.05Z"/>
        <path class="cls-2" d="M111.58,25.94c.03-.08.05-.16.08-.24-.03.08-.05.16-.08.24Z"/>
        <path class="cls-2" d="M110.98,27.83c.03-.11.07-.23.1-.34-.04.11-.07.23-.1.34Z"/>
        <path class="cls-2" d="M115.94,27.13s.04.06.06.09c-.02-.03-.04-.06-.06-.09Z"/>
        <path class="cls-2" d="M115.82,26.97s.05.06.07.09c-.02-.03-.05-.06-.07-.09Z"/>
        <path class="cls-2" d="M111.71,24.27s-.06.04-.1.07c.03-.03.07-.05.1-.07Z"/>
        <path class="cls-2" d="M115.5,26.65c.05.04.1.08.14.13-.05-.04-.09-.09-.14-.13Z"/>
        <path class="cls-2" d="M115.69,26.82s.06.06.09.09c-.03-.03-.06-.06-.09-.09Z"/>
        <path class="cls-2" d="M111.34,26.69c.04-.12.08-.24.11-.35-.04.12-.08.24-.11.35Z"/>
        <path class="cls-2" d="M111.16,27.26c.03-.1.06-.21.1-.31-.03.1-.07.21-.1.31Z"/>
        <path class="cls-2" d="M113.82,26.13s.1,0,.14,0c-.05,0-.1,0-.14,0Z"/>
        <path class="cls-2" d="M114.09,26.14s.09,0,.14.01c-.04,0-.09-.01-.14-.01Z"/>
        <path class="cls-2" d="M110.9,25.04c-.04.05-.09.1-.14.15.05-.05.09-.1.14-.15Z"/>
        <path class="cls-2" d="M110.72,25.25c-.05.05-.09.11-.14.16.05-.06.09-.11.14-.16Z"/>
        <path class="cls-2" d="M113.55,26.13c.05,0,.1,0,.15,0-.05,0-.1,0-.15,0Z"/>
        <path class="cls-2" d="M110.55,25.45c-.06.07-.11.13-.16.2.05-.07.11-.14.16-.2Z"/>
        <path class="cls-2" d="M114.56,26.22s.08.02.12.03c-.04-.01-.08-.02-.12-.03Z"/>
        <path class="cls-2" d="M111.09,24.83c-.05.06-.1.11-.16.17.05-.06.11-.12.16-.17Z"/>
        <path class="cls-2" d="M113.35,26.14s0,0-.01,0c.02,0,.05,0,.08,0-.02,0-.04,0-.06,0Z"/>
        <path class="cls-2" d="M114.78,26.28s.08.03.12.04c-.04-.01-.08-.03-.12-.04Z"/>
        <path class="cls-2" d="M111.44,24.49s-.1.09-.15.14c.05-.05.1-.1.15-.14Z"/>
        <path class="cls-2" d="M114.33,26.17s.09.02.13.02c-.04,0-.09-.02-.13-.02Z"/>
        <path class="cls-2" d="M111.58,24.37s-.09.07-.13.11c.05-.04.09-.08.13-.11Z"/>
        <path class="cls-2" d="M113.98,33.47s-.03.03-.05.04c.02-.01.03-.03.05-.04Z"/>
        <path class="cls-2" d="M113.91,26.47c.07,0,.14,0,.21,0-.07,0-.14,0-.21,0Z"/>
        <path class="cls-2" d="M114.08,33.39s-.04.03-.05.05c.02-.02.04-.03.05-.05Z"/>
        <path class="cls-2" d="M113.89,33.55s-.03.03-.05.04c.02-.01.03-.03.05-.04Z"/>
        <path class="cls-2" d="M113.8,33.62s-.03.03-.05.04c.02-.01.03-.03.05-.04Z"/>
        <path class="cls-2" d="M113.7,33.69s-.03.03-.05.04c.02-.01.03-.03.05-.04Z"/>
        <path class="cls-2" d="M115.4,27.02c.05.05.1.1.15.15-.05-.05-.09-.1-.15-.15Z"/>
        <path class="cls-2" d="M116.36,28.43s0,.08,0,.12c0-.04,0-.08,0-.12Z"/>
        <path class="cls-2" d="M116.37,28.64s0,.08,0,.12c0-.04,0-.08,0-.12Z"/>
        <path class="cls-2" d="M114.38,33.09s-.06.06-.09.09c.03-.03.06-.06.09-.09Z"/>
        <path class="cls-2" d="M114.17,33.3s-.04.03-.06.05c.02-.02.04-.03.06-.05Z"/>
        <path class="cls-2" d="M114.27,33.21s-.04.04-.06.06c.02-.02.04-.04.06-.06Z"/>
        <path class="cls-2" d="M116.26,27.83s.02.07.03.1c0-.04-.02-.07-.03-.1Z"/>
        <path class="cls-2" d="M113.27,33.99s-.04.02-.05.03c.02-.01.03-.02.05-.03Z"/>
        <path class="cls-2" d="M116.2,27.64s.02.07.03.1c-.01-.03-.02-.07-.03-.1Z"/>
        <path class="cls-2" d="M116.12,27.46s.03.06.04.1c-.01-.03-.03-.07-.04-.1Z"/>
        <path class="cls-2" d="M116.04,27.29s.03.06.05.09c-.02-.03-.03-.06-.05-.09Z"/>
        <path class="cls-2" d="M113.35,33.94s-.03.02-.05.03c.02-.01.03-.02.05-.03Z"/>
        <path class="cls-2" d="M113.2,34.04s-.05.03-.07.04c.02-.01.05-.03.07-.04Z"/>
        <path class="cls-2" d="M113.44,33.88s-.03.02-.05.03c.02-.01.03-.02.05-.03Z"/>
        <path class="cls-2" d="M110.78,28.56c.05-.18.09-.36.14-.54-.05.18-.1.36-.14.54Z"/>
        <path class="cls-2" d="M113.52,33.82s-.03.02-.05.03c.02-.01.03-.02.05-.03Z"/>
        <path class="cls-2" d="M116.34,28.22s0,.07.01.11c0-.04,0-.08-.01-.11Z"/>
        <path class="cls-2" d="M113.61,33.76s-.03.02-.05.04c.02-.01.03-.02.05-.04Z"/>
        <path class="cls-2" d="M116.3,28.02s.01.07.02.11c0-.04-.01-.07-.02-.11Z"/>
        <path class="cls-2" d="M109.39,27.66s.09-.04.13-.06c-.04.02-.09.04-.13.06Z"/>
        <path class="cls-2" d="M115.86,29.26s.03-.09.05-.14c-.02.05-.03.09-.05.14Z"/>
        <path class="cls-2" d="M110.58,27.66s-.04.06-.07.09c.02-.03.04-.06.07-.09Z"/>
        <path class="cls-2" d="M115.91,29.11s.03-.09.04-.14c-.01.05-.03.09-.04.14Z"/>
        <path class="cls-2" d="M115.79,29.43s.04-.09.05-.14c-.02.05-.04.09-.05.14Z"/>
        <path class="cls-2" d="M110.77,27.24s0-.02,0-.03c0,.02,0,.04-.01.06,0-.01,0-.02.01-.03Z"/>
        <path class="cls-2" d="M110.67,27.5s-.03.06-.05.09c.02-.03.04-.06.05-.09Z"/>
        <path class="cls-2" d="M110.74,27.34s-.02.06-.04.1c.01-.03.03-.06.04-.1Z"/>
        <path class="cls-2" d="M116.03,28.64s0-.09.01-.14c0,.05,0,.09-.01.14Z"/>
        <path class="cls-2" d="M110.34,27.09s.03-.01.04-.02c-.01,0-.03.01-.04.02Z"/>
        <path class="cls-2" d="M116.04,28.5c0-.08,0-.16-.01-.24,0,.08.01.16.01.24Z"/>
        <path class="cls-2" d="M115.96,28.96s.02-.09.03-.14c-.01.05-.02.09-.03.14Z"/>
        <path class="cls-2" d="M110.5,27.02s-.01,0-.02.01c.01,0,.02,0,.03-.01,0,0,0,0,0,0Z"/>
        <path class="cls-2" d="M116,28.79s.02-.09.02-.13c0,.04-.01.09-.02.13Z"/>
        <path class="cls-2" d="M110.34,27.94s-.07.07-.11.1c.04-.03.07-.07.11-.1Z"/>
        <path class="cls-2" d="M109.82,28.36s-.07.05-.1.07c.04-.02.07-.05.1-.07Z"/>
        <path class="cls-2" d="M115.73,29.59s.04-.09.06-.14c-.02.05-.04.09-.06.14Z"/>
        <path class="cls-2" d="M110.01,28.23s-.08.06-.12.09c.04-.03.08-.06.12-.09Z"/>
        <path class="cls-2" d="M109.64,28.49s-.07.05-.1.07c.03-.02.07-.05.1-.07Z"/>
        <path class="cls-2" d="M115.55,30.06s0-.01,0-.02c0,0,0,.01,0,.02Z"/>
        <path class="cls-2" d="M115.47,30.35s0-.01,0-.02c0,0,0,.01,0,.02Z"/>
        <path class="cls-2" d="M115.51,30.2s0,0,0,0c0,0,0,0,0,0Z"/>
        <path class="cls-2" d="M110.2,28.07s-.1.08-.15.13c.05-.04.1-.08.15-.13Z"/>
        <path class="cls-2" d="M115.66,29.75s0-.02,0-.02c0,0,0,.02,0,.02Z"/>
        <path class="cls-2" d="M110.46,27.8s-.05.06-.08.09c.03-.03.05-.06.08-.09Z"/>
        <path class="cls-2" d="M115.6,29.91s0-.02,0-.03c0,0,0,.02,0,.03Z"/>
        <path class="cls-2" d="M110.21,27.17s0,0,0,0c0,0,0,0,0,0Z"/>
        <path class="cls-2" d="M113.88,26.47c-.07,0-.14,0-.22.02.07,0,.14-.02.22-.02Z"/>
        <path class="cls-2" d="M109.66,26.61c-.05.07-.09.13-.14.19.04-.06.09-.13.14-.19Z"/>
        <path class="cls-2" d="M109.81,26.4c-.04.05-.08.1-.11.15.04-.05.07-.1.11-.15Z"/>
        <path class="cls-2" d="M114.58,26.56c-.06-.02-.13-.04-.2-.05.07.01.13.03.2.05Z"/>
        <path class="cls-2" d="M114.81,26.64c-.06-.03-.13-.05-.19-.07.07.02.13.04.19.07Z"/>
        <path class="cls-2" d="M109.36,27.04s-.07.1-.1.14c.03-.05.06-.09.1-.14Z"/>
        <path class="cls-2" d="M115.02,26.75c-.06-.03-.12-.06-.19-.09.06.03.13.06.19.09Z"/>
        <path class="cls-2" d="M109.5,26.83c-.04.05-.07.1-.11.15.03-.05.07-.1.11-.15Z"/>
        <path class="cls-2" d="M110.34,25.71c-.04.05-.08.11-.13.16.04-.05.08-.11.13-.16Z"/>
        <path class="cls-2" d="M113.65,26.49c-.08.01-.15.03-.23.04.08-.02.15-.03.23-.04Z"/>
        <path class="cls-2" d="M116.02,28.24c0-.08-.02-.15-.04-.22.02.07.03.14.04.22Z"/>
        <path class="cls-2" d="M114.35,26.51c-.07-.01-.13-.02-.2-.03.07,0,.14.02.2.03Z"/>
        <path class="cls-2" d="M110.17,25.93c-.11.14-.21.28-.32.42.1-.14.21-.28.32-.42Z"/>
        <path class="cls-2" d="M115.91,27.76c-.02-.06-.05-.13-.08-.19.03.06.06.12.08.19Z"/>
        <path class="cls-2" d="M109.7,27.49s.06-.03.08-.05c-.03.02-.06.04-.08.05Z"/>
        <path class="cls-2" d="M109.84,27.41s.06-.04.09-.06c-.03.02-.06.04-.09.06Z"/>
        <path class="cls-2" d="M110.03,27.28s.04-.02.05-.03c-.02.01-.04.02-.05.03Z"/>
        <path class="cls-2" d="M115.98,27.99c-.02-.07-.04-.14-.06-.2.02.07.04.13.06.2Z"/>
        <path class="cls-2" d="M115.81,27.54c-.03-.06-.07-.12-.1-.17.04.06.07.11.1.17Z"/>
        <path class="cls-2" d="M109.55,27.58s.07-.04.1-.06c-.03.02-.07.04-.1.06Z"/>
        <path class="cls-2" d="M109.25,27.21c-.04.05-.07.1-.1.15.03-.05.06-.1.1-.15Z"/>
        <path class="cls-2" d="M115.38,27.01c-.05-.05-.11-.09-.17-.14.06.04.11.09.17.14Z"/>
        <path class="cls-2" d="M115.46,30.49s0-.02,0-.02c0,0,0,.02,0,.02Z"/>
        <path class="cls-2" d="M115.69,27.35c-.04-.06-.08-.11-.12-.16.04.05.09.1.12.16Z"/>
        <path class="cls-2" d="M115.21,26.87c-.06-.04-.12-.08-.18-.12.06.04.12.08.18.12Z"/>
        <path class="cls-7" d="M111.5,21c-4.69,0-8.5,3.81-8.5,8.5s3.81,8.5,8.5,8.5,8.5-3.81,8.5-8.5-3.81-8.5-8.5-8.5ZM114.29,33.18s-.02.02-.03.03c-.02.02-.04.04-.06.06-.01.01-.02.02-.04.03-.02.02-.04.03-.06.05-.01.01-.03.02-.04.03-.02.02-.04.03-.05.05-.01.01-.03.02-.04.03-.02.01-.03.03-.05.04-.01.01-.03.02-.04.03-.02.01-.03.03-.05.04-.01.01-.03.02-.04.03-.02.01-.03.03-.05.04-.01.01-.03.02-.04.03-.02.01-.03.03-.05.04-.01.01-.03.02-.04.03-.02.01-.03.02-.05.04-.01,0-.03.02-.04.03-.02.01-.03.02-.05.03-.01,0-.03.02-.04.03-.02.01-.03.02-.05.03-.01,0-.02.02-.03.02-.02.01-.03.02-.05.03-.01,0-.02.01-.03.02-.02.01-.04.02-.05.03,0,0-.02.01-.03.02-.02.02-.05.03-.07.04-4.41,2.53-2.92-3.21-2.34-5.53.05-.18.09-.36.14-.54.02-.06.04-.13.06-.19.03-.11.07-.23.1-.34.02-.08.05-.15.07-.23.03-.1.06-.21.1-.31.03-.09.06-.18.09-.27.04-.12.08-.24.11-.35.04-.13.08-.26.13-.39.03-.08.05-.16.08-.24.03-.1.07-.2.1-.31.02-.08.05-.16.07-.24.03-.1.06-.2.09-.3.02-.08.05-.16.07-.24.02-.05.03-.11.04-.16.03-.17-.15-.3-.3-.21,0,0-.02.01-.03.02-.03.02-.06.04-.1.07-.01,0-.02.02-.04.03-.04.04-.09.07-.13.11,0,0,0,0,0,0-.05.04-.1.09-.15.14-.01.01-.03.03-.04.04-.04.04-.08.08-.12.12-.01.01-.03.03-.04.04-.05.06-.1.11-.16.17-.01.01-.02.02-.03.03-.04.05-.09.1-.14.15-.02.02-.03.04-.05.06-.05.05-.09.11-.14.16-.01.01-.02.02-.03.04-.06.07-.11.13-.16.2-.01.02-.03.04-.04.05-.04.05-.08.11-.13.16-.02.02-.03.04-.05.06-.11.14-.21.28-.32.42-.01.02-.03.04-.04.06-.04.05-.08.1-.11.15-.01.02-.03.03-.04.05-.05.07-.09.13-.14.19,0,.01-.02.02-.02.03-.04.05-.07.1-.11.15-.01.02-.02.03-.04.05-.03.05-.07.1-.1.14,0,0-.01.02-.02.03-.04.05-.07.1-.1.15,0,0,0,0,0,.01-.1.16.06.36.24.29,0,0,0,0,.01,0,.04-.02.09-.04.13-.06,0,0,.02-.01.03-.02.03-.02.07-.04.1-.06.02,0,.03-.02.05-.03.03-.02.06-.03.08-.05.02-.01.04-.02.05-.03.03-.02.06-.04.09-.06.03-.02.07-.04.1-.06.02-.01.04-.02.05-.03.04-.03.09-.06.13-.08,0,0,0,0,0,0,.04-.02.08-.05.12-.07.01,0,.03-.01.04-.02.03-.02.06-.03.09-.04,0,0,.01,0,.02-.01,0,0,0,0,0,0,.1-.04.2-.08.31-.09,0,.1-.01.2-.04.3,0,0,0,.02,0,.03,0,.01,0,.02-.01.03,0,.02-.02.05-.02.07-.01.03-.02.06-.04.1-.01.02-.02.04-.03.07-.02.03-.03.06-.05.09-.01.02-.03.04-.04.06-.02.03-.04.06-.07.09-.02.02-.03.04-.05.06-.03.03-.05.06-.08.09-.02.02-.03.03-.05.05-.03.03-.07.07-.11.1-.01.01-.02.02-.03.03-.05.04-.1.08-.15.13-.01.01-.03.02-.04.03-.04.03-.08.06-.12.09-.02.02-.04.03-.06.05-.03.02-.07.05-.1.07-.02.02-.05.03-.07.05-.03.02-.07.05-.1.07-.04.03-.08.06-.12.08-.03.02-.06.04-.1.07-.03.02-.07.05-.1.07-.02.02-.05.03-.07.05-.03.02-.07.05-.1.07-.02.02-.04.03-.07.05-.03.03-.07.05-.1.08-.02.01-.04.03-.05.04-.05.04-.1.08-.14.12-.1.09-.19.18-.28.27-.03.03-.06.06-.09.1-.06.06-.12.12-.17.18-.04.04-.07.08-.11.12-.05.06-.1.11-.15.17-.04.04-.07.09-.11.13-.05.05-.09.11-.14.16-.04.05-.08.09-.11.14-.04.05-.09.11-.13.16-.06.07-.11.14-.17.21-.05.06-.1.12-.14.18-.05.06-.1.12-.15.19-.04.05-.07.09-.11.14-.03.04-.07.08-.1.12,0,0,0,0,0,0-.03.03-.05.06-.07.09-.04,0-.07-.02-.11-.03,0,0,0,0,0,0-.01,0-.02,0-.03,0-.03,0-.06-.02-.08-.02-.03,0-.06-.02-.08-.03-.03,0-.05-.02-.07-.03-.03,0-.05-.02-.07-.03-.02,0-.04-.02-.07-.03-.02-.01-.04-.02-.07-.03-.02,0-.04-.02-.06-.03-.02-.01-.04-.02-.06-.03-.02-.01-.03-.02-.05-.03-.02-.01-.03-.02-.05-.04-.01-.01-.03-.02-.04-.04-.01-.01-.03-.03-.04-.04-.01-.01-.02-.02-.03-.04-.01-.01-.02-.03-.03-.04,0-.01-.02-.03-.03-.04,0-.01-.02-.03-.03-.04,0-.01-.01-.03-.02-.04,0-.01-.01-.03-.02-.04,0-.01-.01-.03-.02-.04,0-.02,0-.03-.01-.05,0-.01,0-.03,0-.04,0-.02,0-.03,0-.05,0-.02,0-.03,0-.05,0-.02,0-.03,0-.05,0-.02,0-.03,0-.05,0-.02,0-.03,0-.05,0-.02,0-.03,0-.05,0-.02,0-.03,0-.05,0-.02,0-.03.01-.05,0-.02,0-.04.01-.05,0-.02,0-.03.01-.05,0-.02.01-.04.02-.05,0-.02.01-.03.02-.05,0-.02.01-.04.02-.06,0-.02.01-.03.02-.05,0-.02.02-.04.03-.06,0-.02.02-.04.02-.05,0-.02.02-.04.03-.06,0-.02.02-.04.03-.05.01-.02.02-.04.03-.06,0-.02.02-.04.03-.05.01-.02.02-.04.03-.06.01-.02.02-.04.03-.05.01-.02.02-.04.04-.06.01-.02.02-.03.03-.05.01-.02.03-.04.04-.06.01-.02.02-.04.03-.05.01-.02.03-.04.04-.06.01-.02.02-.04.04-.05.01-.02.03-.04.04-.06.01-.02.02-.03.03-.05.02-.02.03-.05.05-.07.01-.02.02-.03.03-.05.02-.03.03-.05.05-.08.02-.03.04-.07.07-.1,0-.01.02-.03.03-.04.02-.02.03-.05.05-.07,0-.01.02-.03.03-.04.02-.02.03-.05.05-.07,0-.01.02-.02.02-.03.02-.04.05-.07.07-.11.83-1.32,3.09-4.48,4.42-5.14.64-.32,1.98-.36,2.23.47.22.75-.92,3.99-1.14,5.02-.16.74-.41,1.85-.48,2.56,0,.03,0,.06,0,.1,0,.03,0,.05,0,.08,0,.01,0,.03,0,.04,0,.02,0,.05,0,.08,0,.02,0,.03,0,.05,0,.03,0,.05,0,.08,0,.02,0,.04,0,.05,0,.03,0,.05,0,.08,0,.02,0,.04,0,.06,0,.03,0,.05,0,.08,0,.02,0,.04,0,.06,0,.03,0,.05,0,.08,0,.02,0,.04,0,.06,0,.03,0,.05,0,.08,0,.02,0,.04,0,.06,0,.03,0,.05,0,.08,0,.02,0,.04,0,.06,0,.02,0,.05.01.07,0,.02,0,.04.01.06,0,.02,0,.04.02.06,0,.02.01.04.02.05,0,.02.01.04.02.06,0,.02.01.03.02.05,0,.02.02.03.03.05,0,.01.02.02.03.04.01.01.02.02.03.04.01,0,.02.02.03.03.01,0,.03.02.04.02.01,0,.03.01.04.01.01,0,.03,0,.05,0,.03,0,.05,0,.07-.02.02,0,.03-.01.05-.02.02,0,.04-.02.06-.02.02,0,.05-.02.08-.03.02,0,.04-.02.06-.02.03,0,.06-.02.08-.03.02,0,.04-.01.06-.02.04-.01.08-.03.12-.04.03,0,.05-.02.08-.03.02,0,.05-.02.07-.02.03,0,.05-.02.08-.03.02,0,.04-.01.06-.02.03-.01.06-.02.09-.04.02,0,.03-.01.05-.02.04-.02.08-.04.12-.06.02-.01.04-.02.07-.04,0,0,.02-.01.03-.02.02-.01.04-.03.06-.04.01,0,.02-.02.03-.03.02-.02.05-.04.07-.06.01,0,.02-.02.03-.03.04-.03.08-.06.12-.09,0,0,0,0,0,0,.04-.03.08-.07.13-.11.02-.01.03-.03.05-.04.03-.03.06-.05.09-.08.04-.03.08-.07.12-.1.02-.02.04-.03.06-.05.05-.04.1-.08.14-.12,0,0,0,0,0,0,.04-.04.09-.07.13-.11.01-.01.03-.02.04-.03.03-.03.06-.05.09-.08.01-.01.03-.02.04-.04.03-.02.06-.05.09-.07.01,0,.03-.02.04-.03.04-.03.08-.06.11-.09,0,0,0,0,0,0,.03-.02.05-.04.08-.05,0,0,0,0,0,0,.11-.07.19-.11.22-.08.04.07.06.13.08.2,0,0,0,0,0,0,0,.02,0,.03,0,.05,0,.01,0,.02,0,.04,0,.02,0,.05,0,.07,0,0,0,.02,0,.03,0,.03,0,.06,0,.1,0,0,0,.01,0,.02,0,.03,0,.05,0,.08,0,.01,0,.02,0,.04,0,.02,0,.04-.01.06,0,.01,0,.03-.01.04,0,.02-.01.04-.02.06,0,.01,0,.03-.01.04,0,.02-.01.04-.02.06,0,.01-.01.03-.02.04,0,.02-.02.04-.02.05,0,.01-.01.03-.02.04,0,.02-.02.04-.03.05,0,.01-.02.03-.02.04-.01.02-.02.04-.03.05,0,.01-.02.03-.03.04-.01.02-.02.04-.03.05,0,.01-.02.03-.03.04-.01.02-.03.04-.04.05-.01.01-.02.03-.03.04-.01.02-.03.04-.04.05-.01.01-.02.03-.03.04-.01.02-.03.04-.05.05-.01.01-.02.03-.03.04-.02.02-.03.04-.05.06,0,.01-.02.02-.03.03-.02.02-.05.05-.07.07,0,0-.01.01-.02.02-.03.03-.06.06-.09.09ZM116.37,28.85s0,.08,0,.12c0,.03,0,.06,0,.1,0,.04,0,.09-.01.13,0,.03,0,.06-.01.09,0,.05-.01.1-.02.14,0,.03,0,.05-.01.08-.01.06-.02.12-.03.18,0,.02,0,.03-.01.05-.02.08-.04.15-.06.23,0,.02-.01.04-.02.06-.02.06-.03.11-.05.17,0,.03-.02.06-.03.09-.02.05-.03.1-.05.15-.01.03-.02.06-.04.1-.02.05-.03.09-.05.13-.01.03-.03.07-.04.1-.01.03-.03.07-.04.1,0,0,0,0,0,0-.04.1-.09.2-.14.29-.11-.09-.18-.19-.23-.29,0,0,0,0,0,0,0,0,0,0,0-.01-.02-.04-.03-.07-.04-.11,0,0,0,0,0-.01,0-.04-.01-.07-.02-.11,0,0,0,0,0-.01,0-.04,0-.08,0-.12,0,0,0-.02,0-.02,0-.04,0-.08.02-.12,0,0,0-.01,0-.02,0-.04.02-.09.03-.13,0,0,0,0,0,0,.01-.04.02-.09.04-.13,0,0,0-.01,0-.02.01-.04.03-.09.05-.13,0,0,0-.02,0-.03.02-.04.03-.09.05-.13,0,0,0-.02,0-.02.02-.04.04-.09.05-.13.02-.05.04-.09.06-.14,0,0,0-.02.01-.03.02-.05.04-.09.05-.14,0,0,0-.02,0-.03.02-.05.03-.09.05-.14,0,0,0,0,0-.01.02-.05.03-.09.04-.14,0,0,0-.01,0-.02.01-.05.02-.09.03-.14,0,0,0-.02,0-.03,0-.05.02-.09.02-.13,0,0,0-.01,0-.02,0-.05,0-.09.01-.14,0-.08,0-.16-.01-.24,0,0,0-.01,0-.02,0-.08-.02-.15-.04-.22,0,0,0-.02,0-.03-.02-.07-.04-.14-.06-.2,0-.01,0-.02-.01-.03-.02-.06-.05-.13-.08-.19,0,0-.01-.02-.02-.03-.03-.06-.07-.12-.1-.17,0,0-.01-.02-.02-.03-.04-.06-.08-.11-.12-.16,0,0-.01-.01-.02-.02-.05-.05-.09-.1-.15-.15,0,0,0,0-.01-.01-.05-.05-.11-.09-.17-.14,0,0,0,0,0,0-.06-.04-.12-.08-.18-.12,0,0,0,0-.01,0-.06-.03-.12-.06-.19-.09,0,0-.02,0-.02-.01-.06-.03-.13-.05-.19-.07,0,0-.02,0-.03,0-.06-.02-.13-.04-.2-.05-.01,0-.02,0-.03,0-.07-.01-.13-.02-.2-.03-.01,0-.02,0-.03,0-.07,0-.14,0-.21,0,0,0-.02,0-.03,0-.07,0-.14,0-.22.02,0,0-.01,0-.02,0-.08.01-.15.03-.23.04-.08.02-.17.05-.25.08v-.27s0,0,0,0h0s0-.18,0-.18c.06,0,.11,0,.17-.01,0,0,0,0,.01,0,.02,0,.04,0,.06,0,.04,0,.09,0,.13,0,.05,0,.1,0,.15,0,.04,0,.08,0,.12,0,.05,0,.1,0,.14,0,.04,0,.08,0,.12,0,.05,0,.09,0,.14.01.04,0,.07,0,.11.01.04,0,.09.02.13.02.03,0,.07.01.1.02.04,0,.08.02.12.03.03,0,.06.02.09.03.04.01.08.03.12.04.03.01.06.02.09.03.04.02.08.03.11.05.02.01.05.02.07.04.04.02.08.04.11.07.02.01.04.02.06.04.05.03.09.06.14.1,0,0,.01,0,.02.01.05.04.1.08.14.13.01.01.03.03.04.04.03.03.06.06.09.09.02.02.03.04.05.06.02.03.05.06.07.09.02.02.03.04.04.07.02.03.04.06.06.09.01.02.03.05.04.07.02.03.03.06.05.09.01.03.02.05.04.08.01.03.03.06.04.1.01.03.02.05.03.08.01.03.02.07.03.1,0,.03.02.06.03.09,0,.03.02.07.03.1,0,.03.01.06.02.09,0,.04.01.07.02.11,0,.03.01.06.01.09,0,.04,0,.07.01.11,0,.03,0,.06,0,.09,0,.04,0,.08,0,.12,0,.03,0,.06,0,.1,0,.04,0,.08,0,.12,0,.03,0,.06,0,.1Z"/>
        <path class="cls-1" d="M114.46,33s.02-.02.03-.03c.02-.02.04-.04.05-.06.01-.01.02-.03.03-.04.02-.02.03-.04.05-.05.01-.01.02-.03.03-.04.01-.02.03-.04.04-.05.01-.01.02-.03.03-.04.01-.02.03-.04.04-.05,0-.01.02-.03.03-.04.01-.02.02-.04.03-.05,0-.01.02-.03.03-.04.01-.02.02-.04.03-.05,0-.01.02-.03.02-.04,0-.02.02-.04.03-.05,0-.01.01-.03.02-.04,0-.02.02-.04.02-.05,0-.01.01-.03.02-.04,0-.02.01-.04.02-.06,0-.01.01-.03.01-.04,0-.02.01-.04.02-.06,0-.01,0-.03.01-.04,0-.02,0-.04.01-.06,0-.01,0-.02,0-.04,0-.03,0-.05,0-.08,0,0,0-.01,0-.02,0-.03,0-.06,0-.1,0,0,0-.02,0-.03,0-.02,0-.05,0-.07,0-.01,0-.02,0-.04,0-.02,0-.04-.01-.05-.04-.13-.18-.19-.3-.12-.03.02-.05.04-.08.06,0,0,0,0,0,0-.04.03-.07.05-.11.09-.01,0-.02.02-.04.03-.03.02-.06.05-.09.07-.01.01-.03.02-.04.04-.03.02-.06.05-.09.08-.01.01-.03.02-.04.03-.04.04-.09.07-.13.11,0,0,0,0,0,0-.05.04-.1.08-.14.12-.02.02-.04.03-.06.05-.04.03-.08.07-.12.1-.03.03-.06.05-.09.08-.02.01-.03.03-.05.04-.04.04-.09.07-.13.11,0,0,0,0,0,0-.04.03-.08.06-.12.09-.01,0-.02.02-.03.03-.03.02-.05.04-.07.06-.01,0-.02.02-.03.03-.02.02-.04.03-.06.04,0,0-.02.01-.03.02-.03.02-.05.03-.07.04-.04.02-.08.04-.12.06-.01,0-.03.01-.05.02-.03.01-.06.02-.09.04-.02,0-.04.01-.06.02-.03,0-.05.02-.08.03-.02,0-.05.02-.07.02-.03,0-.05.02-.08.03-.04.01-.08.03-.12.04-.02,0-.04.01-.06.02-.03,0-.06.02-.08.03-.02,0-.04.02-.06.02-.03,0-.05.02-.08.03-.02,0-.04.02-.06.02-.03.01-.06.03-.1.04-.01,0-.02,0-.03,0,0,0-.01,0-.02,0,0,0-.02,0-.02,0-.01,0-.03,0-.04-.01-.01,0-.03-.01-.04-.02-.01,0-.02-.02-.03-.03-.01-.01-.02-.02-.03-.04,0-.01-.02-.02-.03-.04,0-.01-.02-.03-.03-.05,0-.01-.02-.03-.02-.05,0-.02-.01-.04-.02-.06,0-.02-.01-.03-.02-.05,0-.02-.01-.04-.02-.06,0-.02,0-.04-.01-.06,0-.02,0-.05-.01-.07,0-.02,0-.04,0-.06,0-.02,0-.05,0-.08,0-.02,0-.04,0-.06,0-.03,0-.05,0-.08,0-.02,0-.04,0-.06,0-.03,0-.05,0-.08,0-.02,0-.04,0-.06,0-.03,0-.05,0-.08,0-.02,0-.04,0-.06,0-.03,0-.05,0-.08,0-.02,0-.04,0-.05,0-.03,0-.05,0-.08,0-.02,0-.03,0-.05,0-.03,0-.05,0-.08,0-.01,0-.03,0-.04,0-.03,0-.06,0-.08,0-.04,0-.07,0-.1.07-.71.32-1.82.48-2.56.22-1.03,1.36-4.26,1.14-5.02-.25-.83-1.59-.79-2.23-.47-1.33.66-3.59,3.82-4.42,5.14-.02.03-.04.07-.07.11,0,.01-.02.02-.02.03-.02.02-.03.05-.05.07,0,.01-.02.03-.03.04-.02.02-.03.05-.05.07,0,.01-.02.03-.03.04-.02.03-.04.07-.07.1-.02.03-.03.05-.05.08-.01.02-.02.03-.03.05-.02.02-.03.05-.05.07-.01.02-.02.03-.03.05-.01.02-.03.04-.04.06-.01.02-.02.04-.04.05-.01.02-.03.04-.04.06-.01.02-.02.04-.03.05-.01.02-.03.04-.04.06-.01.02-.02.03-.03.05-.01.02-.02.04-.04.06-.01.02-.02.04-.03.05-.01.02-.02.04-.03.06-.01.02-.02.04-.03.05-.01.02-.02.04-.03.06,0,.02-.02.04-.03.05,0,.02-.02.04-.03.06,0,.02-.02.04-.02.05,0,.02-.02.04-.03.06,0,.02-.01.03-.02.05,0,.02-.02.04-.02.06,0,.02-.01.03-.02.05,0,.02-.01.04-.02.05,0,.02,0,.03-.01.05,0,.02,0,.04-.01.05,0,.02,0,.03-.01.05,0,.02,0,.04,0,.05,0,.02,0,.03,0,.05,0,.02,0,.03,0,.05,0,.02,0,.03,0,.05,0,.02,0,.03,0,.05,0,.02,0,.03,0,.05,0,.02,0,.03,0,.05,0,.01,0,.03,0,.04,0,.02,0,.03.01.05,0,.01,0,.03.02.04,0,.02.01.03.02.04,0,.01.01.03.02.04,0,.01.02.03.03.04,0,.01.02.03.03.04.01.01.02.03.03.04.01.01.02.03.03.04.01.01.03.03.04.04.01.01.03.02.04.04.02.01.03.02.05.04.02.01.03.02.05.03.02.01.04.02.06.03.02.01.04.02.06.03.02.01.04.02.07.03.02,0,.04.02.07.03.02,0,.05.02.07.03.02,0,.05.02.07.03.03,0,.06.02.08.03.03,0,.05.02.08.02.01,0,.03,0,.04,0,.07.01.14-.01.19-.06.04-.04.07-.09.11-.13.04-.05.07-.09.11-.14.05-.06.1-.12.15-.19.05-.06.1-.12.14-.18.05-.07.11-.14.17-.21.04-.05.09-.11.13-.16.04-.05.08-.09.11-.14.04-.05.09-.11.14-.16.04-.04.07-.09.11-.13.05-.06.1-.11.15-.17.04-.04.07-.08.11-.12.06-.06.12-.12.17-.18.03-.03.06-.06.09-.1.09-.09.19-.18.28-.27.05-.04.09-.08.14-.12.02-.01.04-.03.05-.04.03-.03.07-.05.1-.08.02-.02.04-.03.07-.05.03-.02.06-.05.1-.07.02-.02.05-.03.07-.05.03-.02.07-.05.1-.07.03-.02.06-.04.1-.07.04-.03.08-.06.12-.08.03-.02.07-.05.1-.07.02-.02.05-.03.07-.05.04-.02.07-.05.1-.07.02-.02.04-.03.06-.05.04-.03.08-.06.12-.09.01-.01.03-.02.04-.03.05-.04.1-.08.15-.13.01-.01.02-.02.03-.03.04-.03.07-.07.11-.1.02-.02.03-.03.05-.05.03-.03.05-.06.08-.09.02-.02.03-.04.05-.06.02-.03.04-.06.07-.09.01-.02.03-.04.04-.06.02-.03.04-.06.05-.09.01-.02.02-.04.03-.07.01-.03.03-.06.04-.1,0-.02.02-.05.02-.07,0-.02,0-.04.01-.06.02-.14-.13-.26-.27-.2-.01,0-.02,0-.03.01-.03.01-.06.03-.09.04-.01,0-.03.01-.04.02-.04.02-.08.04-.12.07,0,0,0,0,0,0-.04.03-.09.05-.13.08-.02.01-.04.02-.05.03-.03.02-.07.04-.1.06-.03.02-.06.04-.09.06-.02.01-.04.02-.05.03-.03.02-.06.04-.08.05-.02,0-.03.02-.05.03-.03.02-.07.04-.1.06,0,0-.02.01-.03.02-.04.02-.09.04-.13.06,0,0,0,0,0,0,0,0,0,0,0,0-.15.06-.3.1-.46.09.03-.07.1-.2.22-.38,0,0,0,0,0,0,0,0,0,0,0-.01.03-.05.06-.1.1-.15,0,0,.01-.02.02-.03.03-.05.06-.09.1-.14.01-.02.02-.03.04-.05.03-.05.07-.1.11-.15,0-.01.02-.02.02-.03.04-.06.09-.13.14-.19.01-.02.03-.03.04-.05.04-.05.07-.1.11-.15.01-.02.03-.04.04-.06.1-.14.21-.28.32-.42.02-.02.03-.04.05-.06.04-.05.08-.11.13-.16.01-.02.03-.04.04-.05.05-.07.11-.14.16-.2.01-.01.02-.02.03-.04.05-.06.09-.11.14-.16.02-.02.03-.04.05-.06.05-.05.09-.1.14-.15.01-.01.02-.02.03-.03.05-.06.11-.12.16-.17.01-.01.03-.03.04-.04.04-.04.08-.08.12-.12.01-.01.03-.03.04-.04.05-.05.1-.1.15-.14,0,0,0,0,0,0,.05-.04.09-.08.13-.11.01-.01.02-.02.04-.03.03-.03.07-.05.1-.07,0,0,.02-.01.02-.02,0,0,0,0,0,0,.17-.11.3-.14.37-.06-.02.09-.05.18-.07.27,0,0,0,0,0,.01-.01.05-.03.1-.04.15-.02.08-.05.16-.07.24-.03.1-.06.2-.09.3-.02.08-.05.16-.07.24-.03.1-.06.2-.1.31-.03.08-.05.16-.08.24-.04.13-.08.26-.13.39-.04.12-.08.24-.11.35-.03.09-.06.18-.09.27-.03.1-.07.21-.1.31-.02.08-.05.15-.07.23-.04.11-.07.23-.1.34-.02.06-.04.13-.06.19-.05.18-.1.36-.14.54-.58,2.32-2.07,8.05,2.34,5.53.02-.01.05-.03.07-.04,0,0,.02-.01.03-.02.02-.01.03-.02.05-.03,0,0,.02-.01.03-.02.02-.01.03-.02.05-.03.01,0,.02-.02.03-.02.02-.01.03-.02.05-.03.01,0,.03-.02.04-.03.02-.01.03-.02.05-.03.01,0,.03-.02.04-.03.02-.01.03-.02.05-.04.01,0,.03-.02.04-.03.02-.01.03-.03.05-.04.01-.01.03-.02.04-.03.02-.01.03-.03.05-.04.01-.01.03-.02.04-.03.02-.01.03-.03.05-.04.01-.01.03-.02.04-.03.02-.01.03-.03.05-.04.01-.01.03-.02.04-.03.02-.02.04-.03.05-.05.01-.01.03-.02.04-.03.02-.02.04-.03.06-.05.01-.01.02-.02.04-.03.02-.02.04-.04.06-.06,0,0,.02-.02.03-.03.03-.03.06-.06.09-.09,0,0,.01-.01.02-.02.02-.02.05-.05.07-.07Z"/>
        <path class="cls-1" d="M109.32,28.71s-.07.05-.1.07c.03-.02.07-.05.1-.07Z"/>
        <path class="cls-1" d="M109.72,28.44s-.05.03-.07.05c.02-.02.05-.03.07-.05Z"/>
        <path class="cls-1" d="M109.15,28.83s-.07.05-.1.07c.03-.02.06-.05.1-.07Z"/>
        <path class="cls-1" d="M109.54,28.56s-.08.06-.12.08c.04-.03.08-.06.12-.08Z"/>
        <path class="cls-1" d="M110.22,27.16s.08-.05.12-.07c-.04.02-.08.04-.12.07Z"/>
        <path class="cls-1" d="M108.31,29.56c-.06.06-.12.12-.17.18.06-.06.12-.12.17-.18Z"/>
        <path class="cls-1" d="M108.99,28.95s-.07.05-.1.08c.03-.03.07-.05.1-.08Z"/>
        <path class="cls-1" d="M108.83,29.07s-.1.08-.14.12c.05-.04.09-.08.14-.12Z"/>
        <path class="cls-1" d="M110.51,27.74s-.03.04-.05.06c.02-.02.03-.04.05-.06Z"/>
        <path class="cls-1" d="M110.76,27.27s-.02.05-.02.07c0-.02.02-.05.02-.07Z"/>
        <path class="cls-1" d="M110.7,27.44s-.02.04-.03.07c.01-.02.02-.04.03-.07Z"/>
        <path class="cls-1" d="M110.39,27.07s.06-.03.09-.04c-.03.01-.06.03-.09.04Z"/>
        <path class="cls-1" d="M110.62,27.59s-.03.04-.04.06c.01-.02.03-.04.04-.06Z"/>
        <path class="cls-1" d="M110.38,27.89s-.03.03-.05.05c.02-.02.03-.03.05-.05Z"/>
        <path class="cls-1" d="M110.23,28.04s-.02.02-.03.03c.01-.01.02-.02.03-.03Z"/>
        <path class="cls-1" d="M107.78,30.16c-.05.05-.09.11-.14.16.04-.05.09-.11.14-.16Z"/>
        <path class="cls-1" d="M110.05,28.2s-.03.02-.04.03c.01-.01.03-.02.04-.03Z"/>
        <path class="cls-1" d="M109.89,28.32s-.04.03-.06.05c.02-.02.04-.03.06-.05Z"/>
        <path class="cls-1" d="M108.03,29.86c-.05.06-.1.11-.15.17.05-.06.1-.11.15-.17Z"/>
        <path class="cls-1" d="M111.25,24.67s.03-.03.04-.04c-.01.01-.03.03-.04.04Z"/>
        <path class="cls-1" d="M105.83,31.22s-.03-.02-.04-.04c.01.01.03.02.04.04Z"/>
        <path class="cls-1" d="M105.75,31.15s-.02-.02-.03-.04c.01.01.02.03.03.04Z"/>
        <path class="cls-1" d="M111.71,24.27s.02-.01.03-.02c0,0,0,0,0,0,0,0-.02.01-.02.02Z"/>
        <polygon class="cls-1" points="109.39 27.66 109.38 27.66 109.38 27.66 109.39 27.66"/>
        <path class="cls-1" d="M105.93,31.29s-.03-.02-.05-.03c.02.01.03.02.05.03Z"/>
        <path class="cls-1" d="M105.68,31.07s-.02-.03-.03-.04c0,.01.02.03.03.04Z"/>
        <path class="cls-1" d="M109.14,27.37s0,0,0-.01c0,0,0,0,0,.01,0,0,0,0,0,0Z"/>
        <path class="cls-1" d="M107.53,30.46c-.04.05-.09.11-.13.16.04-.05.09-.11.13-.16Z"/>
        <path class="cls-1" d="M106.33,31.47s-.05-.02-.07-.03c.02,0,.05.02.07.03Z"/>
        <path class="cls-1" d="M106.49,31.52s-.06-.02-.08-.02c.03,0,.05.02.08.02Z"/>
        <path class="cls-1" d="M106.94,31.2s-.07.09-.11.14c.04-.05.07-.09.11-.14Z"/>
        <path class="cls-1" d="M112.03,24.46c-.01.05-.03.11-.04.16.01-.05.03-.1.04-.15,0,0,0,0,0-.01Z"/>
        <path class="cls-1" d="M107.23,30.83c-.05.06-.1.12-.14.18.05-.06.1-.12.14-.18Z"/>
        <path class="cls-1" d="M106.05,31.36s-.04-.02-.06-.03c.02.01.04.02.06.03Z"/>
        <path class="cls-1" d="M114.38,33.09s.01-.01.02-.02c0,0-.01.01-.02.02Z"/>
        <path class="cls-1" d="M106.18,31.42s-.04-.02-.07-.03c.02,0,.04.02.07.03Z"/>
        <path class="cls-1" d="M111.83,25.16c.03-.1.06-.2.09-.3-.03.1-.06.2-.09.3Z"/>
        <path class="cls-1" d="M113.39,33.92s-.02.02-.03.02c.01,0,.02-.02.03-.02Z"/>
        <path class="cls-1" d="M113.22,34.02s-.02.01-.03.02c0,0,.02-.01.03-.02Z"/>
        <path class="cls-1" d="M113.3,33.97s-.02.01-.03.02c0,0,.02-.01.03-.02Z"/>
        <path class="cls-1" d="M113.48,33.86s-.03.02-.04.03c.01,0,.03-.02.04-.03Z"/>
        <path class="cls-1" d="M113.56,33.8s-.03.02-.04.03c.01,0,.03-.02.04-.03Z"/>
        <path class="cls-1" d="M111.25,26.95c.03-.09.06-.18.09-.27-.03.09-.06.18-.09.27Z"/>
        <path class="cls-1" d="M111.66,25.71c.03-.1.07-.2.1-.31-.03.1-.06.2-.1.31Z"/>
        <path class="cls-1" d="M110.93,28.02c.02-.06.04-.13.06-.19-.02.06-.04.13-.06.19Z"/>
        <path class="cls-1" d="M111.09,27.49c.02-.08.05-.15.07-.23-.02.08-.05.15-.07.23Z"/>
        <path class="cls-1" d="M111.46,26.33c.04-.13.08-.26.13-.39-.04.13-.08.26-.13.39Z"/>
        <path class="cls-1" d="M114.11,33.35s-.03.02-.04.03c.01-.01.03-.02.04-.03Z"/>
        <path class="cls-1" d="M114.2,33.27s-.02.02-.04.03c.01-.01.02-.02.04-.03Z"/>
        <path class="cls-1" d="M114.29,33.18s-.02.02-.03.03c0,0,.02-.02.03-.03Z"/>
        <path class="cls-1" d="M114.02,33.43s-.03.02-.04.03c.01-.01.03-.02.04-.03Z"/>
        <path class="cls-1" d="M110.08,27.25s.09-.06.13-.08c-.04.03-.09.05-.13.08Z"/>
        <path class="cls-1" d="M113.74,33.66s-.03.02-.04.03c.01-.01.03-.02.04-.03Z"/>
        <path class="cls-1" d="M113.65,33.73s-.03.02-.04.03c.01,0,.03-.02.04-.03Z"/>
        <path class="cls-1" d="M113.93,33.51s-.03.02-.04.03c.01-.01.03-.02.04-.03Z"/>
        <path class="cls-1" d="M113.84,33.59s-.03.02-.04.03c.01-.01.03-.02.04-.03Z"/>
        <path class="cls-1" d="M109.26,27.18s-.01.02-.02.03c0,0,.01-.02.02-.03Z"/>
        <path class="cls-1" d="M109.4,26.99s-.02.03-.04.05c.01-.02.02-.03.04-.05Z"/>
        <path class="cls-1" d="M109.52,26.8s-.02.02-.02.03c0-.01.02-.02.02-.03Z"/>
        <path class="cls-1" d="M109.7,26.56s-.03.03-.04.05c.01-.02.03-.03.04-.05Z"/>
        <path class="cls-1" d="M109.52,27.6s.02-.01.03-.02c0,0-.02.01-.03.02Z"/>
        <path class="cls-1" d="M109.86,26.34s-.03.04-.04.06c.01-.02.03-.04.04-.06Z"/>
        <path class="cls-1" d="M109.93,27.35s.07-.04.1-.06c-.03.02-.07.04-.1.06Z"/>
        <path class="cls-1" d="M109.78,27.44s.04-.02.05-.03c-.02.01-.04.02-.05.03Z"/>
        <path class="cls-1" d="M109.65,27.52s.03-.02.05-.03c-.02,0-.03.02-.05.03Z"/>
        <path class="cls-1" d="M111.13,24.79s-.03.03-.04.04c.01-.01.03-.03.04-.04Z"/>
        <path class="cls-1" d="M111.44,24.49s0,0,0,0c0,0,0,0,0,0Z"/>
        <path class="cls-1" d="M105.63,30.99s-.01-.03-.02-.04c0,.01.01.03.02.04Z"/>
        <path class="cls-1" d="M111.61,24.34s-.02.02-.04.03c.01-.01.02-.02.04-.03Z"/>
        <path class="cls-1" d="M110.22,25.87s-.03.04-.05.06c.02-.02.03-.04.05-.06Z"/>
        <path class="cls-1" d="M110.93,25s-.02.02-.03.03c.01-.01.02-.02.03-.03Z"/>
        <path class="cls-1" d="M110.39,25.65s-.03.04-.04.05c.01-.02.03-.04.04-.05Z"/>
        <path class="cls-1" d="M110.77,25.19s-.03.04-.05.06c.02-.02.03-.04.05-.06Z"/>
        <path class="cls-1" d="M110.58,25.41s-.02.02-.03.04c.01-.01.02-.02.03-.04Z"/>
        <path class="cls-1" d="M115.09,31.9s0,.02,0,.04c0-.01,0-.02,0-.04Z"/>
        <path class="cls-1" d="M115.09,31.68s0,.02,0,.03c0,0,0-.02,0-.03Z"/>
        <path class="cls-1" d="M106.02,29.44s.02-.04.03-.05c-.01.02-.02.04-.03.05Z"/>
        <path class="cls-1" d="M115.08,31.58s0,.02,0,.04c0-.01,0-.02,0-.04Z"/>
        <path class="cls-1" d="M111.66,31.51s0,.05,0,.08c0-.03,0-.06,0-.08Z"/>
        <path class="cls-1" d="M106.5,28.72s.03-.05.05-.07c-.02.02-.03.05-.05.07Z"/>
        <path class="cls-1" d="M106.57,28.62s.05-.07.07-.11c-.02.03-.04.07-.07.11Z"/>
        <path class="cls-1" d="M114.53,31.58s.03-.02.04-.03c-.01,0-.02.02-.04.03Z"/>
        <path class="cls-1" d="M111.64,31.76s0,.05,0,.08c0-.03,0-.05,0-.08Z"/>
        <path class="cls-1" d="M114.26,31.8s.03-.02.04-.03c-.01.01-.03.02-.04.03Z"/>
        <path class="cls-1" d="M114.39,31.69s.03-.02.04-.04c-.01.01-.03.02-.04.04Z"/>
        <path class="cls-1" d="M111.65,31.64s0,.05,0,.08c0-.03,0-.05,0-.08Z"/>
        <path class="cls-1" d="M112.59,32.93s.05-.02.08-.03c-.03,0-.05.02-.08.03Z"/>
        <path class="cls-1" d="M115.04,32.1s0,.03-.01.04c0-.01.01-.03.01-.04Z"/>
        <path class="cls-1" d="M106.17,29.22s.02-.03.03-.05c-.01.02-.02.03-.03.05Z"/>
        <path class="cls-1" d="M115,32.19s-.01.03-.02.04c0-.01.01-.03.02-.04Z"/>
        <path class="cls-1" d="M115.07,32s0,.03-.01.04c0-.01,0-.03.01-.04Z"/>
        <path class="cls-1" d="M106.43,28.83s.03-.05.05-.07c-.02.02-.03.05-.05.07Z"/>
        <path class="cls-1" d="M106.09,29.33s.02-.04.04-.05c-.01.02-.02.04-.04.05Z"/>
        <path class="cls-1" d="M106.33,28.97s.04-.07.07-.1c-.02.03-.04.06-.07.1Z"/>
        <path class="cls-1" d="M106.25,29.1s.02-.03.03-.05c-.01.02-.02.03-.03.05Z"/>
        <path class="cls-1" d="M115.1,31.8s0,.01,0,.02c0,0,0-.01,0-.02Z"/>
        <path class="cls-1" d="M111.63,31.89s0,.05,0,.08c0-.03,0-.05,0-.08Z"/>
        <path class="cls-1" d="M114.68,31.47s0,0,0,0c0,0,0,0,0,0Z"/>
        <path class="cls-1" d="M111.7,32.85s.01.04.02.06c0-.02-.01-.04-.02-.06Z"/>
        <path class="cls-1" d="M111.87,33.1s.03.02.04.02c-.01,0-.03-.01-.04-.02Z"/>
        <path class="cls-1" d="M113.22,32.66s.04-.03.06-.04c-.02.02-.04.03-.06.04Z"/>
        <path class="cls-1" d="M111.74,32.95s.02.03.03.05c0-.01-.02-.03-.03-.05Z"/>
        <path class="cls-1" d="M113,32.78s.08-.04.12-.06c-.04.02-.08.04-.12.06Z"/>
        <path class="cls-1" d="M113.12,32.72s.04-.02.07-.04c-.03.02-.05.03-.07.04Z"/>
        <path class="cls-1" d="M112.12,33.1s.04-.02.06-.02c-.02,0-.04.02-.06.02Z"/>
        <path class="cls-1" d="M112.4,33s.04-.01.06-.02c-.02,0-.04.01-.06.02Z"/>
        <path class="cls-1" d="M112.73,32.88s.05-.02.08-.03c-.03,0-.05.02-.08.03Z"/>
        <path class="cls-1" d="M112.87,32.83s.06-.02.09-.04c-.03.01-.06.02-.09.04Z"/>
        <path class="cls-1" d="M114.12,31.91s0,0,0,0c0,0,0,0,0,0Z"/>
        <path class="cls-1" d="M112.25,33.05s.04-.02.06-.02c-.02,0-.04.02-.06.02Z"/>
        <path class="cls-1" d="M111.62,32.33s0,.05,0,.08c0-.03,0-.05,0-.08Z"/>
        <path class="cls-1" d="M111.63,32.47s0,.05,0,.08c0-.02,0-.05,0-.08Z"/>
        <path class="cls-1" d="M113.71,32.26s.06-.05.09-.08c-.03.03-.06.05-.09.08Z"/>
        <path class="cls-1" d="M111.62,32.04s0,.05,0,.08c0-.03,0-.05,0-.08Z"/>
        <path class="cls-1" d="M113.92,32.08s.04-.03.06-.05c-.02.02-.04.03-.06.05Z"/>
        <path class="cls-1" d="M113.42,32.5s.08-.06.12-.09c-.04.03-.08.06-.12.09Z"/>
        <path class="cls-1" d="M111.66,32.74s0,.04.02.06c0-.02-.01-.04-.02-.06Z"/>
        <path class="cls-1" d="M113.54,32.41s.08-.07.13-.11c-.04.04-.09.07-.13.11Z"/>
        <path class="cls-1" d="M113.31,32.59s.05-.04.07-.06c-.03.02-.05.04-.07.06Z"/>
        <path class="cls-1" d="M111.64,32.61s0,.05.01.07c0-.02,0-.05-.01-.07Z"/>
        <path class="cls-1" d="M105.54,30.63s0-.03,0-.05c0,.02,0,.03,0,.05Z"/>
        <path class="cls-1" d="M105.56,30.43s0-.03.01-.05c0,.02,0,.03-.01.05Z"/>
        <path class="cls-1" d="M112,33.14s-.03,0-.05,0c0,0,.02,0,.02,0,0,0,.01,0,.02,0Z"/>
        <path class="cls-1" d="M114.79,32.59s-.02.03-.03.04c0-.01.02-.03.03-.04Z"/>
        <path class="cls-1" d="M105.59,30.33s0-.03.01-.05c0,.02,0,.03-.01.05Z"/>
        <path class="cls-1" d="M115.07,31.52c-.02-.07-.04-.14-.08-.2-.03-.02-.11.01-.22.08.11-.07.26-.01.3.12Z"/>
        <path class="cls-1" d="M114.86,32.49s-.02.03-.03.04c0-.01.02-.03.03-.04Z"/>
        <path class="cls-1" d="M111.83,33.07s-.02-.02-.03-.04c.01.01.02.02.03.04Z"/>
        <path class="cls-1" d="M105.55,30.53s0-.03,0-.05c0,.02,0,.03,0,.05Z"/>
        <path class="cls-1" d="M105.82,29.78s.02-.04.03-.05c-.01.02-.02.04-.03.05Z"/>
        <path class="cls-1" d="M105.76,29.89s.02-.04.03-.05c0,.02-.02.04-.03.05Z"/>
        <path class="cls-1" d="M105.66,30.11s.01-.03.02-.05c0,.02-.01.03-.02.05Z"/>
        <path class="cls-1" d="M114.66,32.78s-.02.03-.03.04c.01-.01.02-.03.03-.04Z"/>
        <path class="cls-1" d="M114.58,32.87s-.02.03-.03.04c.01-.01.02-.03.03-.04Z"/>
        <path class="cls-1" d="M105.62,30.22s.01-.03.02-.05c0,.02-.01.03-.02.05Z"/>
        <path class="cls-1" d="M114.73,32.68s-.02.03-.03.04c.01-.01.02-.03.03-.04Z"/>
        <path class="cls-1" d="M114.49,32.97s-.02.02-.03.03c0-.01.02-.02.03-.03Z"/>
        <path class="cls-1" d="M105.71,30s.02-.04.02-.05c0,.02-.02.04-.02.05Z"/>
        <path class="cls-1" d="M105.59,30.91s-.01-.03-.02-.04c0,.01,0,.03.02.04Z"/>
        <path class="cls-1" d="M106.53,31.53s.07.02.11.03c.03-.03.05-.06.07-.09-.05.05-.12.08-.19.06Z"/>
        <path class="cls-1" d="M111.62,32.26s0-.05,0-.08c0,.03,0,.05,0,.08Z"/>
        <path class="cls-1" d="M105.95,29.56s.02-.03.03-.05c-.01.02-.02.03-.03.05Z"/>
        <path class="cls-1" d="M114.96,32.29s-.01.03-.02.04c0-.01.01-.03.02-.04Z"/>
        <path class="cls-1" d="M105.55,30.72s0-.03,0-.05c0,.02,0,.03,0,.05Z"/>
        <path class="cls-1" d="M108.4,29.46c.09-.09.19-.18.28-.27-.1.09-.19.18-.28.27Z"/>
        <path class="cls-1" d="M114.91,32.39s-.02.03-.02.04c0-.01.02-.03.02-.04Z"/>
        <path class="cls-1" d="M105.88,29.67s.02-.04.03-.05c-.01.02-.02.04-.03.05Z"/>
        <path class="cls-1" d="M105.56,30.82s0-.03,0-.04c0,.01,0,.03,0,.04Z"/>
        <path class="cls-1" d="M110.78,27.21c.02-.09.04-.19.04-.3-.11.02-.21.05-.31.09.14-.05.29.06.27.2Z"/>
        <path class="cls-1" d="M116.37,28.54s0-.08,0-.12c0-.03,0-.06,0-.09,0-.04,0-.08-.01-.11,0-.03,0-.06-.01-.09,0-.04-.01-.07-.02-.11,0-.03-.01-.06-.02-.09,0-.04-.02-.07-.03-.1,0-.03-.02-.06-.03-.09-.01-.03-.02-.07-.03-.1,0-.03-.02-.05-.03-.08-.01-.03-.03-.07-.04-.1-.01-.03-.02-.05-.04-.08-.02-.03-.03-.06-.05-.09-.01-.02-.03-.05-.04-.07-.02-.03-.04-.06-.06-.09-.01-.02-.03-.04-.04-.07-.02-.03-.05-.06-.07-.09-.02-.02-.03-.04-.05-.06-.03-.03-.06-.06-.09-.09-.01-.01-.03-.03-.04-.04-.05-.04-.09-.09-.14-.13,0,0-.01,0-.02-.01-.04-.03-.09-.07-.14-.1-.02-.01-.04-.02-.06-.04-.04-.02-.07-.04-.11-.07-.02-.01-.05-.02-.07-.04-.04-.02-.07-.04-.11-.05-.03-.01-.06-.02-.09-.03-.04-.01-.08-.03-.12-.04-.03,0-.06-.02-.09-.03-.04-.01-.08-.02-.12-.03-.03,0-.07-.01-.1-.02-.04,0-.09-.02-.13-.02-.04,0-.07-.01-.11-.01-.04,0-.09-.01-.14-.01-.04,0-.08,0-.12,0-.05,0-.1,0-.14,0-.04,0-.08,0-.12,0-.05,0-.1,0-.15,0-.04,0-.09,0-.13,0-.02,0-.05,0-.08,0-.1.01-.17.1-.17.2h0c0,.13.13.22.25.19,0,0,0,0,0,0,.08-.02.15-.03.23-.04,0,0,.01,0,.02,0,.07,0,.14-.02.22-.02,0,0,.02,0,.03,0,.07,0,.14,0,.21,0,.01,0,.02,0,.03,0,.07,0,.14.02.2.03.01,0,.02,0,.03,0,.07.01.13.03.2.05.01,0,.02,0,.03,0,.07.02.13.04.19.07,0,0,.02,0,.02.01.06.03.13.06.19.09,0,0,0,0,.01,0,.06.04.12.08.18.12,0,0,0,0,0,0,.06.04.11.09.17.14,0,0,0,0,.01.01.05.05.1.1.15.15,0,0,.01.01.02.02.04.05.09.1.12.16,0,0,.01.02.02.03.04.06.07.11.1.17,0,0,.01.02.02.03.03.06.06.12.08.19,0,0,0,.02.01.03.02.07.04.13.06.2,0,0,0,.02,0,.03.02.07.03.14.04.22,0,0,0,.01,0,.02,0,.08.01.16.01.24,0,.05,0,.09-.01.14,0,0,0,.01,0,.02,0,.04-.01.09-.02.13,0,0,0,.02,0,.03-.01.05-.02.09-.03.14,0,0,0,.01,0,.02-.01.05-.03.09-.04.14,0,0,0,0,0,.01-.02.05-.03.09-.05.14,0,0,0,.02,0,.03-.02.05-.04.09-.05.14,0,0,0,.02-.01.03-.02.05-.04.09-.06.14-.02.04-.04.09-.05.13,0,0,0,.02,0,.02-.02.04-.03.09-.05.13,0,0,0,.02,0,.03-.02.04-.03.09-.05.13,0,0,0,.01,0,.02-.01.04-.03.09-.04.13,0,0,0,0,0,0-.01.04-.02.09-.03.13,0,0,0,.01,0,.02,0,.04-.01.08-.02.12,0,0,0,.02,0,.02,0,.04,0,.08,0,.12,0,0,0,0,0,.01,0,.04,0,.08.02.11,0,0,0,0,0,.01,0,.04.02.07.04.11,0,0,0,.01,0,.02.07.15.29.15.36,0,.02-.03.03-.07.04-.1.01-.03.03-.07.04-.1.02-.04.03-.09.05-.13.01-.03.02-.06.04-.1.02-.05.03-.1.05-.15,0-.03.02-.06.03-.09.02-.06.03-.11.05-.17,0-.02.01-.04.02-.06.02-.08.04-.15.06-.23,0-.02,0-.03.01-.05.01-.06.02-.12.03-.18,0-.03,0-.06.01-.08,0-.05.02-.1.02-.14,0-.03,0-.06.01-.09,0-.04,0-.09.01-.13,0-.03,0-.06,0-.1,0-.04,0-.08,0-.12,0-.03,0-.06,0-.1,0-.04,0-.08,0-.12,0-.03,0-.06,0-.1Z"/>
        <path class="cls-1" d="M116.37,28.98s0,.06,0,.1c0-.03,0-.06,0-.1Z"/>
        <path class="cls-1" d="M115.78,26.91s.03.04.05.06c-.02-.02-.03-.04-.05-.06Z"/>
        <path class="cls-1" d="M115.52,30.88c.05.1.12.2.23.29.05-.1.09-.19.14-.29-.07.15-.29.15-.36,0Z"/>
        <path class="cls-1" d="M115.61,29.88s.03-.09.05-.13c-.02.04-.03.09-.05.13Z"/>
        <path class="cls-1" d="M115.28,26.51s.04.02.06.04c-.02-.01-.04-.02-.06-.04Z"/>
        <path class="cls-1" d="M116.32,29.44s0,.05-.01.08c0-.03,0-.06.01-.08Z"/>
        <path class="cls-1" d="M115.48,26.64s.01,0,.02.01c0,0-.01,0-.02-.01Z"/>
        <path class="cls-1" d="M115.65,26.78s.03.03.04.04c-.01-.01-.03-.03-.04-.04Z"/>
        <path class="cls-1" d="M116.35,29.21s0,.06-.01.09c0-.03,0-.06.01-.09Z"/>
        <path class="cls-1" d="M113.17,26.34v.27c.08-.03.17-.06.25-.08,0,0,0,0,0,0-.13.03-.25-.06-.25-.19Z"/>
        <path class="cls-1" d="M116.37,28.54s0,.06,0,.1c0-.03,0-.06,0-.1Z"/>
        <path class="cls-1" d="M116.32,28.13s.01.06.01.09c0-.03,0-.06-.01-.09Z"/>
        <path class="cls-1" d="M116.23,27.74s.02.06.03.09c0-.03-.02-.06-.03-.09Z"/>
        <path class="cls-1" d="M115.89,27.06s.03.04.04.07c-.01-.02-.03-.04-.04-.07Z"/>
        <path class="cls-1" d="M116.35,28.33s0,.06,0,.09c0-.03,0-.06,0-.09Z"/>
        <path class="cls-1" d="M113.34,26.15c-.06,0-.11,0-.17.01v.18c0-.1.07-.18.17-.2Z"/>
        <path class="cls-1" d="M116.28,27.93s.01.06.02.09c0-.03-.01-.06-.02-.09Z"/>
        <path class="cls-1" d="M116,27.22s.03.05.04.07c-.01-.02-.03-.05-.04-.07Z"/>
        <path class="cls-1" d="M113.88,26.47s.02,0,.03,0c0,0-.02,0-.03,0Z"/>
        <path class="cls-1" d="M116.09,27.38s.02.05.04.08c-.01-.03-.02-.05-.04-.08Z"/>
        <path class="cls-1" d="M116.37,28.76s0,.06,0,.1c0-.03,0-.06,0-.1Z"/>
        <path class="cls-1" d="M115.38,27.01s0,0,.01.01c0,0,0,0-.01-.01Z"/>
        <path class="cls-1" d="M116.17,27.56s.02.05.03.08c0-.03-.02-.05-.03-.08Z"/>
        <path class="cls-1" d="M115.1,26.4s.05.02.07.04c-.02-.01-.05-.02-.07-.04Z"/>
        <path class="cls-1" d="M115.99,28.02s0-.02,0-.03c0,0,0,.02,0,.03Z"/>
        <path class="cls-1" d="M115.46,30.61s0-.08,0-.12c0,.04,0,.08,0,.12Z"/>
        <path class="cls-1" d="M116.02,28.66s0-.01,0-.02c0,0,0,.01,0,.02Z"/>
        <path class="cls-1" d="M115.46,30.47s0-.08.02-.12c0,.04-.01.08-.02.12Z"/>
        <path class="cls-1" d="M116.03,28.26s0-.01,0-.02c0,0,0,.01,0,.02Z"/>
        <path class="cls-1" d="M115.92,27.79s0-.02-.01-.03c0,0,0,.02.01.03Z"/>
        <path class="cls-1" d="M115.7,27.37s-.01-.02-.02-.03c0,0,.01.02.02.03Z"/>
        <path class="cls-1" d="M115.47,30.74s-.01-.07-.02-.11c0,.04,0,.08.02.11Z"/>
        <path class="cls-1" d="M115.82,27.57s-.01-.02-.02-.03c0,0,.01.02.02.03Z"/>
        <path class="cls-1" d="M115.91,29.12s0,0,0-.01c0,0,0,0,0,.01Z"/>
        <path class="cls-1" d="M115.67,29.72s.04-.09.05-.13c-.02.04-.04.09-.05.13Z"/>
        <path class="cls-1" d="M115.78,29.46s0-.02.01-.03c0,0,0,.02-.01.03Z"/>
        <path class="cls-1" d="M115.51,30.19s.02-.09.04-.13c-.01.04-.03.09-.04.13Z"/>
        <path class="cls-1" d="M115.55,30.04s.03-.09.05-.13c-.02.04-.03.09-.05.13Z"/>
        <path class="cls-1" d="M115.95,28.98s0-.01,0-.02c0,0,0,.01,0,.02Z"/>
        <path class="cls-1" d="M116,28.82s0-.02,0-.03c0,0,0,.02,0,.03Z"/>
        <path class="cls-1" d="M115.85,29.29s0-.02,0-.03c0,0,0,.02,0,.03Z"/>
        <path class="cls-1" d="M115.48,30.32s.02-.09.03-.13c-.01.04-.02.09-.03.13Z"/>
        <path class="cls-1" d="M115.56,27.19s-.01-.01-.02-.02c0,0,.01.01.02.02Z"/>
        <path class="cls-1" d="M113.97,26.14s.08,0,.12,0c-.04,0-.08,0-.12,0Z"/>
        <path class="cls-1" d="M113.42,26.14s.09,0,.13,0c-.04,0-.09,0-.13,0Z"/>
        <path class="cls-1" d="M116.2,29.98s-.01.04-.02.06c0-.02.01-.04.02-.06Z"/>
        <path class="cls-1" d="M113.7,26.13s.08,0,.12,0c-.04,0-.08,0-.12,0Z"/>
        <path class="cls-1" d="M116.13,30.21s-.02.06-.03.09c0-.03.02-.06.03-.09Z"/>
        <path class="cls-1" d="M114.9,26.32s.06.02.09.03c-.03-.01-.06-.02-.09-.03Z"/>
        <path class="cls-1" d="M114.22,26.16s.07,0,.11.01c-.04,0-.07-.01-.11-.01Z"/>
        <path class="cls-1" d="M116.27,29.7s0,.03-.01.05c0-.02,0-.03.01-.05Z"/>
        <path class="cls-1" d="M114.69,26.25s.06.02.09.03c-.03,0-.06-.02-.09-.03Z"/>
        <path class="cls-1" d="M114.46,26.2s.07.01.1.02c-.03,0-.07-.01-.1-.02Z"/>
        <path class="cls-1" d="M114.61,26.57s-.02,0-.03,0c.01,0,.02,0,.03,0Z"/>
        <path class="cls-1" d="M115.03,26.75s0,0-.01,0c0,0,0,0,.01,0Z"/>
        <path class="cls-1" d="M115.97,30.67s-.03.07-.04.1c.01-.03.03-.07.04-.1Z"/>
        <path class="cls-1" d="M114.83,26.65s-.02,0-.02-.01c0,0,.02,0,.02.01Z"/>
        <path class="cls-1" d="M115.51,30.86s-.03-.07-.04-.11c0,.04.02.07.04.11Z"/>
        <path class="cls-1" d="M114.39,26.51s-.02,0-.03,0c.01,0,.02,0,.03,0Z"/>
        <path class="cls-1" d="M116.06,30.44s-.02.06-.04.1c.01-.03.02-.06.04-.1Z"/>
        <path class="cls-1" d="M115.22,26.87s0,0,0,0c0,0,0,0,0,0Z"/>
        <path class="cls-1" d="M114.15,26.48s-.02,0-.03,0c.01,0,.02,0,.03,0Z"/>
        <path class="cls-1" d="M113.67,26.49s-.01,0-.02,0c0,0,.01,0,.02,0Z"/>
      </g>
    </g>
  </g>
  <g id="link_ports-2" data-name="link_ports">
    <g>
      <rect class="cls-3" x="176.5" y="45" width="479" height="104"/>
      <g>
        <polygon class="cls-8" points="194.36 93.5 189.26 93.5 189.26 86.08 176.5 86.08 176.5 46 235.19 46 235.19 86.08 223.7 86.08 223.7 93.5 217.33 93.5 194.36 93.5"/>
        <polygon class="cls-8" points="254.33 93.5 249.23 93.5 249.23 86.08 236.47 86.08 236.47 46 295.16 46 295.16 86.08 283.68 86.08 283.68 93.5 277.3 93.5 254.33 93.5"/>
        <polygon class="cls-8" points="314.31 93.5 309.2 93.5 309.2 86.08 296.45 86.08 296.45 46 355.13 46 355.13 86.08 343.65 86.08 343.65 93.5 337.27 93.5 314.31 93.5"/>
        <polygon class="cls-8" points="374.28 93.5 369.18 93.5 369.18 86.08 356.42 86.08 356.42 46 415.11 46 415.11 86.08 403.62 86.08 403.62 93.5 397.25 93.5 374.28 93.5"/>
        <polygon class="cls-8" points="434.25 93.5 429.15 93.5 429.15 86.08 416.39 86.08 416.39 46 475.08 46 475.08 86.08 463.6 86.08 463.6 93.5 457.22 93.5 434.25 93.5"/>
        <polygon class="cls-8" points="494.23 93.5 489.12 93.5 489.12 86.08 476.37 86.08 476.37 46 535.05 46 535.05 86.08 523.57 86.08 523.57 93.5 517.19 93.5 494.23 93.5"/>
        <polygon class="cls-8" points="194.36 102 189.26 102 189.26 109.42 176.5 109.42 176.5 149.5 235.19 149.5 235.19 109.42 223.7 109.42 223.7 102 217.33 102 194.36 102"/>
        <polygon class="cls-8" points="254.33 102 249.23 102 249.23 109.42 236.47 109.42 236.47 149.5 295.16 149.5 295.16 109.42 283.68 109.42 283.68 102 277.3 102 254.33 102"/>
        <polygon class="cls-8" points="314.31 102 309.2 102 309.2 109.42 296.45 109.42 296.45 149.5 355.13 149.5 355.13 109.42 343.65 109.42 343.65 102 337.27 102 314.31 102"/>
        <polygon class="cls-8" points="374.28 102 369.18 102 369.18 109.42 356.42 109.42 356.42 149.5 415.11 149.5 415.11 109.42 403.62 109.42 403.62 102 397.25 102 374.28 102"/>
        <polygon class="cls-8" points="434.25 102 429.15 102 429.15 109.42 416.39 109.42 416.39 149.5 475.08 149.5 475.08 109.42 463.6 109.42 463.6 102 457.22 102 434.25 102"/>
        <polygon class="cls-8" points="494.23 102 489.12 102 489.12 109.42 476.37 109.42 476.37 149.5 535.05 149.5 535.05 109.42 523.57 109.42 523.57 102 517.19 102 494.23 102"/>
        <polygon class="cls-8" points="554.2 93.5 549.1 93.5 549.1 86.08 536.34 86.08 536.34 46 595.03 46 595.03 86.08 583.54 86.08 583.54 93.5 577.17 93.5 554.2 93.5"/>
        <polygon class="cls-8" points="554.2 102 549.1 102 549.1 109.42 536.34 109.42 536.34 149.5 595.03 149.5 595.03 109.42 583.54 109.42 583.54 102 577.17 102 554.2 102"/>
        <polygon class="cls-8" points="614.17 93.5 609.07 93.5 609.07 86.08 596.31 86.08 596.31 46 655 46 655 86.08 643.52 86.08 643.52 93.5 637.14 93.5 614.17 93.5"/>
        <polygon class="cls-8" points="614.17 102 609.07 102 609.07 109.42 596.31 109.42 596.31 149.5 655 149.5 655 109.42 643.52 109.42 643.52 102 637.14 102 614.17 102"/>
      </g>
    </g>
    <g>
      <rect class="cls-3" x="664.5" y="45" width="479" height="104"/>
      <g>
        <polygon class="cls-8" points="682.36 93.5 677.26 93.5 677.26 86.08 664.5 86.08 664.5 46 723.19 46 723.19 86.08 711.7 86.08 711.7 93.5 705.33 93.5 682.36 93.5"/>
        <polygon class="cls-8" points="742.33 93.5 737.23 93.5 737.23 86.08 724.47 86.08 724.47 46 783.16 46 783.16 86.08 771.68 86.08 771.68 93.5 765.3 93.5 742.33 93.5"/>
        <polygon class="cls-8" points="802.31 93.5 797.2 93.5 797.2 86.08 784.45 86.08 784.45 46 843.13 46 843.13 86.08 831.65 86.08 831.65 93.5 825.27 93.5 802.31 93.5"/>
        <polygon class="cls-8" points="862.28 93.5 857.18 93.5 857.18 86.08 844.42 86.08 844.42 46 903.11 46 903.11 86.08 891.62 86.08 891.62 93.5 885.25 93.5 862.28 93.5"/>
        <polygon class="cls-8" points="922.25 93.5 917.15 93.5 917.15 86.08 904.39 86.08 904.39 46 963.08 46 963.08 86.08 951.6 86.08 951.6 93.5 945.22 93.5 922.25 93.5"/>
        <polygon class="cls-8" points="982.23 93.5 977.12 93.5 977.12 86.08 964.37 86.08 964.37 46 1023.05 46 1023.05 86.08 1011.57 86.08 1011.57 93.5 1005.19 93.5 982.23 93.5"/>
        <polygon class="cls-8" points="682.36 102 677.26 102 677.26 109.42 664.5 109.42 664.5 149.5 723.19 149.5 723.19 109.42 711.7 109.42 711.7 102 705.33 102 682.36 102"/>
        <polygon class="cls-8" points="742.33 102 737.23 102 737.23 109.42 724.47 109.42 724.47 149.5 783.16 149.5 783.16 109.42 771.68 109.42 771.68 102 765.3 102 742.33 102"/>
        <polygon class="cls-8" points="802.31 102 797.2 102 797.2 109.42 784.45 109.42 784.45 149.5 843.13 149.5 843.13 109.42 831.65 109.42 831.65 102 825.27 102 802.31 102"/>
        <polygon class="cls-8" points="862.28 102 857.18 102 857.18 109.42 844.42 109.42 844.42 149.5 903.11 149.5 903.11 109.42 891.62 109.42 891.62 102 885.25 102 862.28 102"/>
        <polygon class="cls-8" points="922.25 102 917.15 102 917.15 109.42 904.39 109.42 904.39 149.5 963.08 149.5 963.08 109.42 951.6 109.42 951.6 102 945.22 102 922.25 102"/>
        <polygon class="cls-8" points="982.23 102 977.12 102 977.12 109.42 964.37 109.42 964.37 149.5 1023.05 149.5 1023.05 109.42 1011.57 109.42 1011.57 102 1005.19 102 982.23 102"/>
        <polygon class="cls-8" points="1042.2 93.5 1037.1 93.5 1037.1 86.08 1024.34 86.08 1024.34 46 1083.03 46 1083.03 86.08 1071.54 86.08 1071.54 93.5 1065.17 93.5 1042.2 93.5"/>
        <polygon class="cls-8" points="1042.2 102 1037.1 102 1037.1 109.42 1024.34 109.42 1024.34 149.5 1083.03 149.5 1083.03 109.42 1071.54 109.42 1071.54 102 1065.17 102 1042.2 102"/>
        <polygon class="cls-8" points="1102.17 93.5 1097.07 93.5 1097.07 86.08 1084.31 86.08 1084.31 46 1143 46 1143 86.08 1131.52 86.08 1131.52 93.5 1125.14 93.5 1102.17 93.5"/>
        <polygon class="cls-8" points="1102.17 102 1097.07 102 1097.07 109.42 1084.31 109.42 1084.31 149.5 1143 149.5 1143 109.42 1131.52 109.42 1131.52 102 1125.14 102 1102.17 102"/>
      </g>
    </g>
    <g>
      <rect class="cls-3" x="1149.5" y="45" width="479" height="104"/>
      <g>
        <polygon class="cls-8" points="1167.36 93.5 1162.26 93.5 1162.26 86.08 1149.5 86.08 1149.5 46 1208.19 46 1208.19 86.08 1196.7 86.08 1196.7 93.5 1190.33 93.5 1167.36 93.5"/>
        <polygon class="cls-8" points="1227.33 93.5 1222.23 93.5 1222.23 86.08 1209.47 86.08 1209.47 46 1268.16 46 1268.16 86.08 1256.68 86.08 1256.68 93.5 1250.3 93.5 1227.33 93.5"/>
        <polygon class="cls-8" points="1287.31 93.5 1282.2 93.5 1282.2 86.08 1269.45 86.08 1269.45 46 1328.13 46 1328.13 86.08 1316.65 86.08 1316.65 93.5 1310.27 93.5 1287.31 93.5"/>
        <polygon class="cls-8" points="1347.28 93.5 1342.18 93.5 1342.18 86.08 1329.42 86.08 1329.42 46 1388.11 46 1388.11 86.08 1376.62 86.08 1376.62 93.5 1370.25 93.5 1347.28 93.5"/>
        <polygon class="cls-8" points="1407.25 93.5 1402.15 93.5 1402.15 86.08 1389.39 86.08 1389.39 46 1448.08 46 1448.08 86.08 1436.6 86.08 1436.6 93.5 1430.22 93.5 1407.25 93.5"/>
        <polygon class="cls-8" points="1467.23 93.5 1462.12 93.5 1462.12 86.08 1449.37 86.08 1449.37 46 1508.05 46 1508.05 86.08 1496.57 86.08 1496.57 93.5 1490.19 93.5 1467.23 93.5"/>
        <polygon class="cls-8" points="1167.36 102 1162.26 102 1162.26 109.42 1149.5 109.42 1149.5 149.5 1208.19 149.5 1208.19 109.42 1196.7 109.42 1196.7 102 1190.33 102 1167.36 102"/>
        <polygon class="cls-8" points="1227.33 102 1222.23 102 1222.23 109.42 1209.47 109.42 1209.47 149.5 1268.16 149.5 1268.16 109.42 1256.68 109.42 1256.68 102 1250.3 102 1227.33 102"/>
        <polygon class="cls-8" points="1287.31 102 1282.2 102 1282.2 109.42 1269.45 109.42 1269.45 149.5 1328.13 149.5 1328.13 109.42 1316.65 109.42 1316.65 102 1310.27 102 1287.31 102"/>
        <polygon class="cls-8" points="1347.28 102 1342.18 102 1342.18 109.42 1329.42 109.42 1329.42 149.5 1388.11 149.5 1388.11 109.42 1376.62 109.42 1376.62 102 1370.25 102 1347.28 102"/>
        <polygon class="cls-8" points="1407.25 102 1402.15 102 1402.15 109.42 1389.39 109.42 1389.39 149.5 1448.08 149.5 1448.08 109.42 1436.6 109.42 1436.6 102 1430.22 102 1407.25 102"/>
        <polygon class="cls-8" points="1467.23 102 1462.12 102 1462.12 109.42 1449.37 109.42 1449.37 149.5 1508.05 149.5 1508.05 109.42 1496.57 109.42 1496.57 102 1490.19 102 1467.23 102"/>
        <polygon class="cls-8" points="1527.2 93.5 1522.1 93.5 1522.1 86.08 1509.34 86.08 1509.34 46 1568.03 46 1568.03 86.08 1556.54 86.08 1556.54 93.5 1550.17 93.5 1527.2 93.5"/>
        <polygon class="cls-8" points="1527.2 102 1522.1 102 1522.1 109.42 1509.34 109.42 1509.34 149.5 1568.03 149.5 1568.03 109.42 1556.54 109.42 1556.54 102 1550.17 102 1527.2 102"/>
        <polygon class="cls-8" points="1587.17 93.5 1582.07 93.5 1582.07 86.08 1569.31 86.08 1569.31 46 1628 46 1628 86.08 1616.52 86.08 1616.52 93.5 1610.14 93.5 1587.17 93.5"/>
        <polygon class="cls-8" points="1587.17 102 1582.07 102 1582.07 109.42 1569.31 109.42 1569.31 149.5 1628 149.5 1628 109.42 1616.52 109.42 1616.52 102 1610.14 102 1587.17 102"/>
      </g>
    </g>
  </g>
</svg>